solid
 facet normal  1.1374989547e-01 8.0622649764e-02 -9.9023277548e-01
   outer loop
     vertex 3.3917529000e+01 0.0000000000e+00 1.0994730000e+00
     vertex 3.5155065090e+01 6.1908490726e+00 1.7456768758e+00
     vertex 3.5194070127e+01 6.1908490726e+00 1.7501574574e+00
   endloop
 endfacet
 facet normal  1.1374989547e-01 8.0622649764e-02 -9.9023277548e-01
   outer loop
     vertex 3.3917529000e+01 0.0000000000e+00 1.0994730000e+00
     vertex 3.3785308532e+01 0.0000000000e+00 1.0842845869e+00
     vertex 3.5155065090e+01 6.1908490726e+00 1.7456768758e+00
   endloop
 endfacet
 facet normal  1.0839040581e-01 8.1861812382e-02 -9.9073213514e-01
   outer loop
     vertex 3.3785308532e+01 0.0000000000e+00 1.0842845869e+00
     vertex 3.5086855113e+01 6.1908490726e+00 1.7382144075e+00
     vertex 3.5155065090e+01 6.1908490726e+00 1.7456768758e+00
   endloop
 endfacet
 facet normal  1.0839040581e-01 8.1861812382e-02 -9.9073213514e-01
   outer loop
     vertex 3.3785308532e+01 0.0000000000e+00 1.0842845869e+00
     vertex 3.3554088257e+01 0.0000000000e+00 1.0589880830e+00
     vertex 3.5086855113e+01 6.1908490726e+00 1.7382144075e+00
   endloop
 endfacet
 facet normal  9.9936004041e-02 8.4032558164e-02 -9.9143901692e-01
   outer loop
     vertex 3.3554088257e+01 0.0000000000e+00 1.0589880830e+00
     vertex 3.4976102534e+01 6.1908490726e+00 1.7270506647e+00
     vertex 3.5086855113e+01 6.1908490726e+00 1.7382144075e+00
   endloop
 endfacet
 facet normal  9.9936004041e-02 8.4032558164e-02 -9.9143901692e-01
   outer loop
     vertex 3.3554088257e+01 0.0000000000e+00 1.0589880830e+00
     vertex 3.3178655767e+01 0.0000000000e+00 1.0211448851e+00
     vertex 3.4976102534e+01 6.1908490726e+00 1.7270506647e+00
   endloop
 endfacet
 facet normal  8.7064816914e-02 8.7869999783e-02 -9.9231979764e-01
   outer loop
     vertex 3.3178655767e+01 0.0000000000e+00 1.0211448851e+00
     vertex 3.4816265246e+01 6.1908490726e+00 1.7130267540e+00
     vertex 3.4976102534e+01 6.1908490726e+00 1.7270506647e+00
   endloop
 endfacet
 facet normal  8.7064816914e-02 8.7869999783e-02 -9.9231979764e-01
   outer loop
     vertex 3.3178655767e+01 0.0000000000e+00 1.0211448851e+00
     vertex 3.2636834427e+01 0.0000000000e+00 9.7360620264e-01
     vertex 3.4816265246e+01 6.1908490726e+00 1.7130267540e+00
   endloop
 endfacet
 facet normal  6.6643185247e-02 9.5167714694e-02 -9.9322796575e-01
   outer loop
     vertex 3.2636834427e+01 0.0000000000e+00 9.7360620264e-01
     vertex 3.4620842039e+01 6.1908490726e+00 1.6999143313e+00
     vertex 3.4816265246e+01 6.1908490726e+00 1.7130267540e+00
   endloop
 endfacet
 facet normal  6.6643185247e-02 9.5167714694e-02 -9.9322796575e-01
   outer loop
     vertex 3.2636834427e+01 0.0000000000e+00 9.7360620264e-01
     vertex 3.1974382847e+01 0.0000000000e+00 9.2915730986e-01
     vertex 3.4620842039e+01 6.1908490726e+00 1.6999143313e+00
   endloop
 endfacet
 facet normal  3.2429179086e-02 1.0981771959e-01 -9.9342257716e-01
   outer loop
     vertex 3.1974382847e+01 0.0000000000e+00 9.2915730986e-01
     vertex 3.1310829697e+01 0.0000000000e+00 9.0749635265e-01
     vertex 3.4620842039e+01 6.1908490726e+00 1.6999143313e+00
   endloop
 endfacet
 facet normal  3.2429179086e-02 1.0981771959e-01 -9.9342257716e-01
   outer loop
     vertex 3.4620842039e+01 6.1908490726e+00 1.6999143313e+00
     vertex 3.1310829697e+01 0.0000000000e+00 9.0749635265e-01
     vertex 3.4425093870e+01 6.1908490726e+00 1.6935243492e+00
   endloop
 endfacet
 facet normal  -2.2161877945e-02 1.3688781807e-01 -9.9033861705e-01
   outer loop
     vertex 3.1310829697e+01 0.0000000000e+00 9.0749635265e-01
     vertex 3.0767160442e+01 0.0000000000e+00 9.1966262737e-01
     vertex 3.4425093870e+01 6.1908490726e+00 1.6935243492e+00
   endloop
 endfacet
 facet normal  -2.2161877945e-02 1.3688781807e-01 -9.9033861705e-01
   outer loop
     vertex 3.4425093870e+01 6.1908490726e+00 1.6935243492e+00
     vertex 3.0767160442e+01 0.0000000000e+00 9.1966262737e-01
     vertex 3.4264711447e+01 6.1908490726e+00 1.6971134001e+00
   endloop
 endfacet
 facet normal  -1.0333186188e-01 1.8119612982e-01 -9.7800331741e-01
   outer loop
     vertex 3.0767160442e+01 0.0000000000e+00 9.1966262737e-01
     vertex 3.0392075540e+01 0.0000000000e+00 9.5929257604e-01
     vertex 3.4264711447e+01 6.1908490726e+00 1.6971134001e+00
   endloop
 endfacet
 facet normal  -1.0333186188e-01 1.8119612982e-01 -9.7800331741e-01
   outer loop
     vertex 3.4264711447e+01 6.1908490726e+00 1.6971134001e+00
     vertex 3.0392075540e+01 0.0000000000e+00 9.5929257604e-01
     vertex 3.4154061406e+01 6.1908490726e+00 1.7088042344e+00
   endloop
 endfacet
 facet normal  -2.3609167513e-01 2.5692414869e-01 -9.3715030958e-01
   outer loop
     vertex 3.0392075540e+01 0.0000000000e+00 9.5929257604e-01
     vertex 3.0166914038e+01 0.0000000000e+00 1.0160164074e+00
     vertex 3.4154061406e+01 6.1908490726e+00 1.7088042344e+00
   endloop
 endfacet
 facet normal  -2.3609167513e-01 2.5692414869e-01 -9.3715030958e-01
   outer loop
     vertex 3.4154061406e+01 6.1908490726e+00 1.7088042344e+00
     vertex 3.0166914038e+01 0.0000000000e+00 1.0160164074e+00
     vertex 3.4087638766e+01 6.1908490726e+00 1.7255377638e+00
   endloop
 endfacet
 facet normal  -5.8960539171e-01 4.5025327555e-01 -6.7055012484e-01
   outer loop
     vertex 3.0166914038e+01 0.0000000000e+00 1.0160164074e+00
     vertex 3.0072000000e+01 0.0000000000e+00 1.0994730000e+00
     vertex 3.4087638766e+01 6.1908490726e+00 1.7255377638e+00
   endloop
 endfacet
 facet normal  -5.8960539171e-01 4.5025327555e-01 -6.7055012484e-01
   outer loop
     vertex 3.4087638766e+01 6.1908490726e+00 1.7255377638e+00
     vertex 3.0072000000e+01 0.0000000000e+00 1.0994730000e+00
     vertex 3.4059639127e+01 6.1908490726e+00 1.7501574574e+00
   endloop
 endfacet
 facet normal  -6.2395171744e-01 3.2731551590e-01 7.0961173000e-01
   outer loop
     vertex 3.0072000000e+01 0.0000000000e+00 1.0994730000e+00
     vertex 3.4087638766e+01 6.1908490726e+00 1.7747771510e+00
     vertex 3.4059639127e+01 6.1908490726e+00 1.7501574574e+00
   endloop
 endfacet
 facet normal  -6.2395171744e-01 3.2731551590e-01 7.0961173000e-01
   outer loop
     vertex 3.0072000000e+01 0.0000000000e+00 1.0994730000e+00
     vertex 3.0166914038e+01 0.0000000000e+00 1.1829295926e+00
     vertex 3.4087638766e+01 6.1908490726e+00 1.7747771510e+00
   endloop
 endfacet
 facet normal  -2.4382386773e-01 6.1889880052e-02 9.6784273737e-01
   outer loop
     vertex 3.0166914038e+01 0.0000000000e+00 1.1829295926e+00
     vertex 3.4154061406e+01 6.1908490726e+00 1.7915106805e+00
     vertex 3.4087638766e+01 6.1908490726e+00 1.7747771510e+00
   endloop
 endfacet
 facet normal  -2.4382386773e-01 6.1889880052e-02 9.6784273737e-01
   outer loop
     vertex 3.0166914038e+01 0.0000000000e+00 1.1829295926e+00
     vertex 3.0392075540e+01 0.0000000000e+00 1.2396534240e+00
     vertex 3.4154061406e+01 6.1908490726e+00 1.7915106805e+00
   endloop
 endfacet
 facet normal  -1.0503881217e-01 -2.4791327199e-02 9.9415906073e-01
   outer loop
     vertex 3.0392075540e+01 0.0000000000e+00 1.2396534240e+00
     vertex 3.4264711447e+01 6.1908490726e+00 1.8032015148e+00
     vertex 3.4154061406e+01 6.1908490726e+00 1.7915106805e+00
   endloop
 endfacet
 facet normal  -1.0503881217e-01 -2.4791327199e-02 9.9415906073e-01
   outer loop
     vertex 3.0392075540e+01 0.0000000000e+00 1.2396534240e+00
     vertex 3.0767160442e+01 0.0000000000e+00 1.2792833726e+00
     vertex 3.4264711447e+01 6.1908490726e+00 1.8032015148e+00
   endloop
 endfacet
 facet normal  -2.2314767457e-02 -7.1781558906e-02 9.9717072708e-01
   outer loop
     vertex 3.0767160442e+01 0.0000000000e+00 1.2792833726e+00
     vertex 3.4425093870e+01 6.1908490726e+00 1.8067905656e+00
     vertex 3.4264711447e+01 6.1908490726e+00 1.8032015148e+00
   endloop
 endfacet
 facet normal  -2.2314767457e-02 -7.1781558906e-02 9.9717072708e-01
   outer loop
     vertex 3.0767160442e+01 0.0000000000e+00 1.2792833726e+00
     vertex 3.1310829697e+01 0.0000000000e+00 1.2914496473e+00
     vertex 3.4425093870e+01 6.1908490726e+00 1.8067905656e+00
   endloop
 endfacet
 facet normal  3.2465842744e-02 -9.9120057169e-02 9.9454571706e-01
   outer loop
     vertex 3.1310829697e+01 0.0000000000e+00 1.2914496473e+00
     vertex 3.4620842039e+01 6.1908490726e+00 1.8004005836e+00
     vertex 3.4425093870e+01 6.1908490726e+00 1.8067905656e+00
   endloop
 endfacet
 facet normal  3.2465842744e-02 -9.9120057169e-02 9.9454571706e-01
   outer loop
     vertex 3.1310829697e+01 0.0000000000e+00 1.2914496473e+00
     vertex 3.1974382847e+01 0.0000000000e+00 1.2697886901e+00
     vertex 3.4620842039e+01 6.1908490726e+00 1.8004005836e+00
   endloop
 endfacet
 facet normal  6.6515200830e-02 -1.1339902152e-01 9.9132052837e-01
   outer loop
     vertex 3.1974382847e+01 0.0000000000e+00 1.2697886901e+00
     vertex 3.2636834427e+01 0.0000000000e+00 1.2253397974e+00
     vertex 3.4620842039e+01 6.1908490726e+00 1.8004005836e+00
   endloop
 endfacet
 facet normal  6.6515200830e-02 -1.1339902152e-01 9.9132052837e-01
   outer loop
     vertex 3.4620842039e+01 6.1908490726e+00 1.8004005836e+00
     vertex 3.2636834427e+01 0.0000000000e+00 1.2253397974e+00
     vertex 3.4816265246e+01 6.1908490726e+00 1.7872881608e+00
   endloop
 endfacet
 facet normal  8.6768007314e-02 -1.2031247113e-01 9.8893691518e-01
   outer loop
     vertex 3.2636834427e+01 0.0000000000e+00 1.2253397974e+00
     vertex 3.3178655767e+01 0.0000000000e+00 1.1778011149e+00
     vertex 3.4816265246e+01 6.1908490726e+00 1.7872881608e+00
   endloop
 endfacet
 facet normal  8.6768007314e-02 -1.2031247113e-01 9.8893691518e-01
   outer loop
     vertex 3.4816265246e+01 6.1908490726e+00 1.7872881608e+00
     vertex 3.3178655767e+01 0.0000000000e+00 1.1778011149e+00
     vertex 3.4976102534e+01 6.1908490726e+00 1.7732642502e+00
   endloop
 endfacet
 facet normal  9.9518504075e-02 -1.2385671758e-01 9.8729710870e-01
   outer loop
     vertex 3.3178655767e+01 0.0000000000e+00 1.1778011149e+00
     vertex 3.3554088257e+01 0.0000000000e+00 1.1399579170e+00
     vertex 3.4976102534e+01 6.1908490726e+00 1.7732642502e+00
   endloop
 endfacet
 facet normal  9.9518504075e-02 -1.2385671758e-01 9.8729710870e-01
   outer loop
     vertex 3.4976102534e+01 6.1908490726e+00 1.7732642502e+00
     vertex 3.3554088257e+01 0.0000000000e+00 1.1399579170e+00
     vertex 3.5086855113e+01 6.1908490726e+00 1.7621005074e+00
   endloop
 endfacet
 facet normal  1.0789120347e-01 -1.2581633424e-01 9.8616922394e-01
   outer loop
     vertex 3.3554088257e+01 0.0000000000e+00 1.1399579170e+00
     vertex 3.3785308532e+01 0.0000000000e+00 1.1146614131e+00
     vertex 3.5086855113e+01 6.1908490726e+00 1.7621005074e+00
   endloop
 endfacet
 facet normal  1.0789120347e-01 -1.2581633424e-01 9.8616922394e-01
   outer loop
     vertex 3.5086855113e+01 6.1908490726e+00 1.7621005074e+00
     vertex 3.3785308532e+01 0.0000000000e+00 1.1146614131e+00
     vertex 3.5155065090e+01 6.1908490726e+00 1.7546380391e+00
   endloop
 endfacet
 facet normal  1.1319857040e-01 -1.2691453978e-01 9.8543329721e-01
   outer loop
     vertex 3.3785308532e+01 0.0000000000e+00 1.1146614131e+00
     vertex 3.3917529000e+01 0.0000000000e+00 1.0994730000e+00
     vertex 3.5155065090e+01 6.1908490726e+00 1.7546380391e+00
   endloop
 endfacet
 facet normal  1.1319857040e-01 -1.2691453978e-01 9.8543329721e-01
   outer loop
     vertex 3.5155065090e+01 6.1908490726e+00 1.7546380391e+00
     vertex 3.3917529000e+01 0.0000000000e+00 1.0994730000e+00
     vertex 3.5194070127e+01 6.1908490726e+00 1.7501574574e+00
   endloop
 endfacet
 facet normal  1.0185253071e-01 4.5106151668e-01 -8.8666203830e-01
   outer loop
     vertex 3.5194070127e+01 6.1908490726e+00 1.7501574574e+00
     vertex 3.5155065090e+01 6.1908490726e+00 1.7456768758e+00
     vertex 3.5155782107e+01 6.1939085913e+00 1.7473156750e+00
   endloop
 endfacet
 facet normal  9.6849030671e-02 4.5221869520e-01 -8.8663324829e-01
   outer loop
     vertex 3.5155065090e+01 6.1908490726e+00 1.7456768758e+00
     vertex 3.5088898051e+01 6.1989581773e+00 1.7425852650e+00
     vertex 3.5155782107e+01 6.1939085913e+00 1.7473156750e+00
   endloop
 endfacet
 facet normal  9.6945488887e-02 4.5320106372e-01 -8.8612096693e-01
   outer loop
     vertex 3.5155065090e+01 6.1908490726e+00 1.7456768758e+00
     vertex 3.5086855113e+01 6.1908490726e+00 1.7382144075e+00
     vertex 3.5088898051e+01 6.1989581773e+00 1.7425852650e+00
   endloop
 endfacet
 facet normal  8.8809026912e-02 4.5516733540e-01 -8.8596594377e-01
   outer loop
     vertex 3.5086855113e+01 6.1908490726e+00 1.7382144075e+00
     vertex 3.4980635289e+01 6.2063203973e+00 1.7355153900e+00
     vertex 3.5088898051e+01 6.1989581773e+00 1.7425852650e+00
   endloop
 endfacet
 facet normal  8.9162059488e-02 4.5783751413e-01 -8.8455352456e-01
   outer loop
     vertex 3.5086855113e+01 6.1908490726e+00 1.7382144075e+00
     vertex 3.4976102534e+01 6.1908490726e+00 1.7270506647e+00
     vertex 3.4980635289e+01 6.2063203973e+00 1.7355153900e+00
   endloop
 endfacet
 facet normal  7.6604655597e-02 4.6120351166e-01 -8.8398136155e-01
   outer loop
     vertex 3.4976102534e+01 6.1908490726e+00 1.7270506647e+00
     vertex 3.4824857286e+01 6.2151710188e+00 1.7266335483e+00
     vertex 3.4980635289e+01 6.2063203973e+00 1.7355153900e+00
   endloop
 endfacet
 facet normal  7.7340839234e-02 4.6582415663e-01 -8.8149092433e-01
   outer loop
     vertex 3.4976102534e+01 6.1908490726e+00 1.7270506647e+00
     vertex 3.4816265246e+01 6.1908490726e+00 1.7130267540e+00
     vertex 3.4824857286e+01 6.2151710188e+00 1.7266335483e+00
   endloop
 endfacet
 facet normal  5.7496172215e-02 4.7188057266e-01 -8.7978572126e-01
   outer loop
     vertex 3.4816265246e+01 6.1908490726e+00 1.7130267540e+00
     vertex 3.4634512277e+01 6.2228277928e+00 1.7183008073e+00
     vertex 3.4824857286e+01 6.2151710188e+00 1.7266335483e+00
   endloop
 endfacet
 facet normal  5.8782471445e-02 4.7857926077e-01 -8.7607449011e-01
   outer loop
     vertex 3.4816265246e+01 6.1908490726e+00 1.7130267540e+00
     vertex 3.4620842039e+01 6.1908490726e+00 1.6999143313e+00
     vertex 3.4634512277e+01 6.2228277928e+00 1.7183008073e+00
   endloop
 endfacet
 facet normal  2.8458253564e-02 4.8907239791e-01 -8.7177882367e-01
   outer loop
     vertex 3.4620842039e+01 6.1908490726e+00 1.6999143313e+00
     vertex 3.4425093870e+01 6.1908490726e+00 1.6935243492e+00
     vertex 3.4634512277e+01 6.2228277928e+00 1.7183008073e+00
   endloop
 endfacet
 facet normal  2.6443402876e-02 4.9826927698e-01 -8.6661899014e-01
   outer loop
     vertex 3.4634512277e+01 6.2228277928e+00 1.7183008073e+00
     vertex 3.4425093870e+01 6.1908490726e+00 1.6935243492e+00
     vertex 3.4442686816e+01 6.2258221989e+00 1.7141692369e+00
   endloop
 endfacet
 facet normal  -1.9172275193e-02 5.1538629026e-01 -8.5674348301e-01
   outer loop
     vertex 3.4425093870e+01 6.1908490726e+00 1.6935243492e+00
     vertex 3.4264711447e+01 6.1908490726e+00 1.6971134001e+00
     vertex 3.4442686816e+01 6.2258221989e+00 1.7141692369e+00
   endloop
 endfacet
 facet normal  -2.1343002147e-02 5.2388599799e-01 -8.5152095533e-01
   outer loop
     vertex 3.4442686816e+01 6.2258221989e+00 1.7141692369e+00
     vertex 3.4264711447e+01 6.1908490726e+00 1.6971134001e+00
     vertex 3.4282779793e+01 6.2228331643e+00 1.7163382764e+00
   endloop
 endfacet
 facet normal  -8.7810004990e-02 5.4915607549e-01 -8.3109386219e-01
   outer loop
     vertex 3.4264711447e+01 6.1908490726e+00 1.6971134001e+00
     vertex 3.4154061406e+01 6.1908490726e+00 1.7088042344e+00
     vertex 3.4282779793e+01 6.2228331643e+00 1.7163382764e+00
   endloop
 endfacet
 facet normal  -8.9622164903e-02 5.5542020235e-01 -8.2672623424e-01
   outer loop
     vertex 3.4282779793e+01 6.2228331643e+00 1.7163382764e+00
     vertex 3.4154061406e+01 6.1908490726e+00 1.7088042344e+00
     vertex 3.4168994243e+01 6.2154230573e+00 1.7236949852e+00
   endloop
 endfacet
 facet normal  -1.9674370199e-01 5.9278295369e-01 -7.8096112934e-01
   outer loop
     vertex 3.4154061406e+01 6.1908490726e+00 1.7088042344e+00
     vertex 3.4087638766e+01 6.1908490726e+00 1.7255377638e+00
     vertex 3.4168994243e+01 6.2154230573e+00 1.7236949852e+00
   endloop
 endfacet
 facet normal  -1.9779014599e-01 5.9647863904e-01 -7.7787678415e-01
   outer loop
     vertex 3.4168994243e+01 6.2154230573e+00 1.7236949852e+00
     vertex 3.4087638766e+01 6.1908490726e+00 1.7255377638e+00
     vertex 3.4096847252e+01 6.2053894940e+00 1.7343459751e+00
   endloop
 endfacet
 facet normal  -4.9741138425e-01 6.5769779723e-01 -5.6569914471e-01
   outer loop
     vertex 3.4087638766e+01 6.1908490726e+00 1.7255377638e+00
     vertex 3.4059639127e+01 6.1908490726e+00 1.7501574574e+00
     vertex 3.4096847252e+01 6.2053894940e+00 1.7343459751e+00
   endloop
 endfacet
 facet normal  -5.3712176269e-01 5.8167756528e-01 6.1086121344e-01
   outer loop
     vertex 3.4059639127e+01 6.1908490726e+00 1.7501574574e+00
     vertex 3.4087638766e+01 6.1908490726e+00 1.7747771510e+00
     vertex 3.4096851076e+01 6.2053955317e+00 1.7690258984e+00
   endloop
 endfacet
 facet normal  -2.1693838484e-01 4.7464813576e-01 8.5302220628e-01
   outer loop
     vertex 3.4087638766e+01 6.1908490726e+00 1.7747771510e+00
     vertex 3.4169004908e+01 6.2154406070e+00 1.7817864800e+00
     vertex 3.4096851076e+01 6.2053955317e+00 1.7690258984e+00
   endloop
 endfacet
 facet normal  -2.1568045479e-01 4.6960039511e-01 8.5612931870e-01
   outer loop
     vertex 3.4087638766e+01 6.1908490726e+00 1.7747771510e+00
     vertex 3.4154061406e+01 6.1908490726e+00 1.7915106805e+00
     vertex 3.4169004908e+01 6.2154406070e+00 1.7817864800e+00
   endloop
 endfacet
 facet normal  -9.7988087722e-02 4.1687932238e-01 9.0366474161e-01
   outer loop
     vertex 3.4154061406e+01 6.1908490726e+00 1.7915106805e+00
     vertex 3.4282796984e+01 6.2228635972e+00 1.7907010436e+00
     vertex 3.4169004908e+01 6.2154406070e+00 1.7817864800e+00
   endloop
 endfacet
 facet normal  -9.5900483412e-02 4.0858596097e-01 9.0766767585e-01
   outer loop
     vertex 3.4154061406e+01 6.1908490726e+00 1.7915106805e+00
     vertex 3.4264711447e+01 6.1908490726e+00 1.8032015148e+00
     vertex 3.4282796984e+01 6.2228635972e+00 1.7907010436e+00
   endloop
 endfacet
 facet normal  -2.3237910810e-02 3.7498459395e-01 9.2673974437e-01
   outer loop
     vertex 3.4264711447e+01 6.1908490726e+00 1.8032015148e+00
     vertex 3.4442705625e+01 6.2258595910e+00 1.7934984754e+00
     vertex 3.4282796984e+01 6.2228635972e+00 1.7907010436e+00
   endloop
 endfacet
 facet normal  -2.0837639371e-02 3.6400743271e-01 9.3116291900e-01
   outer loop
     vertex 3.4264711447e+01 6.1908490726e+00 1.8032015148e+00
     vertex 3.4425093870e+01 6.1908490726e+00 1.8067905656e+00
     vertex 3.4442705625e+01 6.2258595910e+00 1.7934984754e+00
   endloop
 endfacet
 facet normal  2.8661424490e-02 3.4216034332e-01 9.3920435594e-01
   outer loop
     vertex 3.4425093870e+01 6.1908490726e+00 1.8067905656e+00
     vertex 3.4634526003e+01 6.2228599029e+00 1.7887375617e+00
     vertex 3.4442705625e+01 6.2258595910e+00 1.7934984754e+00
   endloop
 endfacet
 facet normal  3.0792837825e-02 3.3052277868e-01 9.4329554961e-01
   outer loop
     vertex 3.4425093870e+01 6.1908490726e+00 1.8067905656e+00
     vertex 3.4620842039e+01 6.1908490726e+00 1.8004005836e+00
     vertex 3.4634526003e+01 6.2228599029e+00 1.7887375617e+00
   endloop
 endfacet
 facet normal  6.3481444084e-02 3.1757321011e-01 9.4610642238e-01
   outer loop
     vertex 3.4620842039e+01 6.1908490726e+00 1.8004005836e+00
     vertex 3.4816265246e+01 6.1908490726e+00 1.7872881608e+00
     vertex 3.4634526003e+01 6.2228599029e+00 1.7887375617e+00
   endloop
 endfacet
 facet normal  6.2029774631e-02 3.0920173995e-01 9.4897133311e-01
   outer loop
     vertex 3.4634526003e+01 6.2228599029e+00 1.7887375617e+00
     vertex 3.4816265246e+01 6.1908490726e+00 1.7872881608e+00
     vertex 3.4824864042e+01 6.2151900843e+00 1.7787951071e+00
   endloop
 endfacet
 facet normal  8.3323881309e-02 3.0192746089e-01 9.4968254652e-01
   outer loop
     vertex 3.4816265246e+01 6.1908490726e+00 1.7872881608e+00
     vertex 3.4976102534e+01 6.1908490726e+00 1.7732642502e+00
     vertex 3.4824864042e+01 6.2151900843e+00 1.7787951071e+00
   endloop
 endfacet
 facet normal  8.2474755673e-02 2.9622725042e-01 9.5154996232e-01
   outer loop
     vertex 3.4824864042e+01 6.2151900843e+00 1.7787951071e+00
     vertex 3.4976102534e+01 6.1908490726e+00 1.7732642502e+00
     vertex 3.4980637643e+01 6.2063283669e+00 1.7680523107e+00
   endloop
 endfacet
 facet normal  9.5911383673e-02 2.9227775276e-01 9.5151180850e-01
   outer loop
     vertex 3.4976102534e+01 6.1908490726e+00 1.7732642502e+00
     vertex 3.5086855113e+01 6.1908490726e+00 1.7621005074e+00
     vertex 3.4980637643e+01 6.2063283669e+00 1.7680523107e+00
   endloop
 endfacet
 facet normal  9.5494982194e-02 2.8902219191e-01 9.5254757412e-01
   outer loop
     vertex 3.4980637643e+01 6.2063283669e+00 1.7680523107e+00
     vertex 3.5086855113e+01 6.1908490726e+00 1.7621005074e+00
     vertex 3.5088898651e+01 6.1989605334e+00 1.7594344570e+00
   endloop
 endfacet
 facet normal  1.0418804007e-01 2.8675760008e-01 9.5232081312e-01
   outer loop
     vertex 3.5086855113e+01 6.1908490726e+00 1.7621005074e+00
     vertex 3.5155065090e+01 6.1908490726e+00 1.7546380391e+00
     vertex 3.5088898651e+01 6.1989605334e+00 1.7594344570e+00
   endloop
 endfacet
 facet normal  1.0406944167e-01 2.8557186082e-01 9.5269001444e-01
   outer loop
     vertex 3.5088898651e+01 6.1989605334e+00 1.7594344570e+00
     vertex 3.5155065090e+01 6.1908490726e+00 1.7546380391e+00
     vertex 3.5155782242e+01 6.1939091578e+00 1.7536424290e+00
   endloop
 endfacet
 facet normal  1.0941381260e-01 2.8425288168e-01 9.5248565179e-01
   outer loop
     vertex 3.5155065090e+01 6.1908490726e+00 1.7546380391e+00
     vertex 3.5194070127e+01 6.1908490726e+00 1.7501574574e+00
     vertex 3.5155782242e+01 6.1939091578e+00 1.7536424290e+00
   endloop
 endfacet
 facet normal  1.0103485318e-01 9.2561466382e-01 -3.6473202843e-01
   outer loop
     vertex 3.5194070127e+01 6.1908490726e+00 1.7501574574e+00
     vertex 3.5155782107e+01 6.1939085913e+00 1.7473156750e+00
     vertex 3.5156078927e+01 6.1951751415e+00 1.7506121406e+00
   endloop
 endfacet
 facet normal  9.5561730181e-02 9.2628788777e-01 -3.6449788022e-01
   outer loop
     vertex 3.5155782107e+01 6.1939085913e+00 1.7473156750e+00
     vertex 3.5089743472e+01 6.2023139718e+00 1.7513624365e+00
     vertex 3.5156078927e+01 6.1951751415e+00 1.7506121406e+00
   endloop
 endfacet
 facet normal  9.5670363209e-02 9.2666523938e-01 -3.6350889360e-01
   outer loop
     vertex 3.5155782107e+01 6.1939085913e+00 1.7473156750e+00
     vertex 3.5088898051e+01 6.1989581773e+00 1.7425852650e+00
     vertex 3.5089743472e+01 6.2023139718e+00 1.7513624365e+00
   endloop
 endfacet
 facet normal  8.6314273994e-02 9.2777085453e-01 -3.6303042240e-01
   outer loop
     vertex 3.5088898051e+01 6.1989581773e+00 1.7425852650e+00
     vertex 3.4982509677e+01 6.2127181968e+00 1.7524558146e+00
     vertex 3.5089743472e+01 6.2023139718e+00 1.7513624365e+00
   endloop
 endfacet
 facet normal  8.6692294666e-02 9.2877679550e-01 -3.6035830805e-01
   outer loop
     vertex 3.5088898051e+01 6.1989581773e+00 1.7425852650e+00
     vertex 3.4980635289e+01 6.2063203973e+00 1.7355153900e+00
     vertex 3.4982509677e+01 6.2127181968e+00 1.7524558146e+00
   endloop
 endfacet
 facet normal  7.2412133077e-02 9.3037665374e-01 -3.5938247755e-01
   outer loop
     vertex 3.4980635289e+01 6.2063203973e+00 1.7355153900e+00
     vertex 3.4828407016e+01 6.2252195161e+00 1.7537692710e+00
     vertex 3.4982509677e+01 6.2127181968e+00 1.7524558146e+00
   endloop
 endfacet
 facet normal  7.3183283073e-02 9.3209859787e-01 -3.5473428213e-01
   outer loop
     vertex 3.4980635289e+01 6.2063203973e+00 1.7355153900e+00
     vertex 3.4824857286e+01 6.2151710188e+00 1.7266335483e+00
     vertex 3.4828407016e+01 6.2252195161e+00 1.7537692710e+00
   endloop
 endfacet
 facet normal  5.1519351027e-02 9.3430987020e-01 -3.5271918423e-01
   outer loop
     vertex 3.4824857286e+01 6.2151710188e+00 1.7266335483e+00
     vertex 3.4640155345e+01 6.2360285941e+00 1.7549045206e+00
     vertex 3.4828407016e+01 6.2252195161e+00 1.7537692710e+00
   endloop
 endfacet
 facet normal  5.2827505171e-02 9.3675479448e-01 -3.4597645834e-01
   outer loop
     vertex 3.4824857286e+01 6.2151710188e+00 1.7266335483e+00
     vertex 3.4634512277e+01 6.2228277928e+00 1.7183008073e+00
     vertex 3.4640155345e+01 6.2360285941e+00 1.7549045206e+00
   endloop
 endfacet
 facet normal  2.2033566532e-02 9.3937785735e-01 -3.4217504740e-01
   outer loop
     vertex 3.4634512277e+01 6.2228277928e+00 1.7183008073e+00
     vertex 3.4442686816e+01 6.2258221989e+00 1.7141692369e+00
     vertex 3.4640155345e+01 6.2360285941e+00 1.7549045206e+00
   endloop
 endfacet
 facet normal  2.0155169037e-02 9.4241747317e-01 -3.3383090843e-01
   outer loop
     vertex 3.4640155345e+01 6.2360285941e+00 1.7549045206e+00
     vertex 3.4442686816e+01 6.2258221989e+00 1.7141692369e+00
     vertex 3.4449946448e+01 6.2402536664e+00 1.7553481270e+00
   endloop
 endfacet
 facet normal  -2.2096725166e-02 9.4470262276e-01 -3.2718295995e-01
   outer loop
     vertex 3.4442686816e+01 6.2258221989e+00 1.7141692369e+00
     vertex 3.4282779793e+01 6.2228331643e+00 1.7163382764e+00
     vertex 3.4449946448e+01 6.2402536664e+00 1.7553481270e+00
   endloop
 endfacet
 facet normal  -2.4135369095e-02 9.4725032116e-01 -3.1958459447e-01
   outer loop
     vertex 3.4449946448e+01 6.2402536664e+00 1.7553481270e+00
     vertex 3.4282779793e+01 6.2228331643e+00 1.7163382764e+00
     vertex 3.4290237700e+01 6.2360349437e+00 1.7549051867e+00
   endloop
 endfacet
 facet normal  -8.1668652989e-02 9.4767767565e-01 -3.0860533728e-01
   outer loop
     vertex 3.4282779793e+01 6.2228331643e+00 1.7163382764e+00
     vertex 3.4168994243e+01 6.2154230573e+00 1.7236949852e+00
     vertex 3.4290237700e+01 6.2360349437e+00 1.7549051867e+00
   endloop
 endfacet
 facet normal  -8.3406204404e-02 9.4934709223e-01 -3.0295792373e-01
   outer loop
     vertex 3.4290237700e+01 6.2360349437e+00 1.7549051867e+00
     vertex 3.4168994243e+01 6.2154230573e+00 1.7236949852e+00
     vertex 3.4175162823e+01 6.2255742813e+00 1.7538065502e+00
   endloop
 endfacet
 facet normal  -1.7294118793e-01 9.4350529024e-01 -2.8264662178e-01
   outer loop
     vertex 3.4168994243e+01 6.2154230573e+00 1.7236949852e+00
     vertex 3.4096847252e+01 6.2053894940e+00 1.7343459751e+00
     vertex 3.4175162823e+01 6.2255742813e+00 1.7538065502e+00
   endloop
 endfacet
 facet normal  -1.7404434993e-01 9.4435979012e-01 -2.7909344502e-01
   outer loop
     vertex 3.4175162823e+01 6.2255742813e+00 1.7538065502e+00
     vertex 3.4096847252e+01 6.2053894940e+00 1.7343459751e+00
     vertex 3.4100655370e+01 6.2114026038e+00 1.7523175823e+00
   endloop
 endfacet
 facet normal  -4.3008674090e-01 8.7962678141e-01 -2.0318002051e-01
   outer loop
     vertex 3.4096847252e+01 6.2053894940e+00 1.7343459751e+00
     vertex 3.4059639127e+01 6.1908490726e+00 1.7501574574e+00
     vertex 3.4100655370e+01 6.2114026038e+00 1.7523175823e+00
   endloop
 endfacet
 facet normal  -4.4678609797e-01 8.6943743369e-01 2.1085713542e-01
   outer loop
     vertex 3.4059639127e+01 6.1908490726e+00 1.7501574574e+00
     vertex 3.4096851076e+01 6.2053955317e+00 1.7690258984e+00
     vertex 3.4100655370e+01 6.2114026038e+00 1.7523175823e+00
   endloop
 endfacet
 facet normal  -1.8422082359e-01 9.3753172470e-01 2.9512192963e-01
   outer loop
     vertex 3.4096851076e+01 6.2053955317e+00 1.7690258984e+00
     vertex 3.4175162823e+01 6.2255742813e+00 1.7538065502e+00
     vertex 3.4100655370e+01 6.2114026038e+00 1.7523175823e+00
   endloop
 endfacet
 facet normal  -1.8323745739e-01 9.3653826889e-01 2.9886469364e-01
   outer loop
     vertex 3.4096851076e+01 6.2053955317e+00 1.7690258984e+00
     vertex 3.4169004908e+01 6.2154406070e+00 1.7817864800e+00
     vertex 3.4175162823e+01 6.2255742813e+00 1.7538065502e+00
   endloop
 endfacet
 facet normal  -8.8759706413e-02 9.4261772436e-01 3.2185950389e-01
   outer loop
     vertex 3.4169004908e+01 6.2154406070e+00 1.7817864800e+00
     vertex 3.4290237700e+01 6.2360349437e+00 1.7549051867e+00
     vertex 3.4175162823e+01 6.2255742813e+00 1.7538065502e+00
   endloop
 endfacet
 facet normal  -8.7058882898e-02 9.4064979520e-01 3.2802242865e-01
   outer loop
     vertex 3.4169004908e+01 6.2154406070e+00 1.7817864800e+00
     vertex 3.4282796984e+01 6.2228635972e+00 1.7907010436e+00
     vertex 3.4290237700e+01 6.2360349437e+00 1.7549051867e+00
   endloop
 endfacet
 facet normal  -2.5771776977e-02 9.3989675676e-01 3.4048480458e-01
   outer loop
     vertex 3.4282796984e+01 6.2228635972e+00 1.7907010436e+00
     vertex 3.4449946448e+01 6.2402536664e+00 1.7553481270e+00
     vertex 3.4290237700e+01 6.2360349437e+00 1.7549051867e+00
   endloop
 endfacet
 facet normal  -2.3657146284e-02 9.3683308139e-01 3.4897581155e-01
   outer loop
     vertex 3.4282796984e+01 6.2228635972e+00 1.7907010436e+00
     vertex 3.4442705625e+01 6.2258595910e+00 1.7934984754e+00
     vertex 3.4449946448e+01 6.2402536664e+00 1.7553481270e+00
   endloop
 endfacet
 facet normal  2.1579157316e-02 9.3404274991e-01 3.5650873945e-01
   outer loop
     vertex 3.4442705625e+01 6.2258595910e+00 1.7934984754e+00
     vertex 3.4640155345e+01 6.2360285941e+00 1.7549045206e+00
     vertex 3.4449946448e+01 6.2402536664e+00 1.7553481270e+00
   endloop
 endfacet
 facet normal  2.3632817457e-02 9.3030291208e-01 3.6603002843e-01
   outer loop
     vertex 3.4442705625e+01 6.2258595910e+00 1.7934984754e+00
     vertex 3.4634526003e+01 6.2228599029e+00 1.7887375617e+00
     vertex 3.4640155345e+01 6.2360285941e+00 1.7549045206e+00
   endloop
 endfacet
 facet normal  5.6704873725e-02 9.2717390952e-01 3.7031486441e-01
   outer loop
     vertex 3.4634526003e+01 6.2228599029e+00 1.7887375617e+00
     vertex 3.4824864042e+01 6.2151900843e+00 1.7787951071e+00
     vertex 3.4640155345e+01 6.2360285941e+00 1.7549045206e+00
   endloop
 endfacet
 facet normal  5.5339594656e-02 9.2407991365e-01 3.7817171026e-01
   outer loop
     vertex 3.4640155345e+01 6.2360285941e+00 1.7549045206e+00
     vertex 3.4824864042e+01 6.2151900843e+00 1.7787951071e+00
     vertex 3.4828407016e+01 6.2252195161e+00 1.7537692710e+00
   endloop
 endfacet
 facet normal  7.8656086286e-02 9.2146150882e-01 3.8042332717e-01
   outer loop
     vertex 3.4824864042e+01 6.2151900843e+00 1.7787951071e+00
     vertex 3.4980637643e+01 6.2063283669e+00 1.7680523107e+00
     vertex 3.4828407016e+01 6.2252195161e+00 1.7537692710e+00
   endloop
 endfacet
 facet normal  7.7860385593e-02 9.1922810764e-01 3.8595005696e-01
   outer loop
     vertex 3.4828407016e+01 6.2252195161e+00 1.7537692710e+00
     vertex 3.4980637643e+01 6.2063283669e+00 1.7680523107e+00
     vertex 3.4982509677e+01 6.2127181968e+00 1.7524558146e+00
   endloop
 endfacet
 facet normal  9.3239004362e-02 9.1734347797e-01 3.8702381258e-01
   outer loop
     vertex 3.4980637643e+01 6.2063283669e+00 1.7680523107e+00
     vertex 3.5088898651e+01 6.1989605334e+00 1.7594344570e+00
     vertex 3.4982509677e+01 6.2127181968e+00 1.7524558146e+00
   endloop
 endfacet
 facet normal  9.2853808466e-02 9.1600860389e-01 3.9026453573e-01
   outer loop
     vertex 3.4982509677e+01 6.2127181968e+00 1.7524558146e+00
     vertex 3.5088898651e+01 6.1989605334e+00 1.7594344570e+00
     vertex 3.5089743472e+01 6.2023139718e+00 1.7513624365e+00
   endloop
 endfacet
 facet normal  1.0292450513e-01 9.1471180928e-01 3.9077980014e-01
   outer loop
     vertex 3.5088898651e+01 6.1989605334e+00 1.7594344570e+00
     vertex 3.5155782242e+01 6.1939091578e+00 1.7536424290e+00
     vertex 3.5089743472e+01 6.2023139718e+00 1.7513624365e+00
   endloop
 endfacet
 facet normal  1.0281754995e-01 9.1420211241e-01 3.9199878710e-01
   outer loop
     vertex 3.5089743472e+01 6.2023139718e+00 1.7513624365e+00
     vertex 3.5155782242e+01 6.1939091578e+00 1.7536424290e+00
     vertex 3.5156078927e+01 6.1951751415e+00 1.7506121406e+00
   endloop
 endfacet
 facet normal  1.0870522423e-01 9.1341452673e-01 3.9224619384e-01
   outer loop
     vertex 3.5155782242e+01 6.1939091578e+00 1.7536424290e+00
     vertex 3.5194070127e+01 6.1908490726e+00 1.7501574574e+00
     vertex 3.5156078927e+01 6.1951751415e+00 1.7506121406e+00
   endloop
 endfacet
 facet normal  1.1374989547e-01 -8.0622649764e-02 -9.9023277548e-01
   outer loop
     vertex 3.3917529000e+01 0.0000000000e+00 1.0994730000e+00
     vertex 3.5194070127e+01 -6.1908490726e+00 1.7501574574e+00
     vertex 3.5155065090e+01 -6.1908490726e+00 1.7456768758e+00
   endloop
 endfacet
 facet normal  1.1374989547e-01 -8.0622649764e-02 -9.9023277548e-01
   outer loop
     vertex 3.3917529000e+01 0.0000000000e+00 1.0994730000e+00
     vertex 3.5155065090e+01 -6.1908490726e+00 1.7456768758e+00
     vertex 3.3785308532e+01 0.0000000000e+00 1.0842845869e+00
   endloop
 endfacet
 facet normal  1.0839040581e-01 -8.1861812382e-02 -9.9073213514e-01
   outer loop
     vertex 3.3785308532e+01 0.0000000000e+00 1.0842845869e+00
     vertex 3.5155065090e+01 -6.1908490726e+00 1.7456768758e+00
     vertex 3.5086855113e+01 -6.1908490726e+00 1.7382144075e+00
   endloop
 endfacet
 facet normal  1.0839040581e-01 -8.1861812382e-02 -9.9073213514e-01
   outer loop
     vertex 3.3785308532e+01 0.0000000000e+00 1.0842845869e+00
     vertex 3.5086855113e+01 -6.1908490726e+00 1.7382144075e+00
     vertex 3.3554088257e+01 0.0000000000e+00 1.0589880830e+00
   endloop
 endfacet
 facet normal  9.9936004041e-02 -8.4032558164e-02 -9.9143901692e-01
   outer loop
     vertex 3.3554088257e+01 0.0000000000e+00 1.0589880830e+00
     vertex 3.5086855113e+01 -6.1908490726e+00 1.7382144075e+00
     vertex 3.4976102534e+01 -6.1908490726e+00 1.7270506647e+00
   endloop
 endfacet
 facet normal  9.9936004041e-02 -8.4032558164e-02 -9.9143901692e-01
   outer loop
     vertex 3.3554088257e+01 0.0000000000e+00 1.0589880830e+00
     vertex 3.4976102534e+01 -6.1908490726e+00 1.7270506647e+00
     vertex 3.3178655767e+01 0.0000000000e+00 1.0211448851e+00
   endloop
 endfacet
 facet normal  8.7064816914e-02 -8.7869999783e-02 -9.9231979764e-01
   outer loop
     vertex 3.3178655767e+01 0.0000000000e+00 1.0211448851e+00
     vertex 3.4976102534e+01 -6.1908490726e+00 1.7270506647e+00
     vertex 3.4816265246e+01 -6.1908490726e+00 1.7130267540e+00
   endloop
 endfacet
 facet normal  8.7064816914e-02 -8.7869999783e-02 -9.9231979764e-01
   outer loop
     vertex 3.3178655767e+01 0.0000000000e+00 1.0211448851e+00
     vertex 3.4816265246e+01 -6.1908490726e+00 1.7130267540e+00
     vertex 3.2636834427e+01 0.0000000000e+00 9.7360620264e-01
   endloop
 endfacet
 facet normal  6.6643185247e-02 -9.5167714694e-02 -9.9322796575e-01
   outer loop
     vertex 3.2636834427e+01 0.0000000000e+00 9.7360620264e-01
     vertex 3.4816265246e+01 -6.1908490726e+00 1.7130267540e+00
     vertex 3.4620842039e+01 -6.1908490726e+00 1.6999143313e+00
   endloop
 endfacet
 facet normal  6.6643185247e-02 -9.5167714694e-02 -9.9322796575e-01
   outer loop
     vertex 3.2636834427e+01 0.0000000000e+00 9.7360620264e-01
     vertex 3.4620842039e+01 -6.1908490726e+00 1.6999143313e+00
     vertex 3.1974382847e+01 0.0000000000e+00 9.2915730986e-01
   endloop
 endfacet
 facet normal  3.2429179086e-02 -1.0981771959e-01 -9.9342257716e-01
   outer loop
     vertex 3.1974382847e+01 0.0000000000e+00 9.2915730986e-01
     vertex 3.4620842039e+01 -6.1908490726e+00 1.6999143313e+00
     vertex 3.1310829697e+01 0.0000000000e+00 9.0749635265e-01
   endloop
 endfacet
 facet normal  3.2429179086e-02 -1.0981771959e-01 -9.9342257716e-01
   outer loop
     vertex 3.4620842039e+01 -6.1908490726e+00 1.6999143313e+00
     vertex 3.4425093870e+01 -6.1908490726e+00 1.6935243492e+00
     vertex 3.1310829697e+01 0.0000000000e+00 9.0749635265e-01
   endloop
 endfacet
 facet normal  -2.2161877945e-02 -1.3688781807e-01 -9.9033861705e-01
   outer loop
     vertex 3.1310829697e+01 0.0000000000e+00 9.0749635265e-01
     vertex 3.4425093870e+01 -6.1908490726e+00 1.6935243492e+00
     vertex 3.0767160442e+01 0.0000000000e+00 9.1966262737e-01
   endloop
 endfacet
 facet normal  -2.2161877945e-02 -1.3688781807e-01 -9.9033861705e-01
   outer loop
     vertex 3.4425093870e+01 -6.1908490726e+00 1.6935243492e+00
     vertex 3.4264711447e+01 -6.1908490726e+00 1.6971134001e+00
     vertex 3.0767160442e+01 0.0000000000e+00 9.1966262737e-01
   endloop
 endfacet
 facet normal  -1.0333186188e-01 -1.8119612982e-01 -9.7800331741e-01
   outer loop
     vertex 3.0767160442e+01 0.0000000000e+00 9.1966262737e-01
     vertex 3.4264711447e+01 -6.1908490726e+00 1.6971134001e+00
     vertex 3.0392075540e+01 0.0000000000e+00 9.5929257604e-01
   endloop
 endfacet
 facet normal  -1.0333186188e-01 -1.8119612982e-01 -9.7800331741e-01
   outer loop
     vertex 3.4264711447e+01 -6.1908490726e+00 1.6971134001e+00
     vertex 3.4154061406e+01 -6.1908490726e+00 1.7088042344e+00
     vertex 3.0392075540e+01 0.0000000000e+00 9.5929257604e-01
   endloop
 endfacet
 facet normal  -2.3609167513e-01 -2.5692414869e-01 -9.3715030958e-01
   outer loop
     vertex 3.0392075540e+01 0.0000000000e+00 9.5929257604e-01
     vertex 3.4154061406e+01 -6.1908490726e+00 1.7088042344e+00
     vertex 3.0166914038e+01 0.0000000000e+00 1.0160164074e+00
   endloop
 endfacet
 facet normal  -2.3609167513e-01 -2.5692414869e-01 -9.3715030958e-01
   outer loop
     vertex 3.4154061406e+01 -6.1908490726e+00 1.7088042344e+00
     vertex 3.4087638766e+01 -6.1908490726e+00 1.7255377638e+00
     vertex 3.0166914038e+01 0.0000000000e+00 1.0160164074e+00
   endloop
 endfacet
 facet normal  -5.8960539171e-01 -4.5025327555e-01 -6.7055012484e-01
   outer loop
     vertex 3.0166914038e+01 0.0000000000e+00 1.0160164074e+00
     vertex 3.4087638766e+01 -6.1908490726e+00 1.7255377638e+00
     vertex 3.0072000000e+01 0.0000000000e+00 1.0994730000e+00
   endloop
 endfacet
 facet normal  -5.8960539171e-01 -4.5025327555e-01 -6.7055012484e-01
   outer loop
     vertex 3.4087638766e+01 -6.1908490726e+00 1.7255377638e+00
     vertex 3.4059639127e+01 -6.1908490726e+00 1.7501574574e+00
     vertex 3.0072000000e+01 0.0000000000e+00 1.0994730000e+00
   endloop
 endfacet
 facet normal  -6.2395171744e-01 -3.2731551590e-01 7.0961173000e-01
   outer loop
     vertex 3.0072000000e+01 0.0000000000e+00 1.0994730000e+00
     vertex 3.4059639127e+01 -6.1908490726e+00 1.7501574574e+00
     vertex 3.4087638766e+01 -6.1908490726e+00 1.7747771510e+00
   endloop
 endfacet
 facet normal  -6.2395171744e-01 -3.2731551590e-01 7.0961173000e-01
   outer loop
     vertex 3.0072000000e+01 0.0000000000e+00 1.0994730000e+00
     vertex 3.4087638766e+01 -6.1908490726e+00 1.7747771510e+00
     vertex 3.0166914038e+01 0.0000000000e+00 1.1829295926e+00
   endloop
 endfacet
 facet normal  -2.4382386773e-01 -6.1889880052e-02 9.6784273737e-01
   outer loop
     vertex 3.0166914038e+01 0.0000000000e+00 1.1829295926e+00
     vertex 3.4087638766e+01 -6.1908490726e+00 1.7747771510e+00
     vertex 3.4154061406e+01 -6.1908490726e+00 1.7915106805e+00
   endloop
 endfacet
 facet normal  -2.4382386773e-01 -6.1889880052e-02 9.6784273737e-01
   outer loop
     vertex 3.0166914038e+01 0.0000000000e+00 1.1829295926e+00
     vertex 3.4154061406e+01 -6.1908490726e+00 1.7915106805e+00
     vertex 3.0392075540e+01 0.0000000000e+00 1.2396534240e+00
   endloop
 endfacet
 facet normal  -1.0503881217e-01 2.4791327199e-02 9.9415906073e-01
   outer loop
     vertex 3.0392075540e+01 0.0000000000e+00 1.2396534240e+00
     vertex 3.4154061406e+01 -6.1908490726e+00 1.7915106805e+00
     vertex 3.4264711447e+01 -6.1908490726e+00 1.8032015148e+00
   endloop
 endfacet
 facet normal  -1.0503881217e-01 2.4791327199e-02 9.9415906073e-01
   outer loop
     vertex 3.0392075540e+01 0.0000000000e+00 1.2396534240e+00
     vertex 3.4264711447e+01 -6.1908490726e+00 1.8032015148e+00
     vertex 3.0767160442e+01 0.0000000000e+00 1.2792833726e+00
   endloop
 endfacet
 facet normal  -2.2314767457e-02 7.1781558906e-02 9.9717072708e-01
   outer loop
     vertex 3.0767160442e+01 0.0000000000e+00 1.2792833726e+00
     vertex 3.4264711447e+01 -6.1908490726e+00 1.8032015148e+00
     vertex 3.4425093870e+01 -6.1908490726e+00 1.8067905656e+00
   endloop
 endfacet
 facet normal  -2.2314767457e-02 7.1781558906e-02 9.9717072708e-01
   outer loop
     vertex 3.0767160442e+01 0.0000000000e+00 1.2792833726e+00
     vertex 3.4425093870e+01 -6.1908490726e+00 1.8067905656e+00
     vertex 3.1310829697e+01 0.0000000000e+00 1.2914496473e+00
   endloop
 endfacet
 facet normal  3.2465842744e-02 9.9120057169e-02 9.9454571706e-01
   outer loop
     vertex 3.1310829697e+01 0.0000000000e+00 1.2914496473e+00
     vertex 3.4425093870e+01 -6.1908490726e+00 1.8067905656e+00
     vertex 3.4620842039e+01 -6.1908490726e+00 1.8004005836e+00
   endloop
 endfacet
 facet normal  3.2465842744e-02 9.9120057169e-02 9.9454571706e-01
   outer loop
     vertex 3.1310829697e+01 0.0000000000e+00 1.2914496473e+00
     vertex 3.4620842039e+01 -6.1908490726e+00 1.8004005836e+00
     vertex 3.1974382847e+01 0.0000000000e+00 1.2697886901e+00
   endloop
 endfacet
 facet normal  6.6515200830e-02 1.1339902152e-01 9.9132052837e-01
   outer loop
     vertex 3.1974382847e+01 0.0000000000e+00 1.2697886901e+00
     vertex 3.4620842039e+01 -6.1908490726e+00 1.8004005836e+00
     vertex 3.2636834427e+01 0.0000000000e+00 1.2253397974e+00
   endloop
 endfacet
 facet normal  6.6515200830e-02 1.1339902152e-01 9.9132052837e-01
   outer loop
     vertex 3.4620842039e+01 -6.1908490726e+00 1.8004005836e+00
     vertex 3.4816265246e+01 -6.1908490726e+00 1.7872881608e+00
     vertex 3.2636834427e+01 0.0000000000e+00 1.2253397974e+00
   endloop
 endfacet
 facet normal  8.6768007314e-02 1.2031247113e-01 9.8893691518e-01
   outer loop
     vertex 3.2636834427e+01 0.0000000000e+00 1.2253397974e+00
     vertex 3.4816265246e+01 -6.1908490726e+00 1.7872881608e+00
     vertex 3.3178655767e+01 0.0000000000e+00 1.1778011149e+00
   endloop
 endfacet
 facet normal  8.6768007314e-02 1.2031247113e-01 9.8893691518e-01
   outer loop
     vertex 3.4816265246e+01 -6.1908490726e+00 1.7872881608e+00
     vertex 3.4976102534e+01 -6.1908490726e+00 1.7732642502e+00
     vertex 3.3178655767e+01 0.0000000000e+00 1.1778011149e+00
   endloop
 endfacet
 facet normal  9.9518504075e-02 1.2385671758e-01 9.8729710870e-01
   outer loop
     vertex 3.3178655767e+01 0.0000000000e+00 1.1778011149e+00
     vertex 3.4976102534e+01 -6.1908490726e+00 1.7732642502e+00
     vertex 3.3554088257e+01 0.0000000000e+00 1.1399579170e+00
   endloop
 endfacet
 facet normal  9.9518504075e-02 1.2385671758e-01 9.8729710870e-01
   outer loop
     vertex 3.4976102534e+01 -6.1908490726e+00 1.7732642502e+00
     vertex 3.5086855113e+01 -6.1908490726e+00 1.7621005074e+00
     vertex 3.3554088257e+01 0.0000000000e+00 1.1399579170e+00
   endloop
 endfacet
 facet normal  1.0789120347e-01 1.2581633424e-01 9.8616922394e-01
   outer loop
     vertex 3.3554088257e+01 0.0000000000e+00 1.1399579170e+00
     vertex 3.5086855113e+01 -6.1908490726e+00 1.7621005074e+00
     vertex 3.3785308532e+01 0.0000000000e+00 1.1146614131e+00
   endloop
 endfacet
 facet normal  1.0789120347e-01 1.2581633424e-01 9.8616922394e-01
   outer loop
     vertex 3.5086855113e+01 -6.1908490726e+00 1.7621005074e+00
     vertex 3.5155065090e+01 -6.1908490726e+00 1.7546380391e+00
     vertex 3.3785308532e+01 0.0000000000e+00 1.1146614131e+00
   endloop
 endfacet
 facet normal  1.1319857040e-01 1.2691453978e-01 9.8543329721e-01
   outer loop
     vertex 3.3785308532e+01 0.0000000000e+00 1.1146614131e+00
     vertex 3.5155065090e+01 -6.1908490726e+00 1.7546380391e+00
     vertex 3.3917529000e+01 0.0000000000e+00 1.0994730000e+00
   endloop
 endfacet
 facet normal  1.1319857040e-01 1.2691453978e-01 9.8543329721e-01
   outer loop
     vertex 3.5155065090e+01 -6.1908490726e+00 1.7546380391e+00
     vertex 3.5194070127e+01 -6.1908490726e+00 1.7501574574e+00
     vertex 3.3917529000e+01 0.0000000000e+00 1.0994730000e+00
   endloop
 endfacet
 facet normal  1.0185253071e-01 -4.5106151668e-01 -8.8666203830e-01
   outer loop
     vertex 3.5194070127e+01 -6.1908490726e+00 1.7501574574e+00
     vertex 3.5155782107e+01 -6.1939085913e+00 1.7473156750e+00
     vertex 3.5155065090e+01 -6.1908490726e+00 1.7456768758e+00
   endloop
 endfacet
 facet normal  9.6849030671e-02 -4.5221869520e-01 -8.8663324829e-01
   outer loop
     vertex 3.5155065090e+01 -6.1908490726e+00 1.7456768758e+00
     vertex 3.5155782107e+01 -6.1939085913e+00 1.7473156750e+00
     vertex 3.5088898051e+01 -6.1989581773e+00 1.7425852650e+00
   endloop
 endfacet
 facet normal  9.6945488887e-02 -4.5320106372e-01 -8.8612096693e-01
   outer loop
     vertex 3.5155065090e+01 -6.1908490726e+00 1.7456768758e+00
     vertex 3.5088898051e+01 -6.1989581773e+00 1.7425852650e+00
     vertex 3.5086855113e+01 -6.1908490726e+00 1.7382144075e+00
   endloop
 endfacet
 facet normal  8.8809026912e-02 -4.5516733540e-01 -8.8596594377e-01
   outer loop
     vertex 3.5086855113e+01 -6.1908490726e+00 1.7382144075e+00
     vertex 3.5088898051e+01 -6.1989581773e+00 1.7425852650e+00
     vertex 3.4980635289e+01 -6.2063203973e+00 1.7355153900e+00
   endloop
 endfacet
 facet normal  8.9162059488e-02 -4.5783751413e-01 -8.8455352456e-01
   outer loop
     vertex 3.5086855113e+01 -6.1908490726e+00 1.7382144075e+00
     vertex 3.4980635289e+01 -6.2063203973e+00 1.7355153900e+00
     vertex 3.4976102534e+01 -6.1908490726e+00 1.7270506647e+00
   endloop
 endfacet
 facet normal  7.6604655597e-02 -4.6120351166e-01 -8.8398136155e-01
   outer loop
     vertex 3.4976102534e+01 -6.1908490726e+00 1.7270506647e+00
     vertex 3.4980635289e+01 -6.2063203973e+00 1.7355153900e+00
     vertex 3.4824857286e+01 -6.2151710188e+00 1.7266335483e+00
   endloop
 endfacet
 facet normal  7.7340839234e-02 -4.6582415663e-01 -8.8149092433e-01
   outer loop
     vertex 3.4976102534e+01 -6.1908490726e+00 1.7270506647e+00
     vertex 3.4824857286e+01 -6.2151710188e+00 1.7266335483e+00
     vertex 3.4816265246e+01 -6.1908490726e+00 1.7130267540e+00
   endloop
 endfacet
 facet normal  5.7496172215e-02 -4.7188057266e-01 -8.7978572126e-01
   outer loop
     vertex 3.4816265246e+01 -6.1908490726e+00 1.7130267540e+00
     vertex 3.4824857286e+01 -6.2151710188e+00 1.7266335483e+00
     vertex 3.4634512277e+01 -6.2228277928e+00 1.7183008073e+00
   endloop
 endfacet
 facet normal  5.8782471445e-02 -4.7857926077e-01 -8.7607449011e-01
   outer loop
     vertex 3.4816265246e+01 -6.1908490726e+00 1.7130267540e+00
     vertex 3.4634512277e+01 -6.2228277928e+00 1.7183008073e+00
     vertex 3.4620842039e+01 -6.1908490726e+00 1.6999143313e+00
   endloop
 endfacet
 facet normal  2.8458253564e-02 -4.8907239791e-01 -8.7177882367e-01
   outer loop
     vertex 3.4620842039e+01 -6.1908490726e+00 1.6999143313e+00
     vertex 3.4634512277e+01 -6.2228277928e+00 1.7183008073e+00
     vertex 3.4425093870e+01 -6.1908490726e+00 1.6935243492e+00
   endloop
 endfacet
 facet normal  2.6443402876e-02 -4.9826927698e-01 -8.6661899014e-01
   outer loop
     vertex 3.4634512277e+01 -6.2228277928e+00 1.7183008073e+00
     vertex 3.4442686816e+01 -6.2258221989e+00 1.7141692369e+00
     vertex 3.4425093870e+01 -6.1908490726e+00 1.6935243492e+00
   endloop
 endfacet
 facet normal  -1.9172275193e-02 -5.1538629026e-01 -8.5674348301e-01
   outer loop
     vertex 3.4425093870e+01 -6.1908490726e+00 1.6935243492e+00
     vertex 3.4442686816e+01 -6.2258221989e+00 1.7141692369e+00
     vertex 3.4264711447e+01 -6.1908490726e+00 1.6971134001e+00
   endloop
 endfacet
 facet normal  -2.1343002147e-02 -5.2388599799e-01 -8.5152095533e-01
   outer loop
     vertex 3.4442686816e+01 -6.2258221989e+00 1.7141692369e+00
     vertex 3.4282779793e+01 -6.2228331643e+00 1.7163382764e+00
     vertex 3.4264711447e+01 -6.1908490726e+00 1.6971134001e+00
   endloop
 endfacet
 facet normal  -8.7810004990e-02 -5.4915607549e-01 -8.3109386219e-01
   outer loop
     vertex 3.4264711447e+01 -6.1908490726e+00 1.6971134001e+00
     vertex 3.4282779793e+01 -6.2228331643e+00 1.7163382764e+00
     vertex 3.4154061406e+01 -6.1908490726e+00 1.7088042344e+00
   endloop
 endfacet
 facet normal  -8.9622164903e-02 -5.5542020235e-01 -8.2672623424e-01
   outer loop
     vertex 3.4282779793e+01 -6.2228331643e+00 1.7163382764e+00
     vertex 3.4168994243e+01 -6.2154230573e+00 1.7236949852e+00
     vertex 3.4154061406e+01 -6.1908490726e+00 1.7088042344e+00
   endloop
 endfacet
 facet normal  -1.9674370199e-01 -5.9278295369e-01 -7.8096112934e-01
   outer loop
     vertex 3.4154061406e+01 -6.1908490726e+00 1.7088042344e+00
     vertex 3.4168994243e+01 -6.2154230573e+00 1.7236949852e+00
     vertex 3.4087638766e+01 -6.1908490726e+00 1.7255377638e+00
   endloop
 endfacet
 facet normal  -1.9779014599e-01 -5.9647863904e-01 -7.7787678415e-01
   outer loop
     vertex 3.4168994243e+01 -6.2154230573e+00 1.7236949852e+00
     vertex 3.4096847252e+01 -6.2053894940e+00 1.7343459751e+00
     vertex 3.4087638766e+01 -6.1908490726e+00 1.7255377638e+00
   endloop
 endfacet
 facet normal  -4.9741138425e-01 -6.5769779723e-01 -5.6569914471e-01
   outer loop
     vertex 3.4087638766e+01 -6.1908490726e+00 1.7255377638e+00
     vertex 3.4096847252e+01 -6.2053894940e+00 1.7343459751e+00
     vertex 3.4059639127e+01 -6.1908490726e+00 1.7501574574e+00
   endloop
 endfacet
 facet normal  -5.3712176269e-01 -5.8167756528e-01 6.1086121344e-01
   outer loop
     vertex 3.4059639127e+01 -6.1908490726e+00 1.7501574574e+00
     vertex 3.4096851076e+01 -6.2053955317e+00 1.7690258984e+00
     vertex 3.4087638766e+01 -6.1908490726e+00 1.7747771510e+00
   endloop
 endfacet
 facet normal  -2.1693838484e-01 -4.7464813576e-01 8.5302220628e-01
   outer loop
     vertex 3.4087638766e+01 -6.1908490726e+00 1.7747771510e+00
     vertex 3.4096851076e+01 -6.2053955317e+00 1.7690258984e+00
     vertex 3.4169004908e+01 -6.2154406070e+00 1.7817864800e+00
   endloop
 endfacet
 facet normal  -2.1568045479e-01 -4.6960039511e-01 8.5612931870e-01
   outer loop
     vertex 3.4087638766e+01 -6.1908490726e+00 1.7747771510e+00
     vertex 3.4169004908e+01 -6.2154406070e+00 1.7817864800e+00
     vertex 3.4154061406e+01 -6.1908490726e+00 1.7915106805e+00
   endloop
 endfacet
 facet normal  -9.7988087722e-02 -4.1687932238e-01 9.0366474161e-01
   outer loop
     vertex 3.4154061406e+01 -6.1908490726e+00 1.7915106805e+00
     vertex 3.4169004908e+01 -6.2154406070e+00 1.7817864800e+00
     vertex 3.4282796984e+01 -6.2228635972e+00 1.7907010436e+00
   endloop
 endfacet
 facet normal  -9.5900483412e-02 -4.0858596097e-01 9.0766767585e-01
   outer loop
     vertex 3.4154061406e+01 -6.1908490726e+00 1.7915106805e+00
     vertex 3.4282796984e+01 -6.2228635972e+00 1.7907010436e+00
     vertex 3.4264711447e+01 -6.1908490726e+00 1.8032015148e+00
   endloop
 endfacet
 facet normal  -2.3237910810e-02 -3.7498459395e-01 9.2673974437e-01
   outer loop
     vertex 3.4264711447e+01 -6.1908490726e+00 1.8032015148e+00
     vertex 3.4282796984e+01 -6.2228635972e+00 1.7907010436e+00
     vertex 3.4442705625e+01 -6.2258595910e+00 1.7934984754e+00
   endloop
 endfacet
 facet normal  -2.0837639371e-02 -3.6400743271e-01 9.3116291900e-01
   outer loop
     vertex 3.4264711447e+01 -6.1908490726e+00 1.8032015148e+00
     vertex 3.4442705625e+01 -6.2258595910e+00 1.7934984754e+00
     vertex 3.4425093870e+01 -6.1908490726e+00 1.8067905656e+00
   endloop
 endfacet
 facet normal  2.8661424490e-02 -3.4216034332e-01 9.3920435594e-01
   outer loop
     vertex 3.4425093870e+01 -6.1908490726e+00 1.8067905656e+00
     vertex 3.4442705625e+01 -6.2258595910e+00 1.7934984754e+00
     vertex 3.4634526003e+01 -6.2228599029e+00 1.7887375617e+00
   endloop
 endfacet
 facet normal  3.0792837825e-02 -3.3052277868e-01 9.4329554961e-01
   outer loop
     vertex 3.4425093870e+01 -6.1908490726e+00 1.8067905656e+00
     vertex 3.4634526003e+01 -6.2228599029e+00 1.7887375617e+00
     vertex 3.4620842039e+01 -6.1908490726e+00 1.8004005836e+00
   endloop
 endfacet
 facet normal  6.3481444084e-02 -3.1757321011e-01 9.4610642238e-01
   outer loop
     vertex 3.4620842039e+01 -6.1908490726e+00 1.8004005836e+00
     vertex 3.4634526003e+01 -6.2228599029e+00 1.7887375617e+00
     vertex 3.4816265246e+01 -6.1908490726e+00 1.7872881608e+00
   endloop
 endfacet
 facet normal  6.2029774631e-02 -3.0920173995e-01 9.4897133311e-01
   outer loop
     vertex 3.4634526003e+01 -6.2228599029e+00 1.7887375617e+00
     vertex 3.4824864042e+01 -6.2151900843e+00 1.7787951071e+00
     vertex 3.4816265246e+01 -6.1908490726e+00 1.7872881608e+00
   endloop
 endfacet
 facet normal  8.3323881309e-02 -3.0192746089e-01 9.4968254652e-01
   outer loop
     vertex 3.4816265246e+01 -6.1908490726e+00 1.7872881608e+00
     vertex 3.4824864042e+01 -6.2151900843e+00 1.7787951071e+00
     vertex 3.4976102534e+01 -6.1908490726e+00 1.7732642502e+00
   endloop
 endfacet
 facet normal  8.2474755673e-02 -2.9622725042e-01 9.5154996232e-01
   outer loop
     vertex 3.4824864042e+01 -6.2151900843e+00 1.7787951071e+00
     vertex 3.4980637643e+01 -6.2063283669e+00 1.7680523107e+00
     vertex 3.4976102534e+01 -6.1908490726e+00 1.7732642502e+00
   endloop
 endfacet
 facet normal  9.5911383673e-02 -2.9227775276e-01 9.5151180850e-01
   outer loop
     vertex 3.4976102534e+01 -6.1908490726e+00 1.7732642502e+00
     vertex 3.4980637643e+01 -6.2063283669e+00 1.7680523107e+00
     vertex 3.5086855113e+01 -6.1908490726e+00 1.7621005074e+00
   endloop
 endfacet
 facet normal  9.5494982194e-02 -2.8902219191e-01 9.5254757412e-01
   outer loop
     vertex 3.4980637643e+01 -6.2063283669e+00 1.7680523107e+00
     vertex 3.5088898651e+01 -6.1989605334e+00 1.7594344570e+00
     vertex 3.5086855113e+01 -6.1908490726e+00 1.7621005074e+00
   endloop
 endfacet
 facet normal  1.0418804007e-01 -2.8675760008e-01 9.5232081312e-01
   outer loop
     vertex 3.5086855113e+01 -6.1908490726e+00 1.7621005074e+00
     vertex 3.5088898651e+01 -6.1989605334e+00 1.7594344570e+00
     vertex 3.5155065090e+01 -6.1908490726e+00 1.7546380391e+00
   endloop
 endfacet
 facet normal  1.0406944167e-01 -2.8557186082e-01 9.5269001444e-01
   outer loop
     vertex 3.5088898651e+01 -6.1989605334e+00 1.7594344570e+00
     vertex 3.5155782242e+01 -6.1939091578e+00 1.7536424290e+00
     vertex 3.5155065090e+01 -6.1908490726e+00 1.7546380391e+00
   endloop
 endfacet
 facet normal  1.0941381260e-01 -2.8425288168e-01 9.5248565179e-01
   outer loop
     vertex 3.5155065090e+01 -6.1908490726e+00 1.7546380391e+00
     vertex 3.5155782242e+01 -6.1939091578e+00 1.7536424290e+00
     vertex 3.5194070127e+01 -6.1908490726e+00 1.7501574574e+00
   endloop
 endfacet
 facet normal  1.0103485318e-01 -9.2561466382e-01 -3.6473202843e-01
   outer loop
     vertex 3.5194070127e+01 -6.1908490726e+00 1.7501574574e+00
     vertex 3.5156078927e+01 -6.1951751415e+00 1.7506121406e+00
     vertex 3.5155782107e+01 -6.1939085913e+00 1.7473156750e+00
   endloop
 endfacet
 facet normal  9.5561730181e-02 -9.2628788777e-01 -3.6449788022e-01
   outer loop
     vertex 3.5155782107e+01 -6.1939085913e+00 1.7473156750e+00
     vertex 3.5156078927e+01 -6.1951751415e+00 1.7506121406e+00
     vertex 3.5089743472e+01 -6.2023139718e+00 1.7513624365e+00
   endloop
 endfacet
 facet normal  9.5670363209e-02 -9.2666523938e-01 -3.6350889360e-01
   outer loop
     vertex 3.5155782107e+01 -6.1939085913e+00 1.7473156750e+00
     vertex 3.5089743472e+01 -6.2023139718e+00 1.7513624365e+00
     vertex 3.5088898051e+01 -6.1989581773e+00 1.7425852650e+00
   endloop
 endfacet
 facet normal  8.6314273994e-02 -9.2777085453e-01 -3.6303042240e-01
   outer loop
     vertex 3.5088898051e+01 -6.1989581773e+00 1.7425852650e+00
     vertex 3.5089743472e+01 -6.2023139718e+00 1.7513624365e+00
     vertex 3.4982509677e+01 -6.2127181968e+00 1.7524558146e+00
   endloop
 endfacet
 facet normal  8.6692294666e-02 -9.2877679550e-01 -3.6035830805e-01
   outer loop
     vertex 3.5088898051e+01 -6.1989581773e+00 1.7425852650e+00
     vertex 3.4982509677e+01 -6.2127181968e+00 1.7524558146e+00
     vertex 3.4980635289e+01 -6.2063203973e+00 1.7355153900e+00
   endloop
 endfacet
 facet normal  7.2412133077e-02 -9.3037665374e-01 -3.5938247755e-01
   outer loop
     vertex 3.4980635289e+01 -6.2063203973e+00 1.7355153900e+00
     vertex 3.4982509677e+01 -6.2127181968e+00 1.7524558146e+00
     vertex 3.4828407016e+01 -6.2252195161e+00 1.7537692710e+00
   endloop
 endfacet
 facet normal  7.3183283073e-02 -9.3209859787e-01 -3.5473428213e-01
   outer loop
     vertex 3.4980635289e+01 -6.2063203973e+00 1.7355153900e+00
     vertex 3.4828407016e+01 -6.2252195161e+00 1.7537692710e+00
     vertex 3.4824857286e+01 -6.2151710188e+00 1.7266335483e+00
   endloop
 endfacet
 facet normal  5.1519351027e-02 -9.3430987020e-01 -3.5271918423e-01
   outer loop
     vertex 3.4824857286e+01 -6.2151710188e+00 1.7266335483e+00
     vertex 3.4828407016e+01 -6.2252195161e+00 1.7537692710e+00
     vertex 3.4640155345e+01 -6.2360285941e+00 1.7549045206e+00
   endloop
 endfacet
 facet normal  5.2827505171e-02 -9.3675479448e-01 -3.4597645834e-01
   outer loop
     vertex 3.4824857286e+01 -6.2151710188e+00 1.7266335483e+00
     vertex 3.4640155345e+01 -6.2360285941e+00 1.7549045206e+00
     vertex 3.4634512277e+01 -6.2228277928e+00 1.7183008073e+00
   endloop
 endfacet
 facet normal  2.2033566532e-02 -9.3937785735e-01 -3.4217504740e-01
   outer loop
     vertex 3.4634512277e+01 -6.2228277928e+00 1.7183008073e+00
     vertex 3.4640155345e+01 -6.2360285941e+00 1.7549045206e+00
     vertex 3.4442686816e+01 -6.2258221989e+00 1.7141692369e+00
   endloop
 endfacet
 facet normal  2.0155169037e-02 -9.4241747317e-01 -3.3383090843e-01
   outer loop
     vertex 3.4640155345e+01 -6.2360285941e+00 1.7549045206e+00
     vertex 3.4449946448e+01 -6.2402536664e+00 1.7553481270e+00
     vertex 3.4442686816e+01 -6.2258221989e+00 1.7141692369e+00
   endloop
 endfacet
 facet normal  -2.2096725166e-02 -9.4470262276e-01 -3.2718295995e-01
   outer loop
     vertex 3.4442686816e+01 -6.2258221989e+00 1.7141692369e+00
     vertex 3.4449946448e+01 -6.2402536664e+00 1.7553481270e+00
     vertex 3.4282779793e+01 -6.2228331643e+00 1.7163382764e+00
   endloop
 endfacet
 facet normal  -2.4135369095e-02 -9.4725032116e-01 -3.1958459447e-01
   outer loop
     vertex 3.4449946448e+01 -6.2402536664e+00 1.7553481270e+00
     vertex 3.4290237700e+01 -6.2360349437e+00 1.7549051867e+00
     vertex 3.4282779793e+01 -6.2228331643e+00 1.7163382764e+00
   endloop
 endfacet
 facet normal  -8.1668652989e-02 -9.4767767565e-01 -3.0860533728e-01
   outer loop
     vertex 3.4282779793e+01 -6.2228331643e+00 1.7163382764e+00
     vertex 3.4290237700e+01 -6.2360349437e+00 1.7549051867e+00
     vertex 3.4168994243e+01 -6.2154230573e+00 1.7236949852e+00
   endloop
 endfacet
 facet normal  -8.3406204404e-02 -9.4934709223e-01 -3.0295792373e-01
   outer loop
     vertex 3.4290237700e+01 -6.2360349437e+00 1.7549051867e+00
     vertex 3.4175162823e+01 -6.2255742813e+00 1.7538065502e+00
     vertex 3.4168994243e+01 -6.2154230573e+00 1.7236949852e+00
   endloop
 endfacet
 facet normal  -1.7294118793e-01 -9.4350529024e-01 -2.8264662178e-01
   outer loop
     vertex 3.4168994243e+01 -6.2154230573e+00 1.7236949852e+00
     vertex 3.4175162823e+01 -6.2255742813e+00 1.7538065502e+00
     vertex 3.4096847252e+01 -6.2053894940e+00 1.7343459751e+00
   endloop
 endfacet
 facet normal  -1.7404434993e-01 -9.4435979012e-01 -2.7909344502e-01
   outer loop
     vertex 3.4175162823e+01 -6.2255742813e+00 1.7538065502e+00
     vertex 3.4100655370e+01 -6.2114026038e+00 1.7523175823e+00
     vertex 3.4096847252e+01 -6.2053894940e+00 1.7343459751e+00
   endloop
 endfacet
 facet normal  -4.3008674090e-01 -8.7962678141e-01 -2.0318002051e-01
   outer loop
     vertex 3.4096847252e+01 -6.2053894940e+00 1.7343459751e+00
     vertex 3.4100655370e+01 -6.2114026038e+00 1.7523175823e+00
     vertex 3.4059639127e+01 -6.1908490726e+00 1.7501574574e+00
   endloop
 endfacet
 facet normal  -4.4678609797e-01 -8.6943743369e-01 2.1085713542e-01
   outer loop
     vertex 3.4059639127e+01 -6.1908490726e+00 1.7501574574e+00
     vertex 3.4100655370e+01 -6.2114026038e+00 1.7523175823e+00
     vertex 3.4096851076e+01 -6.2053955317e+00 1.7690258984e+00
   endloop
 endfacet
 facet normal  -1.8422082359e-01 -9.3753172470e-01 2.9512192963e-01
   outer loop
     vertex 3.4096851076e+01 -6.2053955317e+00 1.7690258984e+00
     vertex 3.4100655370e+01 -6.2114026038e+00 1.7523175823e+00
     vertex 3.4175162823e+01 -6.2255742813e+00 1.7538065502e+00
   endloop
 endfacet
 facet normal  -1.8323745739e-01 -9.3653826889e-01 2.9886469364e-01
   outer loop
     vertex 3.4096851076e+01 -6.2053955317e+00 1.7690258984e+00
     vertex 3.4175162823e+01 -6.2255742813e+00 1.7538065502e+00
     vertex 3.4169004908e+01 -6.2154406070e+00 1.7817864800e+00
   endloop
 endfacet
 facet normal  -8.8759706413e-02 -9.4261772436e-01 3.2185950389e-01
   outer loop
     vertex 3.4169004908e+01 -6.2154406070e+00 1.7817864800e+00
     vertex 3.4175162823e+01 -6.2255742813e+00 1.7538065502e+00
     vertex 3.4290237700e+01 -6.2360349437e+00 1.7549051867e+00
   endloop
 endfacet
 facet normal  -8.7058882898e-02 -9.4064979520e-01 3.2802242865e-01
   outer loop
     vertex 3.4169004908e+01 -6.2154406070e+00 1.7817864800e+00
     vertex 3.4290237700e+01 -6.2360349437e+00 1.7549051867e+00
     vertex 3.4282796984e+01 -6.2228635972e+00 1.7907010436e+00
   endloop
 endfacet
 facet normal  -2.5771776977e-02 -9.3989675676e-01 3.4048480458e-01
   outer loop
     vertex 3.4282796984e+01 -6.2228635972e+00 1.7907010436e+00
     vertex 3.4290237700e+01 -6.2360349437e+00 1.7549051867e+00
     vertex 3.4449946448e+01 -6.2402536664e+00 1.7553481270e+00
   endloop
 endfacet
 facet normal  -2.3657146284e-02 -9.3683308139e-01 3.4897581155e-01
   outer loop
     vertex 3.4282796984e+01 -6.2228635972e+00 1.7907010436e+00
     vertex 3.4449946448e+01 -6.2402536664e+00 1.7553481270e+00
     vertex 3.4442705625e+01 -6.2258595910e+00 1.7934984754e+00
   endloop
 endfacet
 facet normal  2.1579157316e-02 -9.3404274991e-01 3.5650873945e-01
   outer loop
     vertex 3.4442705625e+01 -6.2258595910e+00 1.7934984754e+00
     vertex 3.4449946448e+01 -6.2402536664e+00 1.7553481270e+00
     vertex 3.4640155345e+01 -6.2360285941e+00 1.7549045206e+00
   endloop
 endfacet
 facet normal  2.3632817457e-02 -9.3030291208e-01 3.6603002843e-01
   outer loop
     vertex 3.4442705625e+01 -6.2258595910e+00 1.7934984754e+00
     vertex 3.4640155345e+01 -6.2360285941e+00 1.7549045206e+00
     vertex 3.4634526003e+01 -6.2228599029e+00 1.7887375617e+00
   endloop
 endfacet
 facet normal  5.6704873725e-02 -9.2717390952e-01 3.7031486441e-01
   outer loop
     vertex 3.4634526003e+01 -6.2228599029e+00 1.7887375617e+00
     vertex 3.4640155345e+01 -6.2360285941e+00 1.7549045206e+00
     vertex 3.4824864042e+01 -6.2151900843e+00 1.7787951071e+00
   endloop
 endfacet
 facet normal  5.5339594656e-02 -9.2407991365e-01 3.7817171026e-01
   outer loop
     vertex 3.4640155345e+01 -6.2360285941e+00 1.7549045206e+00
     vertex 3.4828407016e+01 -6.2252195161e+00 1.7537692710e+00
     vertex 3.4824864042e+01 -6.2151900843e+00 1.7787951071e+00
   endloop
 endfacet
 facet normal  7.8656086286e-02 -9.2146150882e-01 3.8042332717e-01
   outer loop
     vertex 3.4824864042e+01 -6.2151900843e+00 1.7787951071e+00
     vertex 3.4828407016e+01 -6.2252195161e+00 1.7537692710e+00
     vertex 3.4980637643e+01 -6.2063283669e+00 1.7680523107e+00
   endloop
 endfacet
 facet normal  7.7860385593e-02 -9.1922810764e-01 3.8595005696e-01
   outer loop
     vertex 3.4828407016e+01 -6.2252195161e+00 1.7537692710e+00
     vertex 3.4982509677e+01 -6.2127181968e+00 1.7524558146e+00
     vertex 3.4980637643e+01 -6.2063283669e+00 1.7680523107e+00
   endloop
 endfacet
 facet normal  9.3239004362e-02 -9.1734347797e-01 3.8702381258e-01
   outer loop
     vertex 3.4980637643e+01 -6.2063283669e+00 1.7680523107e+00
     vertex 3.4982509677e+01 -6.2127181968e+00 1.7524558146e+00
     vertex 3.5088898651e+01 -6.1989605334e+00 1.7594344570e+00
   endloop
 endfacet
 facet normal  9.2853808466e-02 -9.1600860389e-01 3.9026453573e-01
   outer loop
     vertex 3.4982509677e+01 -6.2127181968e+00 1.7524558146e+00
     vertex 3.5089743472e+01 -6.2023139718e+00 1.7513624365e+00
     vertex 3.5088898651e+01 -6.1989605334e+00 1.7594344570e+00
   endloop
 endfacet
 facet normal  1.0292450513e-01 -9.1471180928e-01 3.9077980014e-01
   outer loop
     vertex 3.5088898651e+01 -6.1989605334e+00 1.7594344570e+00
     vertex 3.5089743472e+01 -6.2023139718e+00 1.7513624365e+00
     vertex 3.5155782242e+01 -6.1939091578e+00 1.7536424290e+00
   endloop
 endfacet
 facet normal  1.0281754995e-01 -9.1420211241e-01 3.9199878710e-01
   outer loop
     vertex 3.5089743472e+01 -6.2023139718e+00 1.7513624365e+00
     vertex 3.5156078927e+01 -6.1951751415e+00 1.7506121406e+00
     vertex 3.5155782242e+01 -6.1939091578e+00 1.7536424290e+00
   endloop
 endfacet
 facet normal  1.0870522423e-01 -9.1341452673e-01 3.9224619384e-01
   outer loop
     vertex 3.5155782242e+01 -6.1939091578e+00 1.7536424290e+00
     vertex 3.5156078927e+01 -6.1951751415e+00 1.7506121406e+00
     vertex 3.5194070127e+01 -6.1908490726e+00 1.7501574574e+00
   endloop
 endfacet
endsolid
