solid
 facet normal  0.0000000000e+00 0.0000000000e+00 -1.0000000000e+00
   outer loop
     vertex 3.3024358000e+01 0.0000000000e+00 1.9800000000e+00
     vertex 3.2830529241e+01 -1.3230096289e-15 1.9800000000e+00
     vertex 3.2830529241e+01 1.1132736467e-02 1.9800000000e+00
   endloop
 endfacet
 facet normal  0.0000000000e+00 0.0000000000e+00 -1.0000000000e+00
   outer loop
     vertex 3.2830529241e+01 -1.3230096289e-15 1.9800000000e+00
     vertex 3.2491571593e+01 2.9674457121e-02 1.9800000000e+00
     vertex 3.2830529241e+01 1.1132736467e-02 1.9800000000e+00
   endloop
 endfacet
 facet normal  0.0000000000e+00 0.0000000000e+00 -1.0000000000e+00
   outer loop
     vertex 3.2830529241e+01 -1.3230096289e-15 1.9800000000e+00
     vertex 3.2491571593e+01 -6.9676207325e-16 1.9800000000e+00
     vertex 3.2491571593e+01 2.9674457121e-02 1.9800000000e+00
   endloop
 endfacet
 facet normal  0.0000000000e+00 0.0000000000e+00 -1.0000000000e+00
   outer loop
     vertex 3.2491571593e+01 -6.9676207325e-16 1.9800000000e+00
     vertex 3.1941205869e+01 5.7412598495e-02 1.9800000000e+00
     vertex 3.2491571593e+01 2.9674457121e-02 1.9800000000e+00
   endloop
 endfacet
 facet normal  0.0000000000e+00 0.0000000000e+00 -1.0000000000e+00
   outer loop
     vertex 3.2491571593e+01 -6.9676207325e-16 1.9800000000e+00
     vertex 3.1941205869e+01 -7.0103521106e-17 1.9800000000e+00
     vertex 3.1941205869e+01 5.7412598495e-02 1.9800000000e+00
   endloop
 endfacet
 facet normal  0.0000000000e+00 0.0000000000e+00 -1.0000000000e+00
   outer loop
     vertex 3.1941205869e+01 -7.0103521106e-17 1.9800000000e+00
     vertex 3.1146922205e+01 9.2257293732e-02 1.9800000000e+00
     vertex 3.1941205869e+01 5.7412598495e-02 1.9800000000e+00
   endloop
 endfacet
 facet normal  0.0000000000e+00 0.0000000000e+00 -1.0000000000e+00
   outer loop
     vertex 3.1941205869e+01 -7.0103521106e-17 1.9800000000e+00
     vertex 3.1146922205e+01 -7.3371204324e-17 1.9800000000e+00
     vertex 3.1146922205e+01 9.2257293732e-02 1.9800000000e+00
   endloop
 endfacet
 facet normal  0.0000000000e+00 0.0000000000e+00 -1.0000000000e+00
   outer loop
     vertex 3.1146922205e+01 -7.3371204324e-17 1.9800000000e+00
     vertex 3.0175800491e+01 1.2483724844e-01 1.9800000000e+00
     vertex 3.1146922205e+01 9.2257293732e-02 1.9800000000e+00
   endloop
 endfacet
 facet normal  0.0000000000e+00 0.0000000000e+00 -1.0000000000e+00
   outer loop
     vertex 3.1146922205e+01 -7.3371204324e-17 1.9800000000e+00
     vertex 3.0175800491e+01 -4.1633363423e-17 1.9800000000e+00
     vertex 3.0175800491e+01 1.2483724844e-01 1.9800000000e+00
   endloop
 endfacet
 facet normal  0.0000000000e+00 0.0000000000e+00 -1.0000000000e+00
   outer loop
     vertex 3.0175800491e+01 -4.1633363423e-17 1.9800000000e+00
     vertex 2.9203063929e+01 -1.7279388559e-17 1.9800000000e+00
     vertex 3.0175800491e+01 1.2483724844e-01 1.9800000000e+00
   endloop
 endfacet
 facet normal  0.0000000000e+00 0.0000000000e+00 -1.0000000000e+00
   outer loop
     vertex 3.0175800491e+01 1.2483724844e-01 1.9800000000e+00
     vertex 2.9203063929e+01 -1.7279388559e-17 1.9800000000e+00
     vertex 2.9203063929e+01 1.4071420197e-01 1.9800000000e+00
   endloop
 endfacet
 facet normal  0.0000000000e+00 0.0000000000e+00 -1.0000000000e+00
   outer loop
     vertex 2.9203063929e+01 -1.7279388559e-17 1.9800000000e+00
     vertex 2.8406071310e+01 1.0019590404e-16 1.9800000000e+00
     vertex 2.9203063929e+01 1.4071420197e-01 1.9800000000e+00
   endloop
 endfacet
 facet normal  0.0000000000e+00 0.0000000000e+00 -1.0000000000e+00
   outer loop
     vertex 2.9203063929e+01 1.4071420197e-01 1.9800000000e+00
     vertex 2.8406071310e+01 1.0019590404e-16 1.9800000000e+00
     vertex 2.8406071310e+01 1.3179661922e-01 1.9800000000e+00
   endloop
 endfacet
 facet normal  0.0000000000e+00 0.0000000000e+00 -1.0000000000e+00
   outer loop
     vertex 2.8406071310e+01 1.0019590404e-16 1.9800000000e+00
     vertex 2.7856215134e+01 2.2169579536e-16 1.9800000000e+00
     vertex 2.8406071310e+01 1.3179661922e-01 1.9800000000e+00
   endloop
 endfacet
 facet normal  0.0000000000e+00 0.0000000000e+00 -1.0000000000e+00
   outer loop
     vertex 2.8406071310e+01 1.3179661922e-01 1.9800000000e+00
     vertex 2.7856215134e+01 2.2169579536e-16 1.9800000000e+00
     vertex 2.7856215134e+01 1.0274883305e-01 1.9800000000e+00
   endloop
 endfacet
 facet normal  0.0000000000e+00 0.0000000000e+00 -1.0000000000e+00
   outer loop
     vertex 2.7856215134e+01 2.2169579536e-16 1.9800000000e+00
     vertex 2.7526139352e+01 4.2768963666e-17 1.9800000000e+00
     vertex 2.7856215134e+01 1.0274883305e-01 1.9800000000e+00
   endloop
 endfacet
 facet normal  0.0000000000e+00 0.0000000000e+00 -1.0000000000e+00
   outer loop
     vertex 2.7856215134e+01 1.0274883305e-01 1.9800000000e+00
     vertex 2.7526139352e+01 4.2768963666e-17 1.9800000000e+00
     vertex 2.7526139352e+01 6.1171647655e-02 1.9800000000e+00
   endloop
 endfacet
 facet normal  0.0000000000e+00 0.0000000000e+00 -1.0000000000e+00
   outer loop
     vertex 2.7526139352e+01 4.2768963666e-17 1.9800000000e+00
     vertex 2.7387000000e+01 0.0000000000e+00 1.9800000000e+00
     vertex 2.7526139352e+01 6.1171647655e-02 1.9800000000e+00
   endloop
 endfacet
 facet normal  0.0000000000e+00 -0.0000000000e+00 -1.0000000000e+00
   outer loop
     vertex 2.7387000000e+01 0.0000000000e+00 1.9800000000e+00
     vertex 2.7526139352e+01 4.2768963666e-17 1.9800000000e+00
     vertex 2.7526139352e+01 -6.1171647655e-02 1.9800000000e+00
   endloop
 endfacet
 facet normal  0.0000000000e+00 0.0000000000e+00 -1.0000000000e+00
   outer loop
     vertex 2.7526139352e+01 4.2768963666e-17 1.9800000000e+00
     vertex 2.7856215134e+01 -1.0274883305e-01 1.9800000000e+00
     vertex 2.7526139352e+01 -6.1171647655e-02 1.9800000000e+00
   endloop
 endfacet
 facet normal  0.0000000000e+00 0.0000000000e+00 -1.0000000000e+00
   outer loop
     vertex 2.7526139352e+01 4.2768963666e-17 1.9800000000e+00
     vertex 2.7856215134e+01 2.2169579536e-16 1.9800000000e+00
     vertex 2.7856215134e+01 -1.0274883305e-01 1.9800000000e+00
   endloop
 endfacet
 facet normal  -8.0764612456e-16 2.7925722844e-29 -1.0000000000e+00
   outer loop
     vertex 2.7856215134e+01 2.2169579536e-16 1.9800000000e+00
     vertex 2.8406071310e+01 -1.3179661922e-01 1.9800000000e+00
     vertex 2.7856215134e+01 -1.0274883305e-01 1.9800000000e+00
   endloop
 endfacet
 facet normal  -8.0764612456e-16 -0.0000000000e+00 -1.0000000000e+00
   outer loop
     vertex 2.7856215134e+01 2.2169579536e-16 1.9800000000e+00
     vertex 2.8406071310e+01 1.0019590404e-16 1.9800000000e+00
     vertex 2.8406071310e+01 -1.3179661922e-01 1.9800000000e+00
   endloop
 endfacet
 facet normal  8.3580926528e-16 0.0000000000e+00 -1.0000000000e+00
   outer loop
     vertex 2.8406071310e+01 1.0019590404e-16 1.9800000000e+00
     vertex 2.9203063929e+01 -1.4071420197e-01 1.9800000000e+00
     vertex 2.8406071310e+01 -1.3179661922e-01 1.9800000000e+00
   endloop
 endfacet
 facet normal  8.3580926528e-16 0.0000000000e+00 -1.0000000000e+00
   outer loop
     vertex 2.8406071310e+01 1.0019590404e-16 1.9800000000e+00
     vertex 2.9203063929e+01 -1.7279388559e-17 1.9800000000e+00
     vertex 2.9203063929e+01 -1.4071420197e-01 1.9800000000e+00
   endloop
 endfacet
 facet normal  -2.2826797469e-16 0.0000000000e+00 -1.0000000000e+00
   outer loop
     vertex 2.9203063929e+01 -1.7279388559e-17 1.9800000000e+00
     vertex 3.0175800491e+01 -1.2483724844e-01 1.9800000000e+00
     vertex 2.9203063929e+01 -1.4071420197e-01 1.9800000000e+00
   endloop
 endfacet
 facet normal  -2.2826797469e-16 -0.0000000000e+00 -1.0000000000e+00
   outer loop
     vertex 2.9203063929e+01 -1.7279388559e-17 1.9800000000e+00
     vertex 3.0175800491e+01 -4.1633363423e-17 1.9800000000e+00
     vertex 3.0175800491e+01 -1.2483724844e-01 1.9800000000e+00
   endloop
 endfacet
 facet normal  -0.0000000000e+00 0.0000000000e+00 -1.0000000000e+00
   outer loop
     vertex 3.0175800491e+01 -4.1633363423e-17 1.9800000000e+00
     vertex 3.1146922205e+01 -7.3371204324e-17 1.9800000000e+00
     vertex 3.0175800491e+01 -1.2483724844e-01 1.9800000000e+00
   endloop
 endfacet
 facet normal  0.0000000000e+00 0.0000000000e+00 -1.0000000000e+00
   outer loop
     vertex 3.0175800491e+01 -1.2483724844e-01 1.9800000000e+00
     vertex 3.1146922205e+01 -7.3371204324e-17 1.9800000000e+00
     vertex 3.1146922205e+01 -9.2257293732e-02 1.9800000000e+00
   endloop
 endfacet
 facet normal  0.0000000000e+00 0.0000000000e+00 -1.0000000000e+00
   outer loop
     vertex 3.1146922205e+01 -7.3371204324e-17 1.9800000000e+00
     vertex 3.1941205869e+01 -7.0103521106e-17 1.9800000000e+00
     vertex 3.1146922205e+01 -9.2257293732e-02 1.9800000000e+00
   endloop
 endfacet
 facet normal  0.0000000000e+00 -0.0000000000e+00 -1.0000000000e+00
   outer loop
     vertex 3.1146922205e+01 -9.2257293732e-02 1.9800000000e+00
     vertex 3.1941205869e+01 -7.0103521106e-17 1.9800000000e+00
     vertex 3.1941205869e+01 -5.7412598495e-02 1.9800000000e+00
   endloop
 endfacet
 facet normal  -0.0000000000e+00 0.0000000000e+00 -1.0000000000e+00
   outer loop
     vertex 3.1941205869e+01 -7.0103521106e-17 1.9800000000e+00
     vertex 3.2491571593e+01 -6.9676207325e-16 1.9800000000e+00
     vertex 3.1941205869e+01 -5.7412598495e-02 1.9800000000e+00
   endloop
 endfacet
 facet normal  0.0000000000e+00 0.0000000000e+00 -1.0000000000e+00
   outer loop
     vertex 3.1941205869e+01 -5.7412598495e-02 1.9800000000e+00
     vertex 3.2491571593e+01 -6.9676207325e-16 1.9800000000e+00
     vertex 3.2491571593e+01 -2.9674457121e-02 1.9800000000e+00
   endloop
 endfacet
 facet normal  -0.0000000000e+00 0.0000000000e+00 -1.0000000000e+00
   outer loop
     vertex 3.2491571593e+01 -6.9676207325e-16 1.9800000000e+00
     vertex 3.2830529241e+01 -1.3230096289e-15 1.9800000000e+00
     vertex 3.2491571593e+01 -2.9674457121e-02 1.9800000000e+00
   endloop
 endfacet
 facet normal  0.0000000000e+00 -0.0000000000e+00 -1.0000000000e+00
   outer loop
     vertex 3.2491571593e+01 -2.9674457121e-02 1.9800000000e+00
     vertex 3.2830529241e+01 -1.3230096289e-15 1.9800000000e+00
     vertex 3.2830529241e+01 -1.1132736467e-02 1.9800000000e+00
   endloop
 endfacet
 facet normal  0.0000000000e+00 0.0000000000e+00 -1.0000000000e+00
   outer loop
     vertex 3.2830529241e+01 -1.3230096289e-15 1.9800000000e+00
     vertex 3.3024358000e+01 0.0000000000e+00 1.9800000000e+00
     vertex 3.2830529241e+01 -1.1132736467e-02 1.9800000000e+00
   endloop
 endfacet
 facet normal  0.0000000000e+00 0.0000000000e+00 -1.0000000000e+00
   outer loop
     vertex 3.3024358000e+01 0.0000000000e+00 1.9800000000e+00
     vertex 3.2830529241e+01 1.1132736467e-02 1.9800000000e+00
     vertex 3.2830529241e+01 2.2265472934e-02 1.9800000000e+00
   endloop
 endfacet
 facet normal  0.0000000000e+00 0.0000000000e+00 -1.0000000000e+00
   outer loop
     vertex 3.2830529241e+01 1.1132736467e-02 1.9800000000e+00
     vertex 3.2491571593e+01 5.9348914242e-02 1.9800000000e+00
     vertex 3.2830529241e+01 2.2265472934e-02 1.9800000000e+00
   endloop
 endfacet
 facet normal  0.0000000000e+00 0.0000000000e+00 -1.0000000000e+00
   outer loop
     vertex 3.2830529241e+01 1.1132736467e-02 1.9800000000e+00
     vertex 3.2491571593e+01 2.9674457121e-02 1.9800000000e+00
     vertex 3.2491571593e+01 5.9348914242e-02 1.9800000000e+00
   endloop
 endfacet
 facet normal  0.0000000000e+00 0.0000000000e+00 -1.0000000000e+00
   outer loop
     vertex 3.2491571593e+01 2.9674457121e-02 1.9800000000e+00
     vertex 3.1941205869e+01 1.1482519699e-01 1.9800000000e+00
     vertex 3.2491571593e+01 5.9348914242e-02 1.9800000000e+00
   endloop
 endfacet
 facet normal  0.0000000000e+00 0.0000000000e+00 -1.0000000000e+00
   outer loop
     vertex 3.2491571593e+01 2.9674457121e-02 1.9800000000e+00
     vertex 3.1941205869e+01 5.7412598495e-02 1.9800000000e+00
     vertex 3.1941205869e+01 1.1482519699e-01 1.9800000000e+00
   endloop
 endfacet
 facet normal  0.0000000000e+00 0.0000000000e+00 -1.0000000000e+00
   outer loop
     vertex 3.1941205869e+01 5.7412598495e-02 1.9800000000e+00
     vertex 3.1146922205e+01 1.8451458746e-01 1.9800000000e+00
     vertex 3.1941205869e+01 1.1482519699e-01 1.9800000000e+00
   endloop
 endfacet
 facet normal  0.0000000000e+00 0.0000000000e+00 -1.0000000000e+00
   outer loop
     vertex 3.1941205869e+01 5.7412598495e-02 1.9800000000e+00
     vertex 3.1146922205e+01 9.2257293732e-02 1.9800000000e+00
     vertex 3.1146922205e+01 1.8451458746e-01 1.9800000000e+00
   endloop
 endfacet
 facet normal  0.0000000000e+00 0.0000000000e+00 -1.0000000000e+00
   outer loop
     vertex 3.1146922205e+01 9.2257293732e-02 1.9800000000e+00
     vertex 3.0175800491e+01 2.4967449688e-01 1.9800000000e+00
     vertex 3.1146922205e+01 1.8451458746e-01 1.9800000000e+00
   endloop
 endfacet
 facet normal  0.0000000000e+00 0.0000000000e+00 -1.0000000000e+00
   outer loop
     vertex 3.1146922205e+01 9.2257293732e-02 1.9800000000e+00
     vertex 3.0175800491e+01 1.2483724844e-01 1.9800000000e+00
     vertex 3.0175800491e+01 2.4967449688e-01 1.9800000000e+00
   endloop
 endfacet
 facet normal  0.0000000000e+00 0.0000000000e+00 -1.0000000000e+00
   outer loop
     vertex 3.0175800491e+01 1.2483724844e-01 1.9800000000e+00
     vertex 2.9203063929e+01 1.4071420197e-01 1.9800000000e+00
     vertex 3.0175800491e+01 2.4967449688e-01 1.9800000000e+00
   endloop
 endfacet
 facet normal  0.0000000000e+00 0.0000000000e+00 -1.0000000000e+00
   outer loop
     vertex 3.0175800491e+01 2.4967449688e-01 1.9800000000e+00
     vertex 2.9203063929e+01 1.4071420197e-01 1.9800000000e+00
     vertex 2.9203063929e+01 2.8142840393e-01 1.9800000000e+00
   endloop
 endfacet
 facet normal  0.0000000000e+00 0.0000000000e+00 -1.0000000000e+00
   outer loop
     vertex 2.9203063929e+01 1.4071420197e-01 1.9800000000e+00
     vertex 2.8406071310e+01 1.3179661922e-01 1.9800000000e+00
     vertex 2.9203063929e+01 2.8142840393e-01 1.9800000000e+00
   endloop
 endfacet
 facet normal  0.0000000000e+00 0.0000000000e+00 -1.0000000000e+00
   outer loop
     vertex 2.9203063929e+01 2.8142840393e-01 1.9800000000e+00
     vertex 2.8406071310e+01 1.3179661922e-01 1.9800000000e+00
     vertex 2.8406071310e+01 2.6359323844e-01 1.9800000000e+00
   endloop
 endfacet
 facet normal  0.0000000000e+00 0.0000000000e+00 -1.0000000000e+00
   outer loop
     vertex 2.8406071310e+01 1.3179661922e-01 1.9800000000e+00
     vertex 2.7856215134e+01 1.0274883305e-01 1.9800000000e+00
     vertex 2.8406071310e+01 2.6359323844e-01 1.9800000000e+00
   endloop
 endfacet
 facet normal  0.0000000000e+00 0.0000000000e+00 -1.0000000000e+00
   outer loop
     vertex 2.8406071310e+01 2.6359323844e-01 1.9800000000e+00
     vertex 2.7856215134e+01 1.0274883305e-01 1.9800000000e+00
     vertex 2.7856215134e+01 2.0549766611e-01 1.9800000000e+00
   endloop
 endfacet
 facet normal  0.0000000000e+00 0.0000000000e+00 -1.0000000000e+00
   outer loop
     vertex 2.7856215134e+01 1.0274883305e-01 1.9800000000e+00
     vertex 2.7526139352e+01 6.1171647655e-02 1.9800000000e+00
     vertex 2.7856215134e+01 2.0549766611e-01 1.9800000000e+00
   endloop
 endfacet
 facet normal  0.0000000000e+00 0.0000000000e+00 -1.0000000000e+00
   outer loop
     vertex 2.7856215134e+01 2.0549766611e-01 1.9800000000e+00
     vertex 2.7526139352e+01 6.1171647655e-02 1.9800000000e+00
     vertex 2.7526139352e+01 1.2234329531e-01 1.9800000000e+00
   endloop
 endfacet
 facet normal  0.0000000000e+00 0.0000000000e+00 -1.0000000000e+00
   outer loop
     vertex 2.7526139352e+01 6.1171647655e-02 1.9800000000e+00
     vertex 2.7387000000e+01 0.0000000000e+00 1.9800000000e+00
     vertex 2.7526139352e+01 1.2234329531e-01 1.9800000000e+00
   endloop
 endfacet
 facet normal  -0.0000000000e+00 -0.0000000000e+00 -1.0000000000e+00
   outer loop
     vertex 2.7387000000e+01 0.0000000000e+00 1.9800000000e+00
     vertex 2.7526139352e+01 -6.1171647655e-02 1.9800000000e+00
     vertex 2.7526139352e+01 -1.2234329531e-01 1.9800000000e+00
   endloop
 endfacet
 facet normal  0.0000000000e+00 0.0000000000e+00 -1.0000000000e+00
   outer loop
     vertex 2.7526139352e+01 -6.1171647655e-02 1.9800000000e+00
     vertex 2.7856215134e+01 -2.0549766611e-01 1.9800000000e+00
     vertex 2.7526139352e+01 -1.2234329531e-01 1.9800000000e+00
   endloop
 endfacet
 facet normal  -0.0000000000e+00 -0.0000000000e+00 -1.0000000000e+00
   outer loop
     vertex 2.7526139352e+01 -6.1171647655e-02 1.9800000000e+00
     vertex 2.7856215134e+01 -1.0274883305e-01 1.9800000000e+00
     vertex 2.7856215134e+01 -2.0549766611e-01 1.9800000000e+00
   endloop
 endfacet
 facet normal  -8.0764612456e-16 0.0000000000e+00 -1.0000000000e+00
   outer loop
     vertex 2.7856215134e+01 -1.0274883305e-01 1.9800000000e+00
     vertex 2.8406071310e+01 -2.6359323844e-01 1.9800000000e+00
     vertex 2.7856215134e+01 -2.0549766611e-01 1.9800000000e+00
   endloop
 endfacet
 facet normal  -8.0764612456e-16 -0.0000000000e+00 -1.0000000000e+00
   outer loop
     vertex 2.7856215134e+01 -1.0274883305e-01 1.9800000000e+00
     vertex 2.8406071310e+01 -1.3179661922e-01 1.9800000000e+00
     vertex 2.8406071310e+01 -2.6359323844e-01 1.9800000000e+00
   endloop
 endfacet
 facet normal  8.3580926528e-16 0.0000000000e+00 -1.0000000000e+00
   outer loop
     vertex 2.8406071310e+01 -1.3179661922e-01 1.9800000000e+00
     vertex 2.9203063929e+01 -2.8142840393e-01 1.9800000000e+00
     vertex 2.8406071310e+01 -2.6359323844e-01 1.9800000000e+00
   endloop
 endfacet
 facet normal  8.3580926528e-16 0.0000000000e+00 -1.0000000000e+00
   outer loop
     vertex 2.8406071310e+01 -1.3179661922e-01 1.9800000000e+00
     vertex 2.9203063929e+01 -1.4071420197e-01 1.9800000000e+00
     vertex 2.9203063929e+01 -2.8142840393e-01 1.9800000000e+00
   endloop
 endfacet
 facet normal  -2.2826797469e-16 0.0000000000e+00 -1.0000000000e+00
   outer loop
     vertex 2.9203063929e+01 -1.4071420197e-01 1.9800000000e+00
     vertex 3.0175800491e+01 -2.4967449688e-01 1.9800000000e+00
     vertex 2.9203063929e+01 -2.8142840393e-01 1.9800000000e+00
   endloop
 endfacet
 facet normal  -2.2826797469e-16 -0.0000000000e+00 -1.0000000000e+00
   outer loop
     vertex 2.9203063929e+01 -1.4071420197e-01 1.9800000000e+00
     vertex 3.0175800491e+01 -1.2483724844e-01 1.9800000000e+00
     vertex 3.0175800491e+01 -2.4967449688e-01 1.9800000000e+00
   endloop
 endfacet
 facet normal  0.0000000000e+00 0.0000000000e+00 -1.0000000000e+00
   outer loop
     vertex 3.0175800491e+01 -1.2483724844e-01 1.9800000000e+00
     vertex 3.1146922205e+01 -9.2257293732e-02 1.9800000000e+00
     vertex 3.0175800491e+01 -2.4967449688e-01 1.9800000000e+00
   endloop
 endfacet
 facet normal  0.0000000000e+00 0.0000000000e+00 -1.0000000000e+00
   outer loop
     vertex 3.0175800491e+01 -2.4967449688e-01 1.9800000000e+00
     vertex 3.1146922205e+01 -9.2257293732e-02 1.9800000000e+00
     vertex 3.1146922205e+01 -1.8451458746e-01 1.9800000000e+00
   endloop
 endfacet
 facet normal  0.0000000000e+00 0.0000000000e+00 -1.0000000000e+00
   outer loop
     vertex 3.1146922205e+01 -9.2257293732e-02 1.9800000000e+00
     vertex 3.1941205869e+01 -5.7412598495e-02 1.9800000000e+00
     vertex 3.1146922205e+01 -1.8451458746e-01 1.9800000000e+00
   endloop
 endfacet
 facet normal  0.0000000000e+00 -0.0000000000e+00 -1.0000000000e+00
   outer loop
     vertex 3.1146922205e+01 -1.8451458746e-01 1.9800000000e+00
     vertex 3.1941205869e+01 -5.7412598495e-02 1.9800000000e+00
     vertex 3.1941205869e+01 -1.1482519699e-01 1.9800000000e+00
   endloop
 endfacet
 facet normal  0.0000000000e+00 0.0000000000e+00 -1.0000000000e+00
   outer loop
     vertex 3.1941205869e+01 -5.7412598495e-02 1.9800000000e+00
     vertex 3.2491571593e+01 -2.9674457121e-02 1.9800000000e+00
     vertex 3.1941205869e+01 -1.1482519699e-01 1.9800000000e+00
   endloop
 endfacet
 facet normal  0.0000000000e+00 -0.0000000000e+00 -1.0000000000e+00
   outer loop
     vertex 3.1941205869e+01 -1.1482519699e-01 1.9800000000e+00
     vertex 3.2491571593e+01 -2.9674457121e-02 1.9800000000e+00
     vertex 3.2491571593e+01 -5.9348914242e-02 1.9800000000e+00
   endloop
 endfacet
 facet normal  0.0000000000e+00 0.0000000000e+00 -1.0000000000e+00
   outer loop
     vertex 3.2491571593e+01 -2.9674457121e-02 1.9800000000e+00
     vertex 3.2830529241e+01 -1.1132736467e-02 1.9800000000e+00
     vertex 3.2491571593e+01 -5.9348914242e-02 1.9800000000e+00
   endloop
 endfacet
 facet normal  0.0000000000e+00 0.0000000000e+00 -1.0000000000e+00
   outer loop
     vertex 3.2491571593e+01 -5.9348914242e-02 1.9800000000e+00
     vertex 3.2830529241e+01 -1.1132736467e-02 1.9800000000e+00
     vertex 3.2830529241e+01 -2.2265472934e-02 1.9800000000e+00
   endloop
 endfacet
 facet normal  0.0000000000e+00 0.0000000000e+00 -1.0000000000e+00
   outer loop
     vertex 3.2830529241e+01 -1.1132736467e-02 1.9800000000e+00
     vertex 3.3024358000e+01 0.0000000000e+00 1.9800000000e+00
     vertex 3.2830529241e+01 -2.2265472934e-02 1.9800000000e+00
   endloop
 endfacet
 facet normal  1.1409284879e-01 9.9321830453e-01 -2.2365629811e-02
   outer loop
     vertex 3.3024358000e+01 0.0000000000e+00 1.9800000000e+00
     vertex 3.3473735212e+01 1.4472558592e-02 4.9150900000e+00
     vertex 3.3599723916e+01 1.7972242869e-16 4.9150900000e+00
   endloop
 endfacet
 facet normal  1.1409284879e-01 9.9321830453e-01 -2.2365629811e-02
   outer loop
     vertex 3.3024358000e+01 0.0000000000e+00 1.9800000000e+00
     vertex 3.2830529241e+01 2.2265472934e-02 1.9800000000e+00
     vertex 3.3473735212e+01 1.4472558592e-02 4.9150900000e+00
   endloop
 endfacet
 facet normal  1.0873100599e-01 9.9384535852e-01 -2.1188951794e-02
   outer loop
     vertex 3.2830529241e+01 2.2265472934e-02 1.9800000000e+00
     vertex 3.3253412723e+01 3.8576797416e-02 4.9150900000e+00
     vertex 3.3473735212e+01 1.4472558592e-02 4.9150900000e+00
   endloop
 endfacet
 facet normal  1.0873100599e-01 9.9384535852e-01 -2.1188951794e-02
   outer loop
     vertex 3.2830529241e+01 2.2265472934e-02 1.9800000000e+00
     vertex 3.2491571593e+01 5.9348914242e-02 1.9800000000e+00
     vertex 3.3253412723e+01 3.8576797416e-02 4.9150900000e+00
   endloop
 endfacet
 facet normal  1.0027265232e-01 9.9477881663e-01 -1.8986868855e-02
   outer loop
     vertex 3.2491571593e+01 5.9348914242e-02 1.9800000000e+00
     vertex 3.2895674973e+01 7.4636384154e-02 4.9150900000e+00
     vertex 3.3253412723e+01 3.8576797416e-02 4.9150900000e+00
   endloop
 endfacet
 facet normal  1.0027265232e-01 9.9477881663e-01 -1.8986868855e-02
   outer loop
     vertex 3.2491571593e+01 5.9348914242e-02 1.9800000000e+00
     vertex 3.1941205869e+01 1.1482519699e-01 1.9800000000e+00
     vertex 3.2895674973e+01 7.4636384154e-02 4.9150900000e+00
   endloop
 endfacet
 facet normal  8.7393347281e-02 9.9606421702e-01 -1.4781015729e-02
   outer loop
     vertex 3.1941205869e+01 1.1482519699e-01 1.9800000000e+00
     vertex 3.2379390549e+01 1.1993449167e-01 4.9150900000e+00
     vertex 3.2895674973e+01 7.4636384154e-02 4.9150900000e+00
   endloop
 endfacet
 facet normal  8.7393347281e-02 9.9606421702e-01 -1.4781015729e-02
   outer loop
     vertex 3.1941205869e+01 1.1482519699e-01 1.9800000000e+00
     vertex 3.1146922205e+01 1.8451458746e-01 1.9800000000e+00
     vertex 3.2379390549e+01 1.1993449167e-01 4.9150900000e+00
   endloop
 endfacet
 facet normal  6.6945771535e-02 9.9773761159e-01 -6.1580917977e-03
   outer loop
     vertex 3.1146922205e+01 1.8451458746e-01 1.9800000000e+00
     vertex 3.1748161383e+01 1.6228843626e-01 4.9150900000e+00
     vertex 3.2379390549e+01 1.1993449167e-01 4.9150900000e+00
   endloop
 endfacet
 facet normal  6.6945771535e-02 9.9773761159e-01 -6.1580917977e-03
   outer loop
     vertex 3.1146922205e+01 1.8451458746e-01 1.9800000000e+00
     vertex 3.0175800491e+01 2.4967449688e-01 1.9800000000e+00
     vertex 3.1748161383e+01 1.6228843626e-01 4.9150900000e+00
   endloop
 endfacet
 facet normal  3.2624053416e-02 9.9939227989e-01 1.2277704812e-02
   outer loop
     vertex 3.0175800491e+01 2.4967449688e-01 1.9800000000e+00
     vertex 2.9203063929e+01 2.8142840393e-01 1.9800000000e+00
     vertex 3.1748161383e+01 1.6228843626e-01 4.9150900000e+00
   endloop
 endfacet
 facet normal  3.2624053416e-02 9.9939227989e-01 1.2277704812e-02
   outer loop
     vertex 3.1748161383e+01 1.6228843626e-01 4.9150900000e+00
     vertex 2.9203063929e+01 2.8142840393e-01 1.9800000000e+00
     vertex 3.1115882566e+01 1.8292847753e-01 4.9150900000e+00
   endloop
 endfacet
 facet normal  -2.2346610651e-02 9.9859369062e-01 4.8075670034e-02
   outer loop
     vertex 2.9203063929e+01 2.8142840393e-01 1.9800000000e+00
     vertex 2.8406071310e+01 2.6359323844e-01 1.9800000000e+00
     vertex 3.1115882566e+01 1.8292847753e-01 4.9150900000e+00
   endloop
 endfacet
 facet normal  -2.2346610651e-02 9.9859369062e-01 4.8075670034e-02
   outer loop
     vertex 3.1115882566e+01 1.8292847753e-01 4.9150900000e+00
     vertex 2.8406071310e+01 2.6359323844e-01 1.9800000000e+00
     vertex 3.0597837321e+01 1.7133561901e-01 4.9150900000e+00
   endloop
 endfacet
 facet normal  -1.0444431089e-01 9.8853229464e-01 1.0906552334e-01
   outer loop
     vertex 2.8406071310e+01 2.6359323844e-01 1.9800000000e+00
     vertex 2.7856215134e+01 2.0549766611e-01 1.9800000000e+00
     vertex 3.0597837321e+01 1.7133561901e-01 4.9150900000e+00
   endloop
 endfacet
 facet normal  -1.0444431089e-01 9.8853229464e-01 1.0906552334e-01
   outer loop
     vertex 3.0597837321e+01 1.7133561901e-01 4.9150900000e+00
     vertex 2.7856215134e+01 2.0549766611e-01 1.9800000000e+00
     vertex 3.0240430778e+01 1.3357349390e-01 4.9150900000e+00
   endloop
 endfacet
 facet normal  -2.3847575939e-01 9.4661377459e-01 2.1691397821e-01
   outer loop
     vertex 2.7856215134e+01 2.0549766611e-01 1.9800000000e+00
     vertex 2.7526139352e+01 1.2234329531e-01 1.9800000000e+00
     vertex 3.0240430778e+01 1.3357349390e-01 4.9150900000e+00
   endloop
 endfacet
 facet normal  -2.3847575939e-01 9.4661377459e-01 2.1691397821e-01
   outer loop
     vertex 3.0240430778e+01 1.3357349390e-01 4.9150900000e+00
     vertex 2.7526139352e+01 1.2234329531e-01 1.9800000000e+00
     vertex 3.0025881502e+01 7.9523148463e-02 4.9150900000e+00
   endloop
 endfacet
 facet normal  -5.7285127509e-01 6.5149589781e-01 4.9738768759e-01
   outer loop
     vertex 2.7526139352e+01 1.2234329531e-01 1.9800000000e+00
     vertex 2.7387000000e+01 0.0000000000e+00 1.9800000000e+00
     vertex 3.0025881502e+01 7.9523148463e-02 4.9150900000e+00
   endloop
 endfacet
 facet normal  -5.7285127509e-01 6.5149589781e-01 4.9738768759e-01
   outer loop
     vertex 3.0025881502e+01 7.9523148463e-02 4.9150900000e+00
     vertex 2.7387000000e+01 0.0000000000e+00 1.9800000000e+00
     vertex 2.9935440916e+01 1.7972242869e-16 4.9150900000e+00
   endloop
 endfacet
 facet normal  -5.7285127509e-01 -6.5149589781e-01 4.9738768759e-01
   outer loop
     vertex 2.7387000000e+01 0.0000000000e+00 1.9800000000e+00
     vertex 3.0025881502e+01 -7.9523148463e-02 4.9150900000e+00
     vertex 2.9935440916e+01 1.7972242869e-16 4.9150900000e+00
   endloop
 endfacet
 facet normal  -5.7285127509e-01 -6.5149589781e-01 4.9738768759e-01
   outer loop
     vertex 2.7387000000e+01 0.0000000000e+00 1.9800000000e+00
     vertex 2.7526139352e+01 -1.2234329531e-01 1.9800000000e+00
     vertex 3.0025881502e+01 -7.9523148463e-02 4.9150900000e+00
   endloop
 endfacet
 facet normal  -2.3847575939e-01 -9.4661377459e-01 2.1691397821e-01
   outer loop
     vertex 2.7526139352e+01 -1.2234329531e-01 1.9800000000e+00
     vertex 3.0240430778e+01 -1.3357349390e-01 4.9150900000e+00
     vertex 3.0025881502e+01 -7.9523148463e-02 4.9150900000e+00
   endloop
 endfacet
 facet normal  -2.3847575939e-01 -9.4661377459e-01 2.1691397821e-01
   outer loop
     vertex 2.7526139352e+01 -1.2234329531e-01 1.9800000000e+00
     vertex 2.7856215134e+01 -2.0549766611e-01 1.9800000000e+00
     vertex 3.0240430778e+01 -1.3357349390e-01 4.9150900000e+00
   endloop
 endfacet
 facet normal  -1.0444431089e-01 -9.8853229464e-01 1.0906552334e-01
   outer loop
     vertex 2.7856215134e+01 -2.0549766611e-01 1.9800000000e+00
     vertex 3.0597837321e+01 -1.7133561901e-01 4.9150900000e+00
     vertex 3.0240430778e+01 -1.3357349390e-01 4.9150900000e+00
   endloop
 endfacet
 facet normal  -1.0444431089e-01 -9.8853229464e-01 1.0906552334e-01
   outer loop
     vertex 2.7856215134e+01 -2.0549766611e-01 1.9800000000e+00
     vertex 2.8406071310e+01 -2.6359323844e-01 1.9800000000e+00
     vertex 3.0597837321e+01 -1.7133561901e-01 4.9150900000e+00
   endloop
 endfacet
 facet normal  -2.2346610651e-02 -9.9859369062e-01 4.8075670034e-02
   outer loop
     vertex 2.8406071310e+01 -2.6359323844e-01 1.9800000000e+00
     vertex 3.1115882566e+01 -1.8292847753e-01 4.9150900000e+00
     vertex 3.0597837321e+01 -1.7133561901e-01 4.9150900000e+00
   endloop
 endfacet
 facet normal  -2.2346610651e-02 -9.9859369062e-01 4.8075670034e-02
   outer loop
     vertex 2.8406071310e+01 -2.6359323844e-01 1.9800000000e+00
     vertex 2.9203063929e+01 -2.8142840393e-01 1.9800000000e+00
     vertex 3.1115882566e+01 -1.8292847753e-01 4.9150900000e+00
   endloop
 endfacet
 facet normal  3.2624053416e-02 -9.9939227989e-01 1.2277704812e-02
   outer loop
     vertex 2.9203063929e+01 -2.8142840393e-01 1.9800000000e+00
     vertex 3.1748161383e+01 -1.6228843626e-01 4.9150900000e+00
     vertex 3.1115882566e+01 -1.8292847753e-01 4.9150900000e+00
   endloop
 endfacet
 facet normal  3.2624053416e-02 -9.9939227989e-01 1.2277704812e-02
   outer loop
     vertex 2.9203063929e+01 -2.8142840393e-01 1.9800000000e+00
     vertex 3.0175800491e+01 -2.4967449688e-01 1.9800000000e+00
     vertex 3.1748161383e+01 -1.6228843626e-01 4.9150900000e+00
   endloop
 endfacet
 facet normal  6.6945771535e-02 -9.9773761159e-01 -6.1580917977e-03
   outer loop
     vertex 3.0175800491e+01 -2.4967449688e-01 1.9800000000e+00
     vertex 3.1146922205e+01 -1.8451458746e-01 1.9800000000e+00
     vertex 3.1748161383e+01 -1.6228843626e-01 4.9150900000e+00
   endloop
 endfacet
 facet normal  6.6945771535e-02 -9.9773761159e-01 -6.1580917977e-03
   outer loop
     vertex 3.1748161383e+01 -1.6228843626e-01 4.9150900000e+00
     vertex 3.1146922205e+01 -1.8451458746e-01 1.9800000000e+00
     vertex 3.2379390549e+01 -1.1993449167e-01 4.9150900000e+00
   endloop
 endfacet
 facet normal  8.7393347281e-02 -9.9606421702e-01 -1.4781015729e-02
   outer loop
     vertex 3.1146922205e+01 -1.8451458746e-01 1.9800000000e+00
     vertex 3.1941205869e+01 -1.1482519699e-01 1.9800000000e+00
     vertex 3.2379390549e+01 -1.1993449167e-01 4.9150900000e+00
   endloop
 endfacet
 facet normal  8.7393347281e-02 -9.9606421702e-01 -1.4781015729e-02
   outer loop
     vertex 3.2379390549e+01 -1.1993449167e-01 4.9150900000e+00
     vertex 3.1941205869e+01 -1.1482519699e-01 1.9800000000e+00
     vertex 3.2895674973e+01 -7.4636384154e-02 4.9150900000e+00
   endloop
 endfacet
 facet normal  1.0027265232e-01 -9.9477881663e-01 -1.8986868855e-02
   outer loop
     vertex 3.1941205869e+01 -1.1482519699e-01 1.9800000000e+00
     vertex 3.2491571593e+01 -5.9348914242e-02 1.9800000000e+00
     vertex 3.2895674973e+01 -7.4636384154e-02 4.9150900000e+00
   endloop
 endfacet
 facet normal  1.0027265232e-01 -9.9477881663e-01 -1.8986868855e-02
   outer loop
     vertex 3.2895674973e+01 -7.4636384154e-02 4.9150900000e+00
     vertex 3.2491571593e+01 -5.9348914242e-02 1.9800000000e+00
     vertex 3.3253412723e+01 -3.8576797416e-02 4.9150900000e+00
   endloop
 endfacet
 facet normal  1.0873100599e-01 -9.9384535852e-01 -2.1188951794e-02
   outer loop
     vertex 3.2491571593e+01 -5.9348914242e-02 1.9800000000e+00
     vertex 3.2830529241e+01 -2.2265472934e-02 1.9800000000e+00
     vertex 3.3253412723e+01 -3.8576797416e-02 4.9150900000e+00
   endloop
 endfacet
 facet normal  1.0873100599e-01 -9.9384535852e-01 -2.1188951794e-02
   outer loop
     vertex 3.3253412723e+01 -3.8576797416e-02 4.9150900000e+00
     vertex 3.2830529241e+01 -2.2265472934e-02 1.9800000000e+00
     vertex 3.3473735212e+01 -1.4472558592e-02 4.9150900000e+00
   endloop
 endfacet
 facet normal  1.1409284879e-01 -9.9321830453e-01 -2.2365629811e-02
   outer loop
     vertex 3.2830529241e+01 -2.2265472934e-02 1.9800000000e+00
     vertex 3.3024358000e+01 0.0000000000e+00 1.9800000000e+00
     vertex 3.3473735212e+01 -1.4472558592e-02 4.9150900000e+00
   endloop
 endfacet
 facet normal  1.1409284879e-01 -9.9321830453e-01 -2.2365629811e-02
   outer loop
     vertex 3.3473735212e+01 -1.4472558592e-02 4.9150900000e+00
     vertex 3.3024358000e+01 0.0000000000e+00 1.9800000000e+00
     vertex 3.3599723916e+01 1.7972242869e-16 4.9150900000e+00
   endloop
 endfacet
 facet normal  1.1409284886e-01 9.9321830520e-01 -2.2365599807e-02
   outer loop
     vertex 3.3599723916e+01 1.7972242869e-16 4.9150900000e+00
     vertex 3.4116940445e+01 6.6796403005e-03 7.8501800000e+00
     vertex 3.4175089059e+01 3.5944485737e-16 7.8501800000e+00
   endloop
 endfacet
 facet normal  1.1409284886e-01 9.9321830520e-01 -2.2365599807e-02
   outer loop
     vertex 3.3599723916e+01 1.7972242869e-16 4.9150900000e+00
     vertex 3.3473735212e+01 1.4472558592e-02 4.9150900000e+00
     vertex 3.4116940445e+01 6.6796403005e-03 7.8501800000e+00
   endloop
 endfacet
 facet normal  1.0873100605e-01 9.9384535913e-01 -2.1188923135e-02
   outer loop
     vertex 3.3473735212e+01 1.4472558592e-02 4.9150900000e+00
     vertex 3.4015253175e+01 1.7804670062e-02 7.8501800000e+00
     vertex 3.4116940445e+01 6.6796403005e-03 7.8501800000e+00
   endloop
 endfacet
 facet normal  1.0873100605e-01 9.9384535913e-01 -2.1188923135e-02
   outer loop
     vertex 3.3473735212e+01 1.4472558592e-02 4.9150900000e+00
     vertex 3.3253412723e+01 3.8576797416e-02 4.9150900000e+00
     vertex 3.4015253175e+01 1.7804670062e-02 7.8501800000e+00
   endloop
 endfacet
 facet normal  1.0027265237e-01 9.9477881713e-01 -1.8986842143e-02
   outer loop
     vertex 3.3253412723e+01 3.8576797416e-02 4.9150900000e+00
     vertex 3.3850143497e+01 3.4447550949e-02 7.8501800000e+00
     vertex 3.4015253175e+01 1.7804670062e-02 7.8501800000e+00
   endloop
 endfacet
 facet normal  1.0027265237e-01 9.9477881713e-01 -1.8986842143e-02
   outer loop
     vertex 3.3253412723e+01 3.8576797416e-02 4.9150900000e+00
     vertex 3.2895674973e+01 7.4636384154e-02 4.9150900000e+00
     vertex 3.3850143497e+01 3.4447550949e-02 7.8501800000e+00
   endloop
 endfacet
 facet normal  8.7393347312e-02 9.9606421737e-01 -1.4780991549e-02
   outer loop
     vertex 3.2895674973e+01 7.4636384154e-02 4.9150900000e+00
     vertex 3.3611858453e+01 5.5354363147e-02 7.8501800000e+00
     vertex 3.3850143497e+01 3.4447550949e-02 7.8501800000e+00
   endloop
 endfacet
 facet normal  8.7393347312e-02 9.9606421737e-01 -1.4780991549e-02
   outer loop
     vertex 3.2895674973e+01 7.4636384154e-02 4.9150900000e+00
     vertex 3.2379390549e+01 1.1993449167e-01 4.9150900000e+00
     vertex 3.3611858453e+01 5.5354363147e-02 7.8501800000e+00
   endloop
 endfacet
 facet normal  6.6945771544e-02 9.9773761172e-01 -6.1580706544e-03
   outer loop
     vertex 3.2379390549e+01 1.1993449167e-01 4.9150900000e+00
     vertex 3.3320522008e+01 7.4902331349e-02 7.8501800000e+00
     vertex 3.3611858453e+01 5.5354363147e-02 7.8501800000e+00
   endloop
 endfacet
 facet normal  6.6945771544e-02 9.9773761172e-01 -6.1580706544e-03
   outer loop
     vertex 3.2379390549e+01 1.1993449167e-01 4.9150900000e+00
     vertex 3.1748161383e+01 1.6228843626e-01 4.9150900000e+00
     vertex 3.3320522008e+01 7.4902331349e-02 7.8501800000e+00
   endloop
 endfacet
 facet normal  3.2624053409e-02 9.9939227967e-01 1.2277722857e-02
   outer loop
     vertex 3.1748161383e+01 1.6228843626e-01 4.9150900000e+00
     vertex 3.1115882566e+01 1.8292847753e-01 4.9150900000e+00
     vertex 3.3320522008e+01 7.4902331349e-02 7.8501800000e+00
   endloop
 endfacet
 facet normal  3.2624053409e-02 9.9939227967e-01 1.2277722857e-02
   outer loop
     vertex 3.3320522008e+01 7.4902331349e-02 7.8501800000e+00
     vertex 3.1115882566e+01 1.8292847753e-01 4.9150900000e+00
     vertex 3.3028701109e+01 8.4428501210e-02 7.8501800000e+00
   endloop
 endfacet
 facet normal  -2.2346610633e-02 9.9859368984e-01 4.8075686263e-02
   outer loop
     vertex 3.1115882566e+01 1.8292847753e-01 4.9150900000e+00
     vertex 3.0597837321e+01 1.7133561901e-01 4.9150900000e+00
     vertex 3.3028701109e+01 8.4428501210e-02 7.8501800000e+00
   endloop
 endfacet
 facet normal  -2.2346610633e-02 9.9859368984e-01 4.8075686263e-02
   outer loop
     vertex 3.3028701109e+01 8.4428501210e-02 7.8501800000e+00
     vertex 3.0597837321e+01 1.7133561901e-01 4.9150900000e+00
     vertex 3.2789603380e+01 7.9077952828e-02 7.8501800000e+00
   endloop
 endfacet
 facet normal  -1.0444431069e-01 9.8853229276e-01 1.0906554056e-01
   outer loop
     vertex 3.0597837321e+01 1.7133561901e-01 4.9150900000e+00
     vertex 3.0240430778e+01 1.3357349390e-01 4.9150900000e+00
     vertex 3.2789603380e+01 7.9077952828e-02 7.8501800000e+00
   endloop
 endfacet
 facet normal  -1.0444431069e-01 9.8853229276e-01 1.0906554056e-01
   outer loop
     vertex 3.2789603380e+01 7.9077952828e-02 7.8501800000e+00
     vertex 3.0240430778e+01 1.3357349390e-01 4.9150900000e+00
     vertex 3.2624646566e+01 6.1649285251e-02 7.8501800000e+00
   endloop
 endfacet
 facet normal  -2.3847575817e-01 9.4661376976e-01 2.1691400060e-01
   outer loop
     vertex 3.0240430778e+01 1.3357349390e-01 4.9150900000e+00
     vertex 3.0025881502e+01 7.9523148463e-02 4.9150900000e+00
     vertex 3.2624646566e+01 6.1649285251e-02 7.8501800000e+00
   endloop
 endfacet
 facet normal  -2.3847575817e-01 9.4661376976e-01 2.1691400060e-01
   outer loop
     vertex 3.2624646566e+01 6.1649285251e-02 7.8501800000e+00
     vertex 3.0025881502e+01 7.9523148463e-02 4.9150900000e+00
     vertex 3.2525623855e+01 3.6702979912e-02 7.8501800000e+00
   endloop
 endfacet
 facet normal  -5.7285126242e-01 6.5149588341e-01 4.9738772104e-01
   outer loop
     vertex 3.0025881502e+01 7.9523148463e-02 4.9150900000e+00
     vertex 2.9935440916e+01 1.7972242869e-16 4.9150900000e+00
     vertex 3.2525623855e+01 3.6702979912e-02 7.8501800000e+00
   endloop
 endfacet
 facet normal  -5.7285126242e-01 6.5149588341e-01 4.9738772104e-01
   outer loop
     vertex 3.2525623855e+01 3.6702979912e-02 7.8501800000e+00
     vertex 2.9935440916e+01 1.7972242869e-16 4.9150900000e+00
     vertex 3.2483882059e+01 3.5944485737e-16 7.8501800000e+00
   endloop
 endfacet
 facet normal  -5.7285126242e-01 -6.5149588341e-01 4.9738772104e-01
   outer loop
     vertex 2.9935440916e+01 1.7972242869e-16 4.9150900000e+00
     vertex 3.2525623855e+01 -3.6702979912e-02 7.8501800000e+00
     vertex 3.2483882059e+01 3.5944485737e-16 7.8501800000e+00
   endloop
 endfacet
 facet normal  -5.7285126242e-01 -6.5149588341e-01 4.9738772104e-01
   outer loop
     vertex 2.9935440916e+01 1.7972242869e-16 4.9150900000e+00
     vertex 3.0025881502e+01 -7.9523148463e-02 4.9150900000e+00
     vertex 3.2525623855e+01 -3.6702979912e-02 7.8501800000e+00
   endloop
 endfacet
 facet normal  -2.3847575817e-01 -9.4661376976e-01 2.1691400060e-01
   outer loop
     vertex 3.0025881502e+01 -7.9523148463e-02 4.9150900000e+00
     vertex 3.2624646566e+01 -6.1649285251e-02 7.8501800000e+00
     vertex 3.2525623855e+01 -3.6702979912e-02 7.8501800000e+00
   endloop
 endfacet
 facet normal  -2.3847575817e-01 -9.4661376976e-01 2.1691400060e-01
   outer loop
     vertex 3.0025881502e+01 -7.9523148463e-02 4.9150900000e+00
     vertex 3.0240430778e+01 -1.3357349390e-01 4.9150900000e+00
     vertex 3.2624646566e+01 -6.1649285251e-02 7.8501800000e+00
   endloop
 endfacet
 facet normal  -1.0444431069e-01 -9.8853229276e-01 1.0906554056e-01
   outer loop
     vertex 3.0240430778e+01 -1.3357349390e-01 4.9150900000e+00
     vertex 3.2789603380e+01 -7.9077952828e-02 7.8501800000e+00
     vertex 3.2624646566e+01 -6.1649285251e-02 7.8501800000e+00
   endloop
 endfacet
 facet normal  -1.0444431069e-01 -9.8853229276e-01 1.0906554056e-01
   outer loop
     vertex 3.0240430778e+01 -1.3357349390e-01 4.9150900000e+00
     vertex 3.0597837321e+01 -1.7133561901e-01 4.9150900000e+00
     vertex 3.2789603380e+01 -7.9077952828e-02 7.8501800000e+00
   endloop
 endfacet
 facet normal  -2.2346610633e-02 -9.9859368984e-01 4.8075686263e-02
   outer loop
     vertex 3.0597837321e+01 -1.7133561901e-01 4.9150900000e+00
     vertex 3.3028701109e+01 -8.4428501210e-02 7.8501800000e+00
     vertex 3.2789603380e+01 -7.9077952828e-02 7.8501800000e+00
   endloop
 endfacet
 facet normal  -2.2346610633e-02 -9.9859368984e-01 4.8075686263e-02
   outer loop
     vertex 3.0597837321e+01 -1.7133561901e-01 4.9150900000e+00
     vertex 3.1115882566e+01 -1.8292847753e-01 4.9150900000e+00
     vertex 3.3028701109e+01 -8.4428501210e-02 7.8501800000e+00
   endloop
 endfacet
 facet normal  3.2624053409e-02 -9.9939227967e-01 1.2277722857e-02
   outer loop
     vertex 3.1115882566e+01 -1.8292847753e-01 4.9150900000e+00
     vertex 3.3320522008e+01 -7.4902331349e-02 7.8501800000e+00
     vertex 3.3028701109e+01 -8.4428501210e-02 7.8501800000e+00
   endloop
 endfacet
 facet normal  3.2624053409e-02 -9.9939227967e-01 1.2277722857e-02
   outer loop
     vertex 3.1115882566e+01 -1.8292847753e-01 4.9150900000e+00
     vertex 3.1748161383e+01 -1.6228843626e-01 4.9150900000e+00
     vertex 3.3320522008e+01 -7.4902331349e-02 7.8501800000e+00
   endloop
 endfacet
 facet normal  6.6945771544e-02 -9.9773761172e-01 -6.1580706544e-03
   outer loop
     vertex 3.1748161383e+01 -1.6228843626e-01 4.9150900000e+00
     vertex 3.2379390549e+01 -1.1993449167e-01 4.9150900000e+00
     vertex 3.3320522008e+01 -7.4902331349e-02 7.8501800000e+00
   endloop
 endfacet
 facet normal  6.6945771544e-02 -9.9773761172e-01 -6.1580706544e-03
   outer loop
     vertex 3.3320522008e+01 -7.4902331349e-02 7.8501800000e+00
     vertex 3.2379390549e+01 -1.1993449167e-01 4.9150900000e+00
     vertex 3.3611858453e+01 -5.5354363147e-02 7.8501800000e+00
   endloop
 endfacet
 facet normal  8.7393347312e-02 -9.9606421737e-01 -1.4780991549e-02
   outer loop
     vertex 3.2379390549e+01 -1.1993449167e-01 4.9150900000e+00
     vertex 3.2895674973e+01 -7.4636384154e-02 4.9150900000e+00
     vertex 3.3611858453e+01 -5.5354363147e-02 7.8501800000e+00
   endloop
 endfacet
 facet normal  8.7393347312e-02 -9.9606421737e-01 -1.4780991549e-02
   outer loop
     vertex 3.3611858453e+01 -5.5354363147e-02 7.8501800000e+00
     vertex 3.2895674973e+01 -7.4636384154e-02 4.9150900000e+00
     vertex 3.3850143497e+01 -3.4447550949e-02 7.8501800000e+00
   endloop
 endfacet
 facet normal  1.0027265237e-01 -9.9477881713e-01 -1.8986842143e-02
   outer loop
     vertex 3.2895674973e+01 -7.4636384154e-02 4.9150900000e+00
     vertex 3.3253412723e+01 -3.8576797416e-02 4.9150900000e+00
     vertex 3.3850143497e+01 -3.4447550949e-02 7.8501800000e+00
   endloop
 endfacet
 facet normal  1.0027265237e-01 -9.9477881713e-01 -1.8986842143e-02
   outer loop
     vertex 3.3850143497e+01 -3.4447550949e-02 7.8501800000e+00
     vertex 3.3253412723e+01 -3.8576797416e-02 4.9150900000e+00
     vertex 3.4015253175e+01 -1.7804670062e-02 7.8501800000e+00
   endloop
 endfacet
 facet normal  1.0873100605e-01 -9.9384535913e-01 -2.1188923135e-02
   outer loop
     vertex 3.3253412723e+01 -3.8576797416e-02 4.9150900000e+00
     vertex 3.3473735212e+01 -1.4472558592e-02 4.9150900000e+00
     vertex 3.4015253175e+01 -1.7804670062e-02 7.8501800000e+00
   endloop
 endfacet
 facet normal  1.0873100605e-01 -9.9384535913e-01 -2.1188923135e-02
   outer loop
     vertex 3.4015253175e+01 -1.7804670062e-02 7.8501800000e+00
     vertex 3.3473735212e+01 -1.4472558592e-02 4.9150900000e+00
     vertex 3.4116940445e+01 -6.6796403005e-03 7.8501800000e+00
   endloop
 endfacet
 facet normal  1.1409284886e-01 -9.9321830520e-01 -2.2365599807e-02
   outer loop
     vertex 3.3473735212e+01 -1.4472558592e-02 4.9150900000e+00
     vertex 3.3599723916e+01 1.7972242869e-16 4.9150900000e+00
     vertex 3.4116940445e+01 -6.6796403005e-03 7.8501800000e+00
   endloop
 endfacet
 facet normal  1.1409284886e-01 -9.9321830520e-01 -2.2365599807e-02
   outer loop
     vertex 3.4116940445e+01 -6.6796403005e-03 7.8501800000e+00
     vertex 3.3599723916e+01 1.7972242869e-16 4.9150900000e+00
     vertex 3.4175089059e+01 3.5944485737e-16 7.8501800000e+00
   endloop
 endfacet
 facet normal  0.0000000000e+00 0.0000000000e+00 1.0000000000e+00
   outer loop
     vertex 3.4175089059e+01 3.5944485737e-16 7.8501800000e+00
     vertex 3.4116940445e+01 6.6796403005e-03 7.8501800000e+00
     vertex 3.4116940445e+01 3.3398201502e-03 7.8501800000e+00
   endloop
 endfacet
 facet normal  0.0000000000e+00 0.0000000000e+00 1.0000000000e+00
   outer loop
     vertex 3.4116940445e+01 6.6796403005e-03 7.8501800000e+00
     vertex 3.4015253175e+01 8.9023350308e-03 7.8501800000e+00
     vertex 3.4116940445e+01 3.3398201502e-03 7.8501800000e+00
   endloop
 endfacet
 facet normal  0.0000000000e+00 0.0000000000e+00 1.0000000000e+00
   outer loop
     vertex 3.4116940445e+01 6.6796403005e-03 7.8501800000e+00
     vertex 3.4015253175e+01 1.7804670062e-02 7.8501800000e+00
     vertex 3.4015253175e+01 8.9023350308e-03 7.8501800000e+00
   endloop
 endfacet
 facet normal  -0.0000000000e+00 0.0000000000e+00 1.0000000000e+00
   outer loop
     vertex 3.4015253175e+01 1.7804670062e-02 7.8501800000e+00
     vertex 3.3850143497e+01 1.7223775475e-02 7.8501800000e+00
     vertex 3.4015253175e+01 8.9023350308e-03 7.8501800000e+00
   endloop
 endfacet
 facet normal  0.0000000000e+00 0.0000000000e+00 1.0000000000e+00
   outer loop
     vertex 3.4015253175e+01 1.7804670062e-02 7.8501800000e+00
     vertex 3.3850143497e+01 3.4447550949e-02 7.8501800000e+00
     vertex 3.3850143497e+01 1.7223775475e-02 7.8501800000e+00
   endloop
 endfacet
 facet normal  -0.0000000000e+00 0.0000000000e+00 1.0000000000e+00
   outer loop
     vertex 3.3850143497e+01 3.4447550949e-02 7.8501800000e+00
     vertex 3.3611858453e+01 2.7677181573e-02 7.8501800000e+00
     vertex 3.3850143497e+01 1.7223775475e-02 7.8501800000e+00
   endloop
 endfacet
 facet normal  0.0000000000e+00 0.0000000000e+00 1.0000000000e+00
   outer loop
     vertex 3.3850143497e+01 3.4447550949e-02 7.8501800000e+00
     vertex 3.3611858453e+01 5.5354363147e-02 7.8501800000e+00
     vertex 3.3611858453e+01 2.7677181573e-02 7.8501800000e+00
   endloop
 endfacet
 facet normal  -0.0000000000e+00 0.0000000000e+00 1.0000000000e+00
   outer loop
     vertex 3.3611858453e+01 5.5354363147e-02 7.8501800000e+00
     vertex 3.3320522008e+01 3.7451165674e-02 7.8501800000e+00
     vertex 3.3611858453e+01 2.7677181573e-02 7.8501800000e+00
   endloop
 endfacet
 facet normal  0.0000000000e+00 0.0000000000e+00 1.0000000000e+00
   outer loop
     vertex 3.3611858453e+01 5.5354363147e-02 7.8501800000e+00
     vertex 3.3320522008e+01 7.4902331349e-02 7.8501800000e+00
     vertex 3.3320522008e+01 3.7451165674e-02 7.8501800000e+00
   endloop
 endfacet
 facet normal  0.0000000000e+00 0.0000000000e+00 1.0000000000e+00
   outer loop
     vertex 3.3320522008e+01 7.4902331349e-02 7.8501800000e+00
     vertex 3.3028701109e+01 8.4428501210e-02 7.8501800000e+00
     vertex 3.3320522008e+01 3.7451165674e-02 7.8501800000e+00
   endloop
 endfacet
 facet normal  0.0000000000e+00 0.0000000000e+00 1.0000000000e+00
   outer loop
     vertex 3.3320522008e+01 3.7451165674e-02 7.8501800000e+00
     vertex 3.3028701109e+01 8.4428501210e-02 7.8501800000e+00
     vertex 3.3028701109e+01 4.2214250605e-02 7.8501800000e+00
   endloop
 endfacet
 facet normal  -0.0000000000e+00 0.0000000000e+00 1.0000000000e+00
   outer loop
     vertex 3.3028701109e+01 8.4428501210e-02 7.8501800000e+00
     vertex 3.2789603380e+01 7.9077952828e-02 7.8501800000e+00
     vertex 3.3028701109e+01 4.2214250605e-02 7.8501800000e+00
   endloop
 endfacet
 facet normal  0.0000000000e+00 0.0000000000e+00 1.0000000000e+00
   outer loop
     vertex 3.3028701109e+01 4.2214250605e-02 7.8501800000e+00
     vertex 3.2789603380e+01 7.9077952828e-02 7.8501800000e+00
     vertex 3.2789603380e+01 3.9538976414e-02 7.8501800000e+00
   endloop
 endfacet
 facet normal  -0.0000000000e+00 0.0000000000e+00 1.0000000000e+00
   outer loop
     vertex 3.2789603380e+01 7.9077952828e-02 7.8501800000e+00
     vertex 3.2624646566e+01 6.1649285251e-02 7.8501800000e+00
     vertex 3.2789603380e+01 3.9538976414e-02 7.8501800000e+00
   endloop
 endfacet
 facet normal  0.0000000000e+00 0.0000000000e+00 1.0000000000e+00
   outer loop
     vertex 3.2789603380e+01 3.9538976414e-02 7.8501800000e+00
     vertex 3.2624646566e+01 6.1649285251e-02 7.8501800000e+00
     vertex 3.2624646566e+01 3.0824642625e-02 7.8501800000e+00
   endloop
 endfacet
 facet normal  -0.0000000000e+00 0.0000000000e+00 1.0000000000e+00
   outer loop
     vertex 3.2624646566e+01 6.1649285251e-02 7.8501800000e+00
     vertex 3.2525623855e+01 3.6702979912e-02 7.8501800000e+00
     vertex 3.2624646566e+01 3.0824642625e-02 7.8501800000e+00
   endloop
 endfacet
 facet normal  0.0000000000e+00 0.0000000000e+00 1.0000000000e+00
   outer loop
     vertex 3.2624646566e+01 3.0824642625e-02 7.8501800000e+00
     vertex 3.2525623855e+01 3.6702979912e-02 7.8501800000e+00
     vertex 3.2525623855e+01 1.8351489956e-02 7.8501800000e+00
   endloop
 endfacet
 facet normal  0.0000000000e+00 0.0000000000e+00 1.0000000000e+00
   outer loop
     vertex 3.2525623855e+01 3.6702979912e-02 7.8501800000e+00
     vertex 3.2483882059e+01 3.5944485737e-16 7.8501800000e+00
     vertex 3.2525623855e+01 1.8351489956e-02 7.8501800000e+00
   endloop
 endfacet
 facet normal  0.0000000000e+00 -0.0000000000e+00 1.0000000000e+00
   outer loop
     vertex 3.2483882059e+01 3.5944485737e-16 7.8501800000e+00
     vertex 3.2525623855e+01 -3.6702979912e-02 7.8501800000e+00
     vertex 3.2525623855e+01 -1.8351489956e-02 7.8501800000e+00
   endloop
 endfacet
 facet normal  0.0000000000e+00 0.0000000000e+00 1.0000000000e+00
   outer loop
     vertex 3.2525623855e+01 -3.6702979912e-02 7.8501800000e+00
     vertex 3.2624646566e+01 -3.0824642625e-02 7.8501800000e+00
     vertex 3.2525623855e+01 -1.8351489956e-02 7.8501800000e+00
   endloop
 endfacet
 facet normal  0.0000000000e+00 -0.0000000000e+00 1.0000000000e+00
   outer loop
     vertex 3.2525623855e+01 -3.6702979912e-02 7.8501800000e+00
     vertex 3.2624646566e+01 -6.1649285251e-02 7.8501800000e+00
     vertex 3.2624646566e+01 -3.0824642625e-02 7.8501800000e+00
   endloop
 endfacet
 facet normal  0.0000000000e+00 0.0000000000e+00 1.0000000000e+00
   outer loop
     vertex 3.2624646566e+01 -6.1649285251e-02 7.8501800000e+00
     vertex 3.2789603380e+01 -3.9538976414e-02 7.8501800000e+00
     vertex 3.2624646566e+01 -3.0824642625e-02 7.8501800000e+00
   endloop
 endfacet
 facet normal  0.0000000000e+00 -0.0000000000e+00 1.0000000000e+00
   outer loop
     vertex 3.2624646566e+01 -6.1649285251e-02 7.8501800000e+00
     vertex 3.2789603380e+01 -7.9077952828e-02 7.8501800000e+00
     vertex 3.2789603380e+01 -3.9538976414e-02 7.8501800000e+00
   endloop
 endfacet
 facet normal  0.0000000000e+00 0.0000000000e+00 1.0000000000e+00
   outer loop
     vertex 3.2789603380e+01 -7.9077952828e-02 7.8501800000e+00
     vertex 3.3028701109e+01 -4.2214250605e-02 7.8501800000e+00
     vertex 3.2789603380e+01 -3.9538976414e-02 7.8501800000e+00
   endloop
 endfacet
 facet normal  0.0000000000e+00 -0.0000000000e+00 1.0000000000e+00
   outer loop
     vertex 3.2789603380e+01 -7.9077952828e-02 7.8501800000e+00
     vertex 3.3028701109e+01 -8.4428501210e-02 7.8501800000e+00
     vertex 3.3028701109e+01 -4.2214250605e-02 7.8501800000e+00
   endloop
 endfacet
 facet normal  0.0000000000e+00 0.0000000000e+00 1.0000000000e+00
   outer loop
     vertex 3.3028701109e+01 -8.4428501210e-02 7.8501800000e+00
     vertex 3.3320522008e+01 -3.7451165674e-02 7.8501800000e+00
     vertex 3.3028701109e+01 -4.2214250605e-02 7.8501800000e+00
   endloop
 endfacet
 facet normal  0.0000000000e+00 -0.0000000000e+00 1.0000000000e+00
   outer loop
     vertex 3.3028701109e+01 -8.4428501210e-02 7.8501800000e+00
     vertex 3.3320522008e+01 -7.4902331349e-02 7.8501800000e+00
     vertex 3.3320522008e+01 -3.7451165674e-02 7.8501800000e+00
   endloop
 endfacet
 facet normal  0.0000000000e+00 0.0000000000e+00 1.0000000000e+00
   outer loop
     vertex 3.3320522008e+01 -7.4902331349e-02 7.8501800000e+00
     vertex 3.3611858453e+01 -5.5354363147e-02 7.8501800000e+00
     vertex 3.3320522008e+01 -3.7451165674e-02 7.8501800000e+00
   endloop
 endfacet
 facet normal  0.0000000000e+00 -0.0000000000e+00 1.0000000000e+00
   outer loop
     vertex 3.3320522008e+01 -3.7451165674e-02 7.8501800000e+00
     vertex 3.3611858453e+01 -5.5354363147e-02 7.8501800000e+00
     vertex 3.3611858453e+01 -2.7677181573e-02 7.8501800000e+00
   endloop
 endfacet
 facet normal  0.0000000000e+00 0.0000000000e+00 1.0000000000e+00
   outer loop
     vertex 3.3611858453e+01 -5.5354363147e-02 7.8501800000e+00
     vertex 3.3850143497e+01 -3.4447550949e-02 7.8501800000e+00
     vertex 3.3611858453e+01 -2.7677181573e-02 7.8501800000e+00
   endloop
 endfacet
 facet normal  0.0000000000e+00 -0.0000000000e+00 1.0000000000e+00
   outer loop
     vertex 3.3611858453e+01 -2.7677181573e-02 7.8501800000e+00
     vertex 3.3850143497e+01 -3.4447550949e-02 7.8501800000e+00
     vertex 3.3850143497e+01 -1.7223775475e-02 7.8501800000e+00
   endloop
 endfacet
 facet normal  0.0000000000e+00 0.0000000000e+00 1.0000000000e+00
   outer loop
     vertex 3.3850143497e+01 -3.4447550949e-02 7.8501800000e+00
     vertex 3.4015253175e+01 -1.7804670062e-02 7.8501800000e+00
     vertex 3.3850143497e+01 -1.7223775475e-02 7.8501800000e+00
   endloop
 endfacet
 facet normal  0.0000000000e+00 -0.0000000000e+00 1.0000000000e+00
   outer loop
     vertex 3.3850143497e+01 -1.7223775475e-02 7.8501800000e+00
     vertex 3.4015253175e+01 -1.7804670062e-02 7.8501800000e+00
     vertex 3.4015253175e+01 -8.9023350308e-03 7.8501800000e+00
   endloop
 endfacet
 facet normal  0.0000000000e+00 0.0000000000e+00 1.0000000000e+00
   outer loop
     vertex 3.4015253175e+01 -1.7804670062e-02 7.8501800000e+00
     vertex 3.4116940445e+01 -6.6796403005e-03 7.8501800000e+00
     vertex 3.4015253175e+01 -8.9023350308e-03 7.8501800000e+00
   endloop
 endfacet
 facet normal  0.0000000000e+00 -0.0000000000e+00 1.0000000000e+00
   outer loop
     vertex 3.4015253175e+01 -8.9023350308e-03 7.8501800000e+00
     vertex 3.4116940445e+01 -6.6796403005e-03 7.8501800000e+00
     vertex 3.4116940445e+01 -3.3398201502e-03 7.8501800000e+00
   endloop
 endfacet
 facet normal  0.0000000000e+00 0.0000000000e+00 1.0000000000e+00
   outer loop
     vertex 3.4116940445e+01 -6.6796403005e-03 7.8501800000e+00
     vertex 3.4175089059e+01 3.5944485737e-16 7.8501800000e+00
     vertex 3.4116940445e+01 -3.3398201502e-03 7.8501800000e+00
   endloop
 endfacet
 facet normal  0.0000000000e+00 0.0000000000e+00 1.0000000000e+00
   outer loop
     vertex 3.4175089059e+01 3.5944485737e-16 7.8501800000e+00
     vertex 3.4116940445e+01 3.3398201502e-03 7.8501800000e+00
     vertex 3.4116940445e+01 -3.8650347540e-17 7.8501800000e+00
   endloop
 endfacet
 facet normal  -0.0000000000e+00 0.0000000000e+00 1.0000000000e+00
   outer loop
     vertex 3.4116940445e+01 3.3398201502e-03 7.8501800000e+00
     vertex 3.4015253175e+01 1.5021884099e-16 7.8501800000e+00
     vertex 3.4116940445e+01 -3.8650347540e-17 7.8501800000e+00
   endloop
 endfacet
 facet normal  0.0000000000e+00 0.0000000000e+00 1.0000000000e+00
   outer loop
     vertex 3.4116940445e+01 3.3398201502e-03 7.8501800000e+00
     vertex 3.4015253175e+01 8.9023350308e-03 7.8501800000e+00
     vertex 3.4015253175e+01 1.5021884099e-16 7.8501800000e+00
   endloop
 endfacet
 facet normal  -0.0000000000e+00 0.0000000000e+00 1.0000000000e+00
   outer loop
     vertex 3.4015253175e+01 8.9023350308e-03 7.8501800000e+00
     vertex 3.3850143497e+01 3.4116563433e-16 7.8501800000e+00
     vertex 3.4015253175e+01 1.5021884099e-16 7.8501800000e+00
   endloop
 endfacet
 facet normal  0.0000000000e+00 0.0000000000e+00 1.0000000000e+00
   outer loop
     vertex 3.4015253175e+01 8.9023350308e-03 7.8501800000e+00
     vertex 3.3850143497e+01 1.7223775475e-02 7.8501800000e+00
     vertex 3.3850143497e+01 3.4116563433e-16 7.8501800000e+00
   endloop
 endfacet
 facet normal  0.0000000000e+00 0.0000000000e+00 1.0000000000e+00
   outer loop
     vertex 3.3850143497e+01 1.7223775475e-02 7.8501800000e+00
     vertex 3.3611858453e+01 3.3623544290e-16 7.8501800000e+00
     vertex 3.3850143497e+01 3.4116563433e-16 7.8501800000e+00
   endloop
 endfacet
 facet normal  0.0000000000e+00 0.0000000000e+00 1.0000000000e+00
   outer loop
     vertex 3.3850143497e+01 1.7223775475e-02 7.8501800000e+00
     vertex 3.3611858453e+01 2.7677181573e-02 7.8501800000e+00
     vertex 3.3611858453e+01 3.3623544290e-16 7.8501800000e+00
   endloop
 endfacet
 facet normal  -0.0000000000e+00 0.0000000000e+00 1.0000000000e+00
   outer loop
     vertex 3.3611858453e+01 2.7677181573e-02 7.8501800000e+00
     vertex 3.3320522008e+01 3.4556706956e-16 7.8501800000e+00
     vertex 3.3611858453e+01 3.3623544290e-16 7.8501800000e+00
   endloop
 endfacet
 facet normal  0.0000000000e+00 0.0000000000e+00 1.0000000000e+00
   outer loop
     vertex 3.3611858453e+01 2.7677181573e-02 7.8501800000e+00
     vertex 3.3320522008e+01 3.7451165674e-02 7.8501800000e+00
     vertex 3.3320522008e+01 3.4556706956e-16 7.8501800000e+00
   endloop
 endfacet
 facet normal  0.0000000000e+00 0.0000000000e+00 1.0000000000e+00
   outer loop
     vertex 3.3320522008e+01 3.7451165674e-02 7.8501800000e+00
     vertex 3.3028701109e+01 4.2214250605e-02 7.8501800000e+00
     vertex 3.3320522008e+01 3.4556706956e-16 7.8501800000e+00
   endloop
 endfacet
 facet normal  0.0000000000e+00 0.0000000000e+00 1.0000000000e+00
   outer loop
     vertex 3.3320522008e+01 3.4556706956e-16 7.8501800000e+00
     vertex 3.3028701109e+01 4.2214250605e-02 7.8501800000e+00
     vertex 3.3028701109e+01 3.5250596347e-16 7.8501800000e+00
   endloop
 endfacet
 facet normal  -0.0000000000e+00 0.0000000000e+00 1.0000000000e+00
   outer loop
     vertex 3.3028701109e+01 4.2214250605e-02 7.8501800000e+00
     vertex 3.2789603380e+01 3.9538976414e-02 7.8501800000e+00
     vertex 3.3028701109e+01 3.5250596347e-16 7.8501800000e+00
   endloop
 endfacet
 facet normal  0.0000000000e+00 0.0000000000e+00 1.0000000000e+00
   outer loop
     vertex 3.3028701109e+01 3.5250596347e-16 7.8501800000e+00
     vertex 3.2789603380e+01 3.9538976414e-02 7.8501800000e+00
     vertex 3.2789603380e+01 3.9041239613e-16 7.8501800000e+00
   endloop
 endfacet
 facet normal  -0.0000000000e+00 0.0000000000e+00 1.0000000000e+00
   outer loop
     vertex 3.2789603380e+01 3.9538976414e-02 7.8501800000e+00
     vertex 3.2624646566e+01 3.0824642625e-02 7.8501800000e+00
     vertex 3.2789603380e+01 3.9041239613e-16 7.8501800000e+00
   endloop
 endfacet
 facet normal  0.0000000000e+00 0.0000000000e+00 1.0000000000e+00
   outer loop
     vertex 3.2789603380e+01 3.9041239613e-16 7.8501800000e+00
     vertex 3.2624646566e+01 3.0824642625e-02 7.8501800000e+00
     vertex 3.2624646566e+01 4.1833834109e-16 7.8501800000e+00
   endloop
 endfacet
 facet normal  -0.0000000000e+00 0.0000000000e+00 1.0000000000e+00
   outer loop
     vertex 3.2624646566e+01 3.0824642625e-02 7.8501800000e+00
     vertex 3.2525623855e+01 1.8351489956e-02 7.8501800000e+00
     vertex 3.2624646566e+01 4.1833834109e-16 7.8501800000e+00
   endloop
 endfacet
 facet normal  0.0000000000e+00 0.0000000000e+00 1.0000000000e+00
   outer loop
     vertex 3.2624646566e+01 4.1833834109e-16 7.8501800000e+00
     vertex 3.2525623855e+01 1.8351489956e-02 7.8501800000e+00
     vertex 3.2525623855e+01 3.7435320089e-16 7.8501800000e+00
   endloop
 endfacet
 facet normal  0.0000000000e+00 0.0000000000e+00 1.0000000000e+00
   outer loop
     vertex 3.2525623855e+01 1.8351489956e-02 7.8501800000e+00
     vertex 3.2483882059e+01 3.5944485737e-16 7.8501800000e+00
     vertex 3.2525623855e+01 3.7435320089e-16 7.8501800000e+00
   endloop
 endfacet
 facet normal  0.0000000000e+00 -0.0000000000e+00 1.0000000000e+00
   outer loop
     vertex 3.2483882059e+01 3.5944485737e-16 7.8501800000e+00
     vertex 3.2525623855e+01 -1.8351489956e-02 7.8501800000e+00
     vertex 3.2525623855e+01 3.7435320089e-16 7.8501800000e+00
   endloop
 endfacet
 facet normal  0.0000000000e+00 0.0000000000e+00 1.0000000000e+00
   outer loop
     vertex 3.2525623855e+01 -1.8351489956e-02 7.8501800000e+00
     vertex 3.2624646566e+01 4.1833834109e-16 7.8501800000e+00
     vertex 3.2525623855e+01 3.7435320089e-16 7.8501800000e+00
   endloop
 endfacet
 facet normal  0.0000000000e+00 -0.0000000000e+00 1.0000000000e+00
   outer loop
     vertex 3.2525623855e+01 -1.8351489956e-02 7.8501800000e+00
     vertex 3.2624646566e+01 -3.0824642625e-02 7.8501800000e+00
     vertex 3.2624646566e+01 4.1833834109e-16 7.8501800000e+00
   endloop
 endfacet
 facet normal  0.0000000000e+00 0.0000000000e+00 1.0000000000e+00
   outer loop
     vertex 3.2624646566e+01 -3.0824642625e-02 7.8501800000e+00
     vertex 3.2789603380e+01 3.9041239613e-16 7.8501800000e+00
     vertex 3.2624646566e+01 4.1833834109e-16 7.8501800000e+00
   endloop
 endfacet
 facet normal  0.0000000000e+00 -0.0000000000e+00 1.0000000000e+00
   outer loop
     vertex 3.2624646566e+01 -3.0824642625e-02 7.8501800000e+00
     vertex 3.2789603380e+01 -3.9538976414e-02 7.8501800000e+00
     vertex 3.2789603380e+01 3.9041239613e-16 7.8501800000e+00
   endloop
 endfacet
 facet normal  0.0000000000e+00 0.0000000000e+00 1.0000000000e+00
   outer loop
     vertex 3.2789603380e+01 -3.9538976414e-02 7.8501800000e+00
     vertex 3.3028701109e+01 3.5250596347e-16 7.8501800000e+00
     vertex 3.2789603380e+01 3.9041239613e-16 7.8501800000e+00
   endloop
 endfacet
 facet normal  0.0000000000e+00 -0.0000000000e+00 1.0000000000e+00
   outer loop
     vertex 3.2789603380e+01 -3.9538976414e-02 7.8501800000e+00
     vertex 3.3028701109e+01 -4.2214250605e-02 7.8501800000e+00
     vertex 3.3028701109e+01 3.5250596347e-16 7.8501800000e+00
   endloop
 endfacet
 facet normal  0.0000000000e+00 0.0000000000e+00 1.0000000000e+00
   outer loop
     vertex 3.3028701109e+01 -4.2214250605e-02 7.8501800000e+00
     vertex 3.3320522008e+01 3.4556706956e-16 7.8501800000e+00
     vertex 3.3028701109e+01 3.5250596347e-16 7.8501800000e+00
   endloop
 endfacet
 facet normal  0.0000000000e+00 -0.0000000000e+00 1.0000000000e+00
   outer loop
     vertex 3.3028701109e+01 -4.2214250605e-02 7.8501800000e+00
     vertex 3.3320522008e+01 -3.7451165674e-02 7.8501800000e+00
     vertex 3.3320522008e+01 3.4556706956e-16 7.8501800000e+00
   endloop
 endfacet
 facet normal  0.0000000000e+00 0.0000000000e+00 1.0000000000e+00
   outer loop
     vertex 3.3320522008e+01 -3.7451165674e-02 7.8501800000e+00
     vertex 3.3611858453e+01 -2.7677181573e-02 7.8501800000e+00
     vertex 3.3320522008e+01 3.4556706956e-16 7.8501800000e+00
   endloop
 endfacet
 facet normal  0.0000000000e+00 -0.0000000000e+00 1.0000000000e+00
   outer loop
     vertex 3.3320522008e+01 3.4556706956e-16 7.8501800000e+00
     vertex 3.3611858453e+01 -2.7677181573e-02 7.8501800000e+00
     vertex 3.3611858453e+01 3.3623544290e-16 7.8501800000e+00
   endloop
 endfacet
 facet normal  0.0000000000e+00 0.0000000000e+00 1.0000000000e+00
   outer loop
     vertex 3.3611858453e+01 -2.7677181573e-02 7.8501800000e+00
     vertex 3.3850143497e+01 -1.7223775475e-02 7.8501800000e+00
     vertex 3.3611858453e+01 3.3623544290e-16 7.8501800000e+00
   endloop
 endfacet
 facet normal  0.0000000000e+00 -0.0000000000e+00 1.0000000000e+00
   outer loop
     vertex 3.3611858453e+01 3.3623544290e-16 7.8501800000e+00
     vertex 3.3850143497e+01 -1.7223775475e-02 7.8501800000e+00
     vertex 3.3850143497e+01 3.4116563433e-16 7.8501800000e+00
   endloop
 endfacet
 facet normal  0.0000000000e+00 0.0000000000e+00 1.0000000000e+00
   outer loop
     vertex 3.3850143497e+01 -1.7223775475e-02 7.8501800000e+00
     vertex 3.4015253175e+01 -8.9023350308e-03 7.8501800000e+00
     vertex 3.3850143497e+01 3.4116563433e-16 7.8501800000e+00
   endloop
 endfacet
 facet normal  0.0000000000e+00 -0.0000000000e+00 1.0000000000e+00
   outer loop
     vertex 3.3850143497e+01 3.4116563433e-16 7.8501800000e+00
     vertex 3.4015253175e+01 -8.9023350308e-03 7.8501800000e+00
     vertex 3.4015253175e+01 1.5021884099e-16 7.8501800000e+00
   endloop
 endfacet
 facet normal  0.0000000000e+00 0.0000000000e+00 1.0000000000e+00
   outer loop
     vertex 3.4015253175e+01 -8.9023350308e-03 7.8501800000e+00
     vertex 3.4116940445e+01 -3.3398201502e-03 7.8501800000e+00
     vertex 3.4015253175e+01 1.5021884099e-16 7.8501800000e+00
   endloop
 endfacet
 facet normal  0.0000000000e+00 -0.0000000000e+00 1.0000000000e+00
   outer loop
     vertex 3.4015253175e+01 1.5021884099e-16 7.8501800000e+00
     vertex 3.4116940445e+01 -3.3398201502e-03 7.8501800000e+00
     vertex 3.4116940445e+01 -3.8650347540e-17 7.8501800000e+00
   endloop
 endfacet
 facet normal  0.0000000000e+00 0.0000000000e+00 1.0000000000e+00
   outer loop
     vertex 3.4116940445e+01 -3.3398201502e-03 7.8501800000e+00
     vertex 3.4175089059e+01 3.5944485737e-16 7.8501800000e+00
     vertex 3.4116940445e+01 -3.8650347540e-17 7.8501800000e+00
   endloop
 endfacet
endsolid
