solid
 facet normal  9.1872650914e-02 8.8518341976e-02 -9.9182857347e-01
   outer loop
     vertex 1.8017582000e+01 0.0000000000e+00 -9.9000000000e-01
     vertex 1.7881812516e+01 5.4089621601e+00 -5.1983925624e-01
     vertex 1.8017582000e+01 5.4089621601e+00 -5.0726298774e-01
   endloop
 endfacet
 facet normal  1.4386299305e-01 8.9278650141e-02 -9.8556215525e-01
   outer loop
     vertex 1.8017582000e+01 0.0000000000e+00 -9.9000000000e-01
     vertex 1.7784123719e+01 0.0000000000e+00 -1.0240780203e+00
     vertex 1.7881812516e+01 5.4089621601e+00 -5.1983925624e-01
   endloop
 endfacet
 facet normal  8.8893599267e-02 9.0861157979e-02 -9.9188818825e-01
   outer loop
     vertex 1.7784123719e+01 0.0000000000e+00 -1.0240780203e+00
     vertex 1.7644464928e+01 5.4089621601e+00 -5.4111048582e-01
     vertex 1.7881812516e+01 5.4089621601e+00 -5.1983925624e-01
   endloop
 endfacet
 facet normal  1.3865387222e-01 9.1628505044e-02 -9.8609295747e-01
   outer loop
     vertex 1.7784123719e+01 0.0000000000e+00 -1.0240780203e+00
     vertex 1.7375804001e+01 0.0000000000e+00 -1.0814915831e+00
     vertex 1.7644464928e+01 5.4089621601e+00 -5.4111048582e-01
   endloop
 endfacet
 facet normal  8.4509857221e-02 9.4897311257e-02 -9.9189343397e-01
   outer loop
     vertex 1.7375804001e+01 0.0000000000e+00 -1.0814915831e+00
     vertex 1.7259279725e+01 5.4089621601e+00 -5.7392847348e-01
     vertex 1.7644464928e+01 5.4089621601e+00 -5.4111048582e-01
   endloop
 endfacet
 facet normal  1.3064615017e-01 9.5415790187e-02 -9.8682694047e-01
   outer loop
     vertex 1.7375804001e+01 0.0000000000e+00 -1.0814915831e+00
     vertex 1.6712677822e+01 0.0000000000e+00 -1.1692829463e+00
     vertex 1.7259279725e+01 5.4089621601e+00 -5.7392847348e-01
   endloop
 endfacet
 facet normal  7.7684068271e-02 1.0131706128e-01 -9.9181653476e-01
   outer loop
     vertex 1.6712677822e+01 0.0000000000e+00 -1.1692829463e+00
     vertex 1.6703749178e+01 5.4089621601e+00 -6.1744042493e-01
     vertex 1.7259279725e+01 5.4089621601e+00 -5.7392847348e-01
   endloop
 endfacet
 facet normal  1.1815518127e-01 1.0097892790e-01 -9.8784746255e-01
   outer loop
     vertex 1.6712677822e+01 0.0000000000e+00 -1.1692829463e+00
     vertex 1.5755310709e+01 0.0000000000e+00 -1.2837924117e+00
     vertex 1.6703749178e+01 5.4089621601e+00 -6.1744042493e-01
   endloop
 endfacet
 facet normal  6.4052116625e-02 1.1094767377e-01 -9.9176002140e-01
   outer loop
     vertex 1.5755310709e+01 0.0000000000e+00 -1.2837924117e+00
     vertex 1.6024947898e+01 5.4089621601e+00 -6.6128032356e-01
     vertex 1.6703749178e+01 5.4089621601e+00 -6.1744042493e-01
   endloop
 endfacet
 facet normal  9.5009244277e-02 1.0914151246e-01 -9.8947530225e-01
   outer loop
     vertex 1.5755310709e+01 0.0000000000e+00 -1.2837924117e+00
     vertex 1.4583730539e+01 0.0000000000e+00 -1.3962873332e+00
     vertex 1.6024947898e+01 5.4089621601e+00 -6.6128032356e-01
   endloop
 endfacet
 facet normal  4.7227332927e-02 1.2213310777e-01 -9.9138947090e-01
   outer loop
     vertex 1.4583730539e+01 0.0000000000e+00 -1.3962873332e+00
     vertex 1.3408260294e+01 0.0000000000e+00 -1.4522838172e+00
     vertex 1.6024947898e+01 5.4089621601e+00 -6.6128032356e-01
   endloop
 endfacet
 facet normal  3.3478397215e-02 1.2874392657e-01 -9.9111260626e-01
   outer loop
     vertex 1.6024947898e+01 5.4089621601e+00 -6.6128032356e-01
     vertex 1.3408260294e+01 0.0000000000e+00 -1.4522838172e+00
     vertex 1.5345162785e+01 5.4089621601e+00 -6.8424251361e-01
   endloop
 endfacet
 facet normal  -2.3567059057e-02 1.4881244364e-01 -9.8858456914e-01
   outer loop
     vertex 1.3408260294e+01 0.0000000000e+00 -1.4522838172e+00
     vertex 1.2444545739e+01 0.0000000000e+00 -1.4293096393e+00
     vertex 1.5345162785e+01 5.4089621601e+00 -6.8424251361e-01
   endloop
 endfacet
 facet normal  -8.1744877658e-03 1.4075446045e-01 -9.9001078762e-01
   outer loop
     vertex 1.5345162785e+01 5.4089621601e+00 -6.8424251361e-01
     vertex 1.2444545739e+01 0.0000000000e+00 -1.4293096393e+00
     vertex 1.4787973295e+01 5.4089621601e+00 -6.7964181761e-01
   endloop
 endfacet
 facet normal  -1.3474978373e-01 1.9308102285e-01 -9.7188590606e-01
   outer loop
     vertex 1.2444545739e+01 0.0000000000e+00 -1.4293096393e+00
     vertex 1.1782732627e+01 0.0000000000e+00 -1.3375507475e+00
     vertex 1.4787973295e+01 5.4089621601e+00 -6.7964181761e-01
   endloop
 endfacet
 facet normal  -6.8671158980e-02 1.5796907249e-01 -9.8505332042e-01
   outer loop
     vertex 1.4787973295e+01 5.4089621601e+00 -6.7964181761e-01
     vertex 1.1782732627e+01 0.0000000000e+00 -1.3375507475e+00
     vertex 1.4402485086e+01 5.4089621601e+00 -6.5276822455e-01
   endloop
 endfacet
 facet normal  -3.6531563066e-01 2.8896467425e-01 -8.8489768168e-01
   outer loop
     vertex 1.1782732627e+01 0.0000000000e+00 -1.3375507475e+00
     vertex 1.1403925967e+01 0.0000000000e+00 -1.1811665724e+00
     vertex 1.4402485086e+01 5.4089621601e+00 -6.5276822455e-01
   endloop
 endfacet
 facet normal  -2.2403276093e-01 2.1701272933e-01 -9.5011304450e-01
   outer loop
     vertex 1.4402485086e+01 5.4089621601e+00 -6.5276822455e-01
     vertex 1.1403925967e+01 0.0000000000e+00 -1.1811665724e+00
     vertex 1.4171196515e+01 5.4089621601e+00 -5.9823132763e-01
   endloop
 endfacet
 facet normal  -7.4933879843e-01 4.3698757785e-01 -4.9752710677e-01
   outer loop
     vertex 1.1403925967e+01 0.0000000000e+00 -1.1811665724e+00
     vertex 1.1277000000e+01 0.0000000000e+00 -9.9000000000e-01
     vertex 1.4171196515e+01 5.4089621601e+00 -5.9823132763e-01
   endloop
 endfacet
 facet normal  -6.4178518595e-01 3.9117832306e-01 -6.5961450459e-01
   outer loop
     vertex 1.4171196515e+01 5.4089621601e+00 -5.9823132763e-01
     vertex 1.1277000000e+01 0.0000000000e+00 -9.9000000000e-01
     vertex 1.4077701000e+01 5.4089621601e+00 -5.0726298774e-01
   endloop
 endfacet
 facet normal  -7.9189490177e-01 3.6643756301e-01 4.8849357925e-01
   outer loop
     vertex 1.1277000000e+01 0.0000000000e+00 -9.9000000000e-01
     vertex 1.4147229560e+01 5.4089621601e+00 -3.9455052940e-01
     vertex 1.4077701000e+01 5.4089621601e+00 -5.0726298774e-01
   endloop
 endfacet
 facet normal  -8.5535741771e-01 4.2059680900e-01 3.0242687088e-01
   outer loop
     vertex 1.1277000000e+01 0.0000000000e+00 -9.9000000000e-01
     vertex 1.1355126333e+01 0.0000000000e+00 -7.6903438938e-01
     vertex 1.4147229560e+01 5.4089621601e+00 -3.9455052940e-01
   endloop
 endfacet
 facet normal  -4.2346133298e-01 1.5681732687e-01 8.9223809909e-01
   outer loop
     vertex 1.1355126333e+01 0.0000000000e+00 -7.6903438938e-01
     vertex 1.4365560283e+01 5.4089621601e+00 -2.9092951251e-01
     vertex 1.4147229560e+01 5.4089621601e+00 -3.9455052940e-01
   endloop
 endfacet
 facet normal  -5.4887350627e-01 2.3456522731e-01 8.0231977930e-01
   outer loop
     vertex 1.1355126333e+01 0.0000000000e+00 -7.6903438938e-01
     vertex 1.1701053676e+01 0.0000000000e+00 -5.3238267206e-01
     vertex 1.4365560283e+01 5.4089621601e+00 -2.9092951251e-01
   endloop
 endfacet
 facet normal  -2.1680801110e-01 6.3315779269e-02 9.7415881581e-01
   outer loop
     vertex 1.1701053676e+01 0.0000000000e+00 -5.3238267206e-01
     vertex 1.4749213283e+01 5.4089621601e+00 -2.0554400605e-01
     vertex 1.4365560283e+01 5.4089621601e+00 -2.9092951251e-01
   endloop
 endfacet
 facet normal  -2.8387623710e-01 1.0236682968e-01 9.5338099110e-01
   outer loop
     vertex 1.1701053676e+01 0.0000000000e+00 -5.3238267206e-01
     vertex 1.2356044677e+01 0.0000000000e+00 -3.3735426000e-01
     vertex 1.4749213283e+01 5.4089621601e+00 -2.0554400605e-01
   endloop
 endfacet
 facet normal  -5.8275714810e-02 1.4563801862e-03 9.9829946410e-01
   outer loop
     vertex 1.2356044677e+01 0.0000000000e+00 -3.3735426000e-01
     vertex 1.5315020358e+01 5.4089621601e+00 -1.7251502733e-01
     vertex 1.4749213283e+01 5.4089621601e+00 -2.0554400605e-01
   endloop
 endfacet
 facet normal  -8.0818346212e-02 1.3839131833e-02 9.9663276755e-01
   outer loop
     vertex 1.2356044677e+01 0.0000000000e+00 -3.3735426000e-01
     vertex 1.3338837680e+01 0.0000000000e+00 -2.5765819967e-01
     vertex 1.5315020358e+01 5.4089621601e+00 -1.7251502733e-01
   endloop
 endfacet
 facet normal  4.7996210190e-02 -3.3249852328e-02 9.9829395026e-01
   outer loop
     vertex 1.3338837680e+01 0.0000000000e+00 -2.5765819967e-01
     vertex 1.6006565169e+01 5.4089621601e+00 -2.0576328061e-01
     vertex 1.5315020358e+01 5.4089621601e+00 -1.7251502733e-01
   endloop
 endfacet
 facet normal  5.8430424206e-02 -3.8388951480e-02 9.9755309329e-01
   outer loop
     vertex 1.3338837680e+01 0.0000000000e+00 -2.5765819967e-01
     vertex 1.4541683289e+01 0.0000000000e+00 -3.2811337614e-01
     vertex 1.6006565169e+01 5.4089621601e+00 -2.0576328061e-01
   endloop
 endfacet
 facet normal  1.3658716088e-01 -5.9358838444e-02 9.8884805495e-01
   outer loop
     vertex 1.4541683289e+01 0.0000000000e+00 -3.2811337614e-01
     vertex 1.5735540737e+01 0.0000000000e+00 -4.9301798252e-01
     vertex 1.6006565169e+01 5.4089621601e+00 -2.0576328061e-01
   endloop
 endfacet
 facet normal  1.0774700425e-01 -5.8106577388e-02 9.9247882030e-01
   outer loop
     vertex 1.6006565169e+01 5.4089621601e+00 -2.0576328061e-01
     vertex 1.5735540737e+01 0.0000000000e+00 -4.9301798252e-01
     vertex 1.6694949300e+01 5.4089621601e+00 -2.8049669191e-01
   endloop
 endfacet
 facet normal  1.8614329725e-01 -7.1518439279e-02 9.7991621363e-01
   outer loop
     vertex 1.5735540737e+01 0.0000000000e+00 -4.9301798252e-01
     vertex 1.6705566556e+01 0.0000000000e+00 -6.7728251642e-01
     vertex 1.6694949300e+01 5.4089621601e+00 -2.8049669191e-01
   endloop
 endfacet
 facet normal  1.4722480371e-01 -7.2075854578e-02 9.8647348082e-01
   outer loop
     vertex 1.6694949300e+01 5.4089621601e+00 -2.8049669191e-01
     vertex 1.6705566556e+01 0.0000000000e+00 -6.7728251642e-01
     vertex 1.7255995864e+01 5.4089621601e+00 -3.6422927246e-01
   endloop
 endfacet
 facet normal  2.1840419577e-01 -7.8521742663e-02 9.7269416735e-01
   outer loop
     vertex 1.6705566556e+01 0.0000000000e+00 -6.7728251642e-01
     vertex 1.7373940989e+01 0.0000000000e+00 -8.2735618341e-01
     vertex 1.7255995864e+01 5.4089621601e+00 -3.6422927246e-01
   endloop
 endfacet
 facet normal  1.7354565908e-01 -8.0258166429e-02 9.8155006543e-01
   outer loop
     vertex 1.7255995864e+01 5.4089621601e+00 -3.6422927246e-01
     vertex 1.7373940989e+01 0.0000000000e+00 -8.2735618341e-01
     vertex 1.7643531786e+01 5.4089621601e+00 -4.3274862709e-01
   endloop
 endfacet
 facet normal  2.3940885716e-01 -8.2509063850e-02 9.6740666397e-01
   outer loop
     vertex 1.7373940989e+01 0.0000000000e+00 -8.2735618341e-01
     vertex 1.7783844717e+01 0.0000000000e+00 -9.2879706318e-01
     vertex 1.7643531786e+01 5.4089621601e+00 -4.3274862709e-01
   endloop
 endfacet
 facet normal  1.9077193190e-01 -8.4739493133e-02 9.7796998333e-01
   outer loop
     vertex 1.7643531786e+01 5.4089621601e+00 -4.3274862709e-01
     vertex 1.7783844717e+01 0.0000000000e+00 -9.2879706318e-01
     vertex 1.7881639308e+01 5.4089621601e+00 -4.7919609753e-01
   endloop
 endfacet
 facet normal  2.5239535049e-01 -8.4685073568e-02 9.6391131613e-01
   outer loop
     vertex 1.7783844717e+01 0.0000000000e+00 -9.2879706318e-01
     vertex 1.8017582000e+01 0.0000000000e+00 -9.9000000000e-01
     vertex 1.7881639308e+01 5.4089621601e+00 -4.7919609753e-01
   endloop
 endfacet
 facet normal  2.0142877728e-01 -8.7072245015e-02 9.7562537474e-01
   outer loop
     vertex 1.7881639308e+01 5.4089621601e+00 -4.7919609753e-01
     vertex 1.8017582000e+01 0.0000000000e+00 -9.9000000000e-01
     vertex 1.8017582000e+01 5.4089621601e+00 -5.0726298774e-01
   endloop
 endfacet
 facet normal  9.2072322676e-02 5.9314093653e-02 -9.9398416773e-01
   outer loop
     vertex 1.8017582000e+01 5.4089621601e+00 -5.0726298774e-01
     vertex 2.1630231577e+01 1.6903007124e+01 5.1326020565e-01
     vertex 2.1687373062e+01 1.6903007124e+01 5.1855319663e-01
   endloop
 endfacet
 facet normal  9.2072322676e-02 5.9314093653e-02 -9.9398416773e-01
   outer loop
     vertex 1.8017582000e+01 5.4089621601e+00 -5.0726298774e-01
     vertex 1.7881812516e+01 5.4089621601e+00 -5.1983925624e-01
     vertex 2.1630231577e+01 1.6903007124e+01 5.1326020565e-01
   endloop
 endfacet
 facet normal  8.9100384711e-02 6.0302294819e-02 -9.9419553141e-01
   outer loop
     vertex 1.7881812516e+01 5.4089621601e+00 -5.1983925624e-01
     vertex 2.1530338780e+01 1.6903007124e+01 5.0430775473e-01
     vertex 2.1630231577e+01 1.6903007124e+01 5.1326020565e-01
   endloop
 endfacet
 facet normal  8.9100384711e-02 6.0302294819e-02 -9.9419553141e-01
   outer loop
     vertex 1.7881812516e+01 5.4089621601e+00 -5.1983925624e-01
     vertex 1.7644464928e+01 5.4089621601e+00 -5.4111048582e-01
     vertex 2.1530338780e+01 1.6903007124e+01 5.0430775473e-01
   endloop
 endfacet
 facet normal  8.4730673921e-02 6.1805937000e-02 -9.9448516281e-01
   outer loop
     vertex 1.7644464928e+01 5.4089621601e+00 -5.4111048582e-01
     vertex 2.1368225367e+01 1.6903007124e+01 4.9049560425e-01
     vertex 2.1530338780e+01 1.6903007124e+01 5.0430775473e-01
   endloop
 endfacet
 facet normal  8.4730673921e-02 6.1805937000e-02 -9.9448516281e-01
   outer loop
     vertex 1.7644464928e+01 5.4089621601e+00 -5.4111048582e-01
     vertex 1.7259279725e+01 5.4089621601e+00 -5.7392847348e-01
     vertex 2.1368225367e+01 1.6903007124e+01 4.9049560425e-01
   endloop
 endfacet
 facet normal  7.7924413975e-02 6.4276108111e-02 -9.9488510273e-01
   outer loop
     vertex 1.7259279725e+01 5.4089621601e+00 -5.7392847348e-01
     vertex 2.1134418481e+01 1.6903007124e+01 4.7218267089e-01
     vertex 2.1368225367e+01 1.6903007124e+01 4.9049560425e-01
   endloop
 endfacet
 facet normal  7.7924413975e-02 6.4276108111e-02 -9.9488510273e-01
   outer loop
     vertex 1.7259279725e+01 5.4089621601e+00 -5.7392847348e-01
     vertex 1.6703749178e+01 5.4089621601e+00 -6.1744042493e-01
     vertex 2.1134418481e+01 1.6903007124e+01 4.7218267089e-01
   endloop
 endfacet
 facet normal  6.4293772540e-02 6.9588838445e-02 -9.9550173499e-01
   outer loop
     vertex 1.6703749178e+01 5.4089621601e+00 -6.1744042493e-01
     vertex 2.0848730475e+01 1.6903007124e+01 4.5373171397e-01
     vertex 2.1134418481e+01 1.6903007124e+01 4.7218267089e-01
   endloop
 endfacet
 facet normal  6.4293772540e-02 6.9588838445e-02 -9.9550173499e-01
   outer loop
     vertex 1.6703749178e+01 5.4089621601e+00 -6.1744042493e-01
     vertex 1.6024947898e+01 5.4089621601e+00 -6.6128032356e-01
     vertex 2.0848730475e+01 1.6903007124e+01 4.5373171397e-01
   endloop
 endfacet
 facet normal  3.3644257041e-02 8.2502273592e-02 -9.9602281039e-01
   outer loop
     vertex 1.6024947898e+01 5.4089621601e+00 -6.6128032356e-01
     vertex 1.5345162785e+01 5.4089621601e+00 -6.8424251361e-01
     vertex 2.0848730475e+01 1.6903007124e+01 4.5373171397e-01
   endloop
 endfacet
 facet normal  3.3644257041e-02 8.2502273592e-02 -9.9602281039e-01
   outer loop
     vertex 2.0848730475e+01 1.6903007124e+01 4.5373171397e-01
     vertex 1.5345162785e+01 5.4089621601e+00 -6.8424251361e-01
     vertex 2.0562628403e+01 1.6903007124e+01 4.4406758625e-01
   endloop
 endfacet
 facet normal  -8.2141430426e-03 1.0138424328e-01 -9.9481343129e-01
   outer loop
     vertex 1.5345162785e+01 5.4089621601e+00 -6.8424251361e-01
     vertex 1.4787973295e+01 5.4089621601e+00 -6.7964181761e-01
     vertex 2.0562628403e+01 1.6903007124e+01 4.4406758625e-01
   endloop
 endfacet
 facet normal  -8.2141430426e-03 1.0138424328e-01 -9.9481343129e-01
   outer loop
     vertex 2.0562628403e+01 1.6903007124e+01 4.4406758625e-01
     vertex 1.4787973295e+01 5.4089621601e+00 -6.7964181761e-01
     vertex 2.0328123316e+01 1.6903007124e+01 4.4600388734e-01
   endloop
 endfacet
 facet normal  -6.8953277696e-02 1.3010109738e-01 -9.8910017185e-01
   outer loop
     vertex 1.4787973295e+01 5.4089621601e+00 -6.7964181761e-01
     vertex 1.4402485086e+01 5.4089621601e+00 -6.5276822455e-01
     vertex 2.0328123316e+01 1.6903007124e+01 4.4600388734e-01
   endloop
 endfacet
 facet normal  -6.8953277696e-02 1.3010109738e-01 -9.8910017185e-01
   outer loop
     vertex 2.0328123316e+01 1.6903007124e+01 4.4600388734e-01
     vertex 1.4402485086e+01 5.4089621601e+00 -6.5276822455e-01
     vertex 2.0165882376e+01 1.6903007124e+01 4.5731421249e-01
   endloop
 endfacet
 facet normal  -2.2464453380e-01 2.0465376806e-01 -9.5270754623e-01
   outer loop
     vertex 1.4402485086e+01 5.4089621601e+00 -6.5276822455e-01
     vertex 1.4171196515e+01 5.4089621601e+00 -5.9823132763e-01
     vertex 2.0165882376e+01 1.6903007124e+01 4.5731421249e-01
   endloop
 endfacet
 facet normal  -2.2464453380e-01 2.0465376806e-01 -9.5270754623e-01
   outer loop
     vertex 2.0165882376e+01 1.6903007124e+01 4.5731421249e-01
     vertex 1.4171196515e+01 5.4089621601e+00 -5.9823132763e-01
     vertex 2.0068539645e+01 1.6903007124e+01 4.8026722943e-01
   endloop
 endfacet
 facet normal  -6.4178519655e-01 3.9117828730e-01 -6.5961451548e-01
   outer loop
     vertex 1.4171196515e+01 5.4089621601e+00 -5.9823132763e-01
     vertex 1.4077701000e+01 5.4089621601e+00 -5.0726298774e-01
     vertex 2.0068539645e+01 1.6903007124e+01 4.8026722943e-01
   endloop
 endfacet
 facet normal  -6.4178519655e-01 3.9117828730e-01 -6.5961451548e-01
   outer loop
     vertex 2.0068539645e+01 1.6903007124e+01 4.8026722943e-01
     vertex 1.4077701000e+01 5.4089621601e+00 -5.0726298774e-01
     vertex 2.0029190062e+01 1.6903007124e+01 5.1855319663e-01
   endloop
 endfacet
 facet normal  -7.9189491689e-01 3.6643751791e-01 4.8849358857e-01
   outer loop
     vertex 1.4077701000e+01 5.4089621601e+00 -5.0726298774e-01
     vertex 2.0058452641e+01 1.6903007124e+01 5.6599064013e-01
     vertex 2.0029190062e+01 1.6903007124e+01 5.1855319663e-01
   endloop
 endfacet
 facet normal  -7.9189491689e-01 3.6643751791e-01 4.8849358857e-01
   outer loop
     vertex 1.4077701000e+01 5.4089621601e+00 -5.0726298774e-01
     vertex 1.4147229560e+01 5.4089621601e+00 -3.9455052940e-01
     vertex 2.0058452641e+01 1.6903007124e+01 5.6599064013e-01
   endloop
 endfacet
 facet normal  -4.2432796508e-01 1.4351012952e-01 8.9406410328e-01
   outer loop
     vertex 1.4147229560e+01 5.4089621601e+00 -3.9455052940e-01
     vertex 2.0150341785e+01 1.6903007124e+01 6.0960175647e-01
     vertex 2.0058452641e+01 1.6903007124e+01 5.6599064013e-01
   endloop
 endfacet
 facet normal  -4.2432796508e-01 1.4351012952e-01 8.9406410328e-01
   outer loop
     vertex 1.4147229560e+01 5.4089621601e+00 -3.9455052940e-01
     vertex 1.4365560283e+01 5.4089621601e+00 -2.9092951251e-01
     vertex 2.0150341785e+01 1.6903007124e+01 6.0960175647e-01
   endloop
 endfacet
 facet normal  -2.1712671496e-01 3.2841403851e-02 9.7559081169e-01
   outer loop
     vertex 1.4365560283e+01 5.4089621601e+00 -2.9092951251e-01
     vertex 2.0311810337e+01 1.6903007124e+01 6.4553806908e-01
     vertex 2.0150341785e+01 1.6903007124e+01 6.0960175647e-01
   endloop
 endfacet
 facet normal  -2.1712671496e-01 3.2841403851e-02 9.7559081169e-01
   outer loop
     vertex 1.4365560283e+01 5.4089621601e+00 -2.9092951251e-01
     vertex 1.4749213283e+01 5.4089621601e+00 -2.0554400605e-01
     vertex 2.0311810337e+01 1.6903007124e+01 6.4553806908e-01
   endloop
 endfacet
 facet normal  -5.8214972954e-02 -4.5669105527e-02 9.9725891810e-01
   outer loop
     vertex 1.4749213283e+01 5.4089621601e+00 -2.0554400605e-01
     vertex 2.0549942320e+01 1.6903007124e+01 6.5943901964e-01
     vertex 2.0311810337e+01 1.6903007124e+01 6.4553806908e-01
   endloop
 endfacet
 facet normal  -5.8214972954e-02 -4.5669105527e-02 9.9725891810e-01
   outer loop
     vertex 1.4749213283e+01 5.4089621601e+00 -2.0554400605e-01
     vertex 1.5315020358e+01 5.4089621601e+00 -1.7251502733e-01
     vertex 2.0549942320e+01 1.6903007124e+01 6.5943901964e-01
   endloop
 endfacet
 facet normal  4.7811238335e-02 -9.3754810609e-02 9.9444664059e-01
   outer loop
     vertex 1.5315020358e+01 5.4089621601e+00 -1.7251502733e-01
     vertex 2.0840993712e+01 1.6903007124e+01 6.4544578270e-01
     vertex 2.0549942320e+01 1.6903007124e+01 6.5943901964e-01
   endloop
 endfacet
 facet normal  4.7811238335e-02 -9.3754810609e-02 9.9444664059e-01
   outer loop
     vertex 1.5315020358e+01 5.4089621601e+00 -1.7251502733e-01
     vertex 1.6006565169e+01 5.4089621601e+00 -2.0576328061e-01
     vertex 2.0840993712e+01 1.6903007124e+01 6.4544578270e-01
   endloop
 endfacet
 facet normal  1.0717294797e-01 -1.1818519532e-01 9.8719107514e-01
   outer loop
     vertex 1.6006565169e+01 5.4089621601e+00 -2.0576328061e-01
     vertex 1.6694949300e+01 5.4089621601e+00 -2.8049669191e-01
     vertex 2.0840993712e+01 1.6903007124e+01 6.4544578270e-01
   endloop
 endfacet
 facet normal  1.0717294797e-01 -1.1818519532e-01 9.8719107514e-01
   outer loop
     vertex 2.0840993712e+01 1.6903007124e+01 6.4544578270e-01
     vertex 1.6694949300e+01 5.4089621601e+00 -2.8049669191e-01
     vertex 2.1130714864e+01 1.6903007124e+01 6.1399263167e-01
   endloop
 endfacet
 facet normal  1.4630232640e-01 -1.3274908587e-01 9.8029246120e-01
   outer loop
     vertex 1.6694949300e+01 5.4089621601e+00 -2.8049669191e-01
     vertex 1.7255995864e+01 5.4089621601e+00 -3.6422927246e-01
     vertex 2.1130714864e+01 1.6903007124e+01 6.1399263167e-01
   endloop
 endfacet
 facet normal  1.4630232640e-01 -1.3274908587e-01 9.8029246120e-01
   outer loop
     vertex 2.1130714864e+01 1.6903007124e+01 6.1399263167e-01
     vertex 1.7255995864e+01 5.4089621601e+00 -3.6422927246e-01
     vertex 2.1366843284e+01 1.6903007124e+01 5.7875198820e-01
   endloop
 endfacet
 facet normal  1.7235260972e-01 -1.4161556091e-01 9.7480234449e-01
   outer loop
     vertex 1.7255995864e+01 5.4089621601e+00 -3.6422927246e-01
     vertex 1.7643531786e+01 5.4089621601e+00 -4.3274862709e-01
     vertex 2.1366843284e+01 1.6903007124e+01 5.7875198820e-01
   endloop
 endfacet
 facet normal  1.7235260972e-01 -1.4161556091e-01 9.7480234449e-01
   outer loop
     vertex 2.1366843284e+01 1.6903007124e+01 5.7875198820e-01
     vertex 1.7643531786e+01 5.4089621601e+00 -4.3274862709e-01
     vertex 2.1529946047e+01 1.6903007124e+01 5.4991415553e-01
   endloop
 endfacet
 facet normal  1.8937970266e-01 -1.4703347036e-01 9.7083288305e-01
   outer loop
     vertex 1.7643531786e+01 5.4089621601e+00 -4.3274862709e-01
     vertex 1.7881639308e+01 5.4089621601e+00 -4.7919609753e-01
     vertex 2.1529946047e+01 1.6903007124e+01 5.4991415553e-01
   endloop
 endfacet
 facet normal  1.8937970266e-01 -1.4703347036e-01 9.7083288305e-01
   outer loop
     vertex 2.1529946047e+01 1.6903007124e+01 5.4991415553e-01
     vertex 1.7881639308e+01 5.4089621601e+00 -4.7919609753e-01
     vertex 2.1630158679e+01 1.6903007124e+01 5.3036574636e-01
   endloop
 endfacet
 facet normal  1.9990180994e-01 -1.5023634771e-01 9.6822946981e-01
   outer loop
     vertex 1.7881639308e+01 5.4089621601e+00 -4.7919609753e-01
     vertex 1.8017582000e+01 5.4089621601e+00 -5.0726298774e-01
     vertex 2.1630158679e+01 1.6903007124e+01 5.3036574636e-01
   endloop
 endfacet
 facet normal  1.9990180994e-01 -1.5023634771e-01 9.6822946981e-01
   outer loop
     vertex 2.1630158679e+01 1.6903007124e+01 5.3036574636e-01
     vertex 1.8017582000e+01 5.4089621601e+00 -5.0726298774e-01
     vertex 2.1687373062e+01 1.6903007124e+01 5.1855319663e-01
   endloop
 endfacet
 facet normal  8.2660379851e-02 4.4365838841e-01 -8.9237575942e-01
   outer loop
     vertex 2.1687373062e+01 1.6903007124e+01 5.1855319663e-01
     vertex 2.1630231577e+01 1.6903007124e+01 5.1326020565e-01
     vertex 2.1632096853e+01 1.6908726783e+01 5.1627660218e-01
   endloop
 endfacet
 facet normal  7.9774549238e-02 4.4451357238e-01 -8.9221281389e-01
   outer loop
     vertex 2.1630231577e+01 1.6903007124e+01 5.1326020565e-01
     vertex 2.1535423962e+01 1.6918188590e+01 5.1234689535e-01
     vertex 2.1632096853e+01 1.6908726783e+01 5.1627660218e-01
   endloop
 endfacet
 facet normal  7.9918120612e-02 4.4543870746e-01 -8.9173844366e-01
   outer loop
     vertex 2.1630231577e+01 1.6903007124e+01 5.1326020565e-01
     vertex 2.1530338780e+01 1.6903007124e+01 5.0430775473e-01
     vertex 2.1535423962e+01 1.6918188590e+01 5.1234689535e-01
   endloop
 endfacet
 facet normal  7.5554630515e-02 4.4675343120e-01 -8.9146108693e-01
   outer loop
     vertex 2.1530338780e+01 1.6903007124e+01 5.0430775473e-01
     vertex 2.1378446539e+01 1.6932157403e+01 5.0604291170e-01
     vertex 2.1535423962e+01 1.6918188590e+01 5.1234689535e-01
   endloop
 endfacet
 facet normal  7.5880186489e-02 4.4839894590e-01 -8.9060686199e-01
   outer loop
     vertex 2.1530338780e+01 1.6903007124e+01 5.0430775473e-01
     vertex 2.1368225367e+01 1.6903007124e+01 4.9049560425e-01
     vertex 2.1378446539e+01 1.6932157403e+01 5.0604291170e-01
   endloop
 endfacet
 facet normal  6.9019922288e-02 4.5052871669e-01 -8.9008995375e-01
   outer loop
     vertex 2.1368225367e+01 1.6903007124e+01 4.9049560425e-01
     vertex 2.1151733937e+01 1.6949305655e+01 4.9714279313e-01
     vertex 2.1378446539e+01 1.6932157403e+01 5.0604291170e-01
   endloop
 endfacet
 facet normal  6.9610552817e-02 4.5309660582e-01 -8.8873946505e-01
   outer loop
     vertex 2.1368225367e+01 1.6903007124e+01 4.9049560425e-01
     vertex 2.1134418481e+01 1.6903007124e+01 4.7218267089e-01
     vertex 2.1151733937e+01 1.6949305655e+01 4.9714279313e-01
   endloop
 endfacet
 facet normal  5.6325838016e-02 4.5738714755e-01 -8.8748205460e-01
   outer loop
     vertex 2.1134418481e+01 1.6903007124e+01 4.7218267089e-01
     vertex 2.0873521471e+01 1.6964744458e+01 4.8744227030e-01
     vertex 2.1151733937e+01 1.6949305655e+01 4.9714279313e-01
   endloop
 endfacet
 facet normal  5.7204149448e-02 4.6066540816e-01 -8.8572855154e-01
   outer loop
     vertex 2.1134418481e+01 1.6903007124e+01 4.7218267089e-01
     vertex 2.0848730475e+01 1.6903007124e+01 4.5373171397e-01
     vertex 2.0873521471e+01 1.6964744458e+01 4.8744227030e-01
   endloop
 endfacet
 facet normal  2.9802111359e-02 4.6978466608e-01 -8.8227784834e-01
   outer loop
     vertex 2.0848730475e+01 1.6903007124e+01 4.5373171397e-01
     vertex 2.0562628403e+01 1.6903007124e+01 4.4406758625e-01
     vertex 2.0873521471e+01 1.6964744458e+01 4.8744227030e-01
   endloop
 endfacet
 facet normal  2.8696503287e-02 4.7384908994e-01 -8.8013837018e-01
   outer loop
     vertex 2.0873521471e+01 1.6964744458e+01 4.8744227030e-01
     vertex 2.0562628403e+01 1.6903007124e+01 4.4406758625e-01
     vertex 2.0591880930e+01 1.6971485782e+01 4.8188890662e-01
   endloop
 endfacet
 facet normal  -7.2168437028e-03 4.8581712997e-01 -8.7403068218e-01
   outer loop
     vertex 2.0562628403e+01 1.6903007124e+01 4.4406758625e-01
     vertex 2.0328123316e+01 1.6903007124e+01 4.4600388734e-01
     vertex 2.0591880930e+01 1.6971485782e+01 4.8188890662e-01
   endloop
 endfacet
 facet normal  -8.2878387328e-03 4.8900478610e-01 -8.7224172733e-01
   outer loop
     vertex 2.0591880930e+01 1.6971485782e+01 4.8188890662e-01
     vertex 2.0328123316e+01 1.6903007124e+01 4.4600388734e-01
     vertex 2.0356090743e+01 1.6965923788e+01 4.8101111012e-01
   endloop
 endfacet
 facet normal  -6.0001904944e-02 5.0556905085e-01 -8.6069722099e-01
   outer loop
     vertex 2.0328123316e+01 1.6903007124e+01 4.4600388734e-01
     vertex 2.0165882376e+01 1.6903007124e+01 4.5731421249e-01
     vertex 2.0356090743e+01 1.6965923788e+01 4.8101111012e-01
   endloop
 endfacet
 facet normal  -6.0714851740e-02 5.0731778003e-01 -8.5961757592e-01
   outer loop
     vertex 2.0356090743e+01 1.6965923788e+01 4.8101111012e-01
     vertex 2.0165882376e+01 1.6903007124e+01 4.5731421249e-01
     vertex 2.0187623358e+01 1.6950860005e+01 4.8401982854e-01
   endloop
 endfacet
 facet normal  -1.9264862974e-01 5.4348329290e-01 -8.1701433023e-01
   outer loop
     vertex 2.0165882376e+01 1.6903007124e+01 4.5731421249e-01
     vertex 2.0068539645e+01 1.6903007124e+01 4.8026722943e-01
     vertex 2.0187623358e+01 1.6950860005e+01 4.8401982854e-01
   endloop
 endfacet
 facet normal  -1.9266610508e-01 5.4352431760e-01 -8.1698291789e-01
   outer loop
     vertex 2.0187623358e+01 1.6950860005e+01 4.8401982854e-01
     vertex 2.0068539645e+01 1.6903007124e+01 4.8026722943e-01
     vertex 2.0080895963e+01 1.6929953979e+01 4.9528055130e-01
   endloop
 endfacet
 facet normal  -5.6617119328e-01 5.8381734659e-01 -5.8189989321e-01
   outer loop
     vertex 2.0068539645e+01 1.6903007124e+01 4.8026722943e-01
     vertex 2.0029190062e+01 1.6903007124e+01 5.1855319663e-01
     vertex 2.0080895963e+01 1.6929953979e+01 4.9528055130e-01
   endloop
 endfacet
 facet normal  -7.0266482289e-01 5.6425419471e-01 4.3345051670e-01
   outer loop
     vertex 2.0029190062e+01 1.6903007124e+01 5.1855319663e-01
     vertex 2.0058452641e+01 1.6903007124e+01 5.6599064013e-01
     vertex 2.0073780607e+01 1.6929955785e+01 5.5575770309e-01
   endloop
 endfacet
 facet normal  -3.7144391745e-01 5.0669470628e-01 7.7800378586e-01
   outer loop
     vertex 2.0058452641e+01 1.6903007124e+01 5.6599064013e-01
     vertex 2.0176682762e+01 1.6950867359e+01 5.9126729357e-01
     vertex 2.0073780607e+01 1.6929955785e+01 5.5575770309e-01
   endloop
 endfacet
 facet normal  -3.7056361081e-01 5.0305281368e-01 7.8078196508e-01
   outer loop
     vertex 2.0058452641e+01 1.6903007124e+01 5.6599064013e-01
     vertex 2.0150341785e+01 1.6903007124e+01 6.0960175647e-01
     vertex 2.0176682762e+01 1.6950867359e+01 5.9126729357e-01
   endloop
 endfacet
 facet normal  -1.9645562607e-01 4.4318359136e-01 8.7463906346e-01
   outer loop
     vertex 2.0150341785e+01 1.6903007124e+01 6.0960175647e-01
     vertex 2.0344625241e+01 1.6965940326e+01 6.2135187836e-01
     vertex 2.0176682762e+01 1.6950867359e+01 5.9126729357e-01
   endloop
 endfacet
 facet normal  -1.9520515897e-01 4.3886502572e-01 8.7709317356e-01
   outer loop
     vertex 2.0150341785e+01 1.6903007124e+01 6.0960175647e-01
     vertex 2.0311810337e+01 1.6903007124e+01 6.4553806908e-01
     vertex 2.0344625241e+01 1.6965940326e+01 6.2135187836e-01
   endloop
 endfacet
 facet normal  -5.5165400779e-02 3.8312207534e-01 9.2204894336e-01
   outer loop
     vertex 2.0311810337e+01 1.6903007124e+01 6.4553806908e-01
     vertex 2.0582973950e+01 1.6971510759e+01 6.3329749819e-01
     vertex 2.0344625241e+01 1.6965940326e+01 6.2135187836e-01
   endloop
 endfacet
 facet normal  -5.3937568034e-02 3.7860766156e-01 9.2398429498e-01
   outer loop
     vertex 2.0311810337e+01 1.6903007124e+01 6.4553806908e-01
     vertex 2.0549942320e+01 1.6903007124e+01 6.5943901964e-01
     vertex 2.0582973950e+01 1.6971510759e+01 6.3329749819e-01
   endloop
 endfacet
 facet normal  4.4258070979e-02 3.3748170204e-01 9.4029108469e-01
   outer loop
     vertex 2.0549942320e+01 1.6903007124e+01 6.5943901964e-01
     vertex 2.0868089499e+01 1.6964768554e+01 6.2229740104e-01
     vertex 2.0582973950e+01 1.6971510759e+01 6.3329749819e-01
   endloop
 endfacet
 facet normal  4.5279866441e-02 3.3312293953e-01 9.4179554090e-01
   outer loop
     vertex 2.0549942320e+01 1.6903007124e+01 6.5943901964e-01
     vertex 2.0840993712e+01 1.6903007124e+01 6.4544578270e-01
     vertex 2.0868089499e+01 1.6964768554e+01 6.2229740104e-01
   endloop
 endfacet
 facet normal  1.0263655260e-01 3.0931259276e-01 9.4540544637e-01
   outer loop
     vertex 2.0840993712e+01 1.6903007124e+01 6.4544578270e-01
     vertex 2.1130714864e+01 1.6903007124e+01 6.1399263167e-01
     vertex 2.0868089499e+01 1.6964768554e+01 6.2229740104e-01
   endloop
 endfacet
 facet normal  1.0194300616e-01 3.0621798738e-01 9.4648727815e-01
   outer loop
     vertex 2.0868089499e+01 1.6964768554e+01 6.2229740104e-01
     vertex 2.1130714864e+01 1.6903007124e+01 6.1399263167e-01
     vertex 2.1149131261e+01 1.6949320874e+01 5.9702512814e-01
   endloop
 endfacet
 facet normal  1.4124078322e-01 2.9055134695e-01 9.4637780825e-01
   outer loop
     vertex 2.1130714864e+01 1.6903007124e+01 6.1399263167e-01
     vertex 2.1366843284e+01 1.6903007124e+01 5.7875198820e-01
     vertex 2.1149131261e+01 1.6949320874e+01 5.9702512814e-01
   endloop
 endfacet
 facet normal  1.4082573763e-01 2.8830495036e-01 9.4712637342e-01
   outer loop
     vertex 2.1149131261e+01 1.6949320874e+01 5.9702512814e-01
     vertex 2.1366843284e+01 1.6903007124e+01 5.7875198820e-01
     vertex 2.1377474003e+01 1.6932163909e+01 5.6829601875e-01
   endloop
 endfacet
 facet normal  1.6723319352e-01 2.7821808206e-01 9.4584763984e-01
   outer loop
     vertex 2.1366843284e+01 1.6903007124e+01 5.7875198820e-01
     vertex 2.1529946047e+01 1.6903007124e+01 5.4991415553e-01
     vertex 2.1377474003e+01 1.6932163909e+01 5.6829601875e-01
   endloop
 endfacet
 facet normal  1.6703358829e-01 2.7691010453e-01 9.4626665079e-01
   outer loop
     vertex 2.1377474003e+01 1.6932163909e+01 5.6829601875e-01
     vertex 2.1529946047e+01 1.6903007124e+01 5.4991415553e-01
     vertex 2.1535147283e+01 1.6918190493e+01 5.4455286603e-01
   endloop
 endfacet
 facet normal  1.8432251500e-01 2.7050777343e-01 9.4490780237e-01
   outer loop
     vertex 2.1529946047e+01 1.6903007124e+01 5.4991415553e-01
     vertex 2.1630158679e+01 1.6903007124e+01 5.3036574636e-01
     vertex 2.1535147283e+01 1.6918190493e+01 5.4455286603e-01
   endloop
 endfacet
 facet normal  1.8424888362e-01 2.6986075097e-01 9.4510714946e-01
   outer loop
     vertex 2.1535147283e+01 1.6918190493e+01 5.4455286603e-01
     vertex 2.1630158679e+01 1.6903007124e+01 5.3036574636e-01
     vertex 2.1632045453e+01 1.6908727123e+01 5.2836466197e-01
   endloop
 endfacet
 facet normal  1.9491333607e-01 2.6597936935e-01 9.4406767051e-01
   outer loop
     vertex 2.1630158679e+01 1.6903007124e+01 5.3036574636e-01
     vertex 2.1687373062e+01 1.6903007124e+01 5.1855319663e-01
     vertex 2.1632045453e+01 1.6908727123e+01 5.2836466197e-01
   endloop
 endfacet
 facet normal  1.1068421389e-01 9.2496160001e-01 -3.6358636292e-01
   outer loop
     vertex 2.1687373062e+01 1.6903007124e+01 5.1855319663e-01
     vertex 2.1632096853e+01 1.6908726783e+01 5.1627660218e-01
     vertex 2.1632847949e+01 1.6911095335e+01 5.2253083481e-01
   endloop
 endfacet
 facet normal  1.0513697963e-01 9.2575248888e-01 -3.6321969226e-01
   outer loop
     vertex 2.1632096853e+01 1.6908726783e+01 5.1627660218e-01
     vertex 2.1537414353e+01 1.6924473424e+01 5.2900405156e-01
     vertex 2.1632847949e+01 1.6911095335e+01 5.2253083481e-01
   endloop
 endfacet
 facet normal  1.0536694727e-01 9.2618619350e-01 -3.6204549631e-01
   outer loop
     vertex 2.1632096853e+01 1.6908726783e+01 5.1627660218e-01
     vertex 2.1535423962e+01 1.6918188590e+01 5.1234689535e-01
     vertex 2.1537414353e+01 1.6924473424e+01 5.2900405156e-01
   endloop
 endfacet
 facet normal  9.6555248383e-02 9.2738111689e-01 -3.6144342303e-01
   outer loop
     vertex 2.1535423962e+01 1.6918188590e+01 5.1234689535e-01
     vertex 2.1382272594e+01 1.6944218984e+01 5.3822239128e-01
     vertex 2.1537414353e+01 1.6924473424e+01 5.2900405156e-01
   endloop
 endfacet
 facet normal  9.7023416554e-02 9.2812001727e-01 -3.5941576229e-01
   outer loop
     vertex 2.1535423962e+01 1.6918188590e+01 5.1234689535e-01
     vertex 2.1378446539e+01 1.6932157403e+01 5.0604291170e-01
     vertex 2.1382272594e+01 1.6944218984e+01 5.3822239128e-01
   endloop
 endfacet
 facet normal  8.3585817424e-02 9.2980026924e-01 -3.5844786293e-01
   outer loop
     vertex 2.1378446539e+01 1.6932157403e+01 5.0604291170e-01
     vertex 2.1157815878e+01 1.6968449770e+01 5.4873547823e-01
     vertex 2.1382272594e+01 1.6944218984e+01 5.3822239128e-01
   endloop
 endfacet
 facet normal  8.4363775177e-02 9.3091036533e-01 -3.5537113720e-01
   outer loop
     vertex 2.1378446539e+01 1.6932157403e+01 5.0604291170e-01
     vertex 2.1151733937e+01 1.6949305655e+01 4.9714279313e-01
     vertex 2.1157815878e+01 1.6968449770e+01 5.4873547823e-01
   endloop
 endfacet
 facet normal  6.3006534422e-02 9.3322916027e-01 -3.5371388302e-01
   outer loop
     vertex 2.1151733937e+01 1.6949305655e+01 4.9714279313e-01
     vertex 2.0881518622e+01 1.6990255470e+01 5.5705062276e-01
     vertex 2.1157815878e+01 1.6968449770e+01 5.4873547823e-01
   endloop
 endfacet
 facet normal  6.4063147730e-02 9.3459966323e-01 -3.4988481332e-01
   outer loop
     vertex 2.1151733937e+01 1.6949305655e+01 4.9714279313e-01
     vertex 2.0873521471e+01 1.6964744458e+01 4.8744227030e-01
     vertex 2.0881518622e+01 1.6990255470e+01 5.5705062276e-01
   endloop
 endfacet
 facet normal  2.9279047407e-02 9.3743478635e-01 -3.4692759869e-01
   outer loop
     vertex 2.0873521471e+01 1.6964744458e+01 4.8744227030e-01
     vertex 2.0591880930e+01 1.6971485782e+01 4.8188890662e-01
     vertex 2.0881518622e+01 1.6990255470e+01 5.5705062276e-01
   endloop
 endfacet
 facet normal  2.8167659414e-02 9.3890830068e-01 -3.4301280717e-01
   outer loop
     vertex 2.0881518622e+01 1.6990255470e+01 5.5705062276e-01
     vertex 2.0591880930e+01 1.6971485782e+01 4.8188890662e-01
     vertex 2.0600282973e+01 1.6999771598e+01 5.6000392842e-01
   endloop
 endfacet
 facet normal  -2.0931719007e-02 9.4076773130e-01 -3.3840499239e-01
   outer loop
     vertex 2.0591880930e+01 1.6971485782e+01 4.8188890662e-01
     vertex 2.0356090743e+01 1.6965923788e+01 4.8101111012e-01
     vertex 2.0600282973e+01 1.6999771598e+01 5.6000392842e-01
   endloop
 endfacet
 facet normal  -2.1841744727e-02 9.4162350395e-01 -3.3595850189e-01
   outer loop
     vertex 2.0600282973e+01 1.6999771598e+01 5.6000392842e-01
     vertex 2.0356090743e+01 1.6965923788e+01 4.8101111012e-01
     vertex 2.0362907022e+01 1.6991914834e+01 5.5341558850e-01
   endloop
 endfacet
 facet normal  -8.9930988199e-02 9.4004441915e-01 -3.2898162164e-01
   outer loop
     vertex 2.0356090743e+01 1.6965923788e+01 4.8101111012e-01
     vertex 2.0187623358e+01 1.6950860005e+01 4.8401982854e-01
     vertex 2.0362907022e+01 1.6991914834e+01 5.5341558850e-01
   endloop
 endfacet
 facet normal  -9.0074585156e-02 9.4013814463e-01 -3.2867436487e-01
   outer loop
     vertex 2.0362907022e+01 1.6991914834e+01 5.5341558850e-01
     vertex 2.0187623358e+01 1.6950860005e+01 4.8401982854e-01
     vertex 2.0192087469e+01 1.6970639357e+01 5.3937315901e-01
   endloop
 endfacet
 facet normal  -2.1427956505e-01 9.2516142818e-01 -3.1330592048e-01
   outer loop
     vertex 2.0187623358e+01 1.6950860005e+01 4.8401982854e-01
     vertex 2.0080895963e+01 1.6929953979e+01 4.9528055130e-01
     vertex 2.0192087469e+01 1.6970639357e+01 5.3937315901e-01
   endloop
 endfacet
 facet normal  -2.1331932210e-01 9.2470396429e-01 -3.1530532068e-01
   outer loop
     vertex 2.0192087469e+01 1.6970639357e+01 5.3937315901e-01
     vertex 2.0080895963e+01 1.6929953979e+01 4.9528055130e-01
     vertex 2.0083064202e+01 1.6941102045e+01 5.2650785010e-01
   endloop
 endfacet
 facet normal  -5.3384416776e-01 8.0741554678e-01 -2.5117830195e-01
   outer loop
     vertex 2.0080895963e+01 1.6929953979e+01 4.9528055130e-01
     vertex 2.0029190062e+01 1.6903007124e+01 5.1855319663e-01
     vertex 2.0083064202e+01 1.6941102045e+01 5.2650785010e-01
   endloop
 endfacet
 facet normal  -5.8493181297e-01 8.0215249960e-01 1.2002558709e-01
   outer loop
     vertex 2.0029190062e+01 1.6903007124e+01 5.1855319663e-01
     vertex 2.0073780607e+01 1.6929955785e+01 5.5575770309e-01
     vertex 2.0083064202e+01 1.6941102045e+01 5.2650785010e-01
   endloop
 endfacet
 facet normal  -2.8106798850e-01 9.2307571922e-01 2.6254904766e-01
   outer loop
     vertex 2.0073780607e+01 1.6929955785e+01 5.5575770309e-01
     vertex 2.0192087469e+01 1.6970639357e+01 5.3937315901e-01
     vertex 2.0083064202e+01 1.6941102045e+01 5.2650785010e-01
   endloop
 endfacet
 facet normal  -2.7986495569e-01 9.2183146096e-01 2.6814616192e-01
   outer loop
     vertex 2.0073780607e+01 1.6929955785e+01 5.5575770309e-01
     vertex 2.0176682762e+01 1.6950867359e+01 5.9126729357e-01
     vertex 2.0192087469e+01 1.6970639357e+01 5.3937315901e-01
   endloop
 endfacet
 facet normal  -1.4276298409e-01 9.3825826080e-01 3.1510342178e-01
   outer loop
     vertex 2.0176682762e+01 1.6950867359e+01 5.9126729357e-01
     vertex 2.0362907022e+01 1.6991914834e+01 5.5341558850e-01
     vertex 2.0192087469e+01 1.6970639357e+01 5.3937315901e-01
   endloop
 endfacet
 facet normal  -1.4141796041e-01 9.3676788114e-01 3.2010451002e-01
   outer loop
     vertex 2.0176682762e+01 1.6950867359e+01 5.9126729357e-01
     vertex 2.0344625241e+01 1.6965940326e+01 6.2135187836e-01
     vertex 2.0362907022e+01 1.6991914834e+01 5.5341558850e-01
   endloop
 endfacet
 facet normal  -4.0647740674e-02 9.3688503196e-01 3.4726675348e-01
   outer loop
     vertex 2.0344625241e+01 1.6965940326e+01 6.2135187836e-01
     vertex 2.0600282973e+01 1.6999771598e+01 5.6000392842e-01
     vertex 2.0362907022e+01 1.6991914834e+01 5.5341558850e-01
   endloop
 endfacet
 facet normal  -3.9470806888e-02 9.3540899849e-01 3.5135745467e-01
   outer loop
     vertex 2.0344625241e+01 1.6965940326e+01 6.2135187836e-01
     vertex 2.0582973950e+01 1.6971510759e+01 6.3329749819e-01
     vertex 2.0600282973e+01 1.6999771598e+01 5.6000392842e-01
   endloop
 endfacet
 facet normal  3.5307595102e-02 9.2963344497e-01 3.6679017396e-01
   outer loop
     vertex 2.0582973950e+01 1.6971510759e+01 6.3329749819e-01
     vertex 2.0881518622e+01 1.6990255470e+01 5.5705062276e-01
     vertex 2.0600282973e+01 1.6999771598e+01 5.6000392842e-01
   endloop
 endfacet
 facet normal  3.6229471094e-02 9.2829670255e-01 3.7007115189e-01
   outer loop
     vertex 2.0582973950e+01 1.6971510759e+01 6.3329749819e-01
     vertex 2.0868089499e+01 1.6964768554e+01 6.2229740104e-01
     vertex 2.0881518622e+01 1.6990255470e+01 5.5705062276e-01
   endloop
 endfacet
 facet normal  8.4639320265e-02 9.2208840955e-01 3.7760978593e-01
   outer loop
     vertex 2.0868089499e+01 1.6964768554e+01 6.2229740104e-01
     vertex 2.1149131261e+01 1.6949320874e+01 5.9702512814e-01
     vertex 2.0881518622e+01 1.6990255470e+01 5.5705062276e-01
   endloop
 endfacet
 facet normal  8.4134416227e-02 9.2114315694e-01 3.8002195257e-01
   outer loop
     vertex 2.0881518622e+01 1.6990255470e+01 5.5705062276e-01
     vertex 2.1149131261e+01 1.6949320874e+01 5.9702512814e-01
     vertex 2.1157815878e+01 1.6968449770e+01 5.4873547823e-01
   endloop
 endfacet
 facet normal  1.1711850957e-01 9.1592289432e-01 3.8388605911e-01
   outer loop
     vertex 2.1149131261e+01 1.6949320874e+01 5.9702512814e-01
     vertex 2.1377474003e+01 1.6932163909e+01 5.6829601875e-01
     vertex 2.1157815878e+01 1.6968449770e+01 5.4873547823e-01
   endloop
 endfacet
 facet normal  1.1686305142e-01 9.1526385994e-01 3.8553222160e-01
   outer loop
     vertex 2.1157815878e+01 1.6968449770e+01 5.4873547823e-01
     vertex 2.1377474003e+01 1.6932163909e+01 5.6829601875e-01
     vertex 2.1382272594e+01 1.6944218984e+01 5.3822239128e-01
   endloop
 endfacet
 facet normal  1.3911429155e-01 9.1131318415e-01 3.8749902488e-01
   outer loop
     vertex 2.1377474003e+01 1.6932163909e+01 5.6829601875e-01
     vertex 2.1535147283e+01 1.6918190493e+01 5.4455286603e-01
     vertex 2.1382272594e+01 1.6944218984e+01 5.3822239128e-01
   endloop
 endfacet
 facet normal  1.3901790041e-01 9.1095821727e-01 3.8836728718e-01
   outer loop
     vertex 2.1382272594e+01 1.6944218984e+01 5.3822239128e-01
     vertex 2.1535147283e+01 1.6918190493e+01 5.4455286603e-01
     vertex 2.1537414353e+01 1.6924473424e+01 5.2900405156e-01
   endloop
 endfacet
 facet normal  1.5374481063e-01 9.0815445592e-01 3.8938158329e-01
   outer loop
     vertex 2.1535147283e+01 1.6918190493e+01 5.4455286603e-01
     vertex 2.1632045453e+01 1.6908727123e+01 5.2836466197e-01
     vertex 2.1537414353e+01 1.6924473424e+01 5.2900405156e-01
   endloop
 endfacet
 facet normal  1.5372198155e-01 9.0800251144e-01 3.8974477753e-01
   outer loop
     vertex 2.1537414353e+01 1.6924473424e+01 5.2900405156e-01
     vertex 2.1632045453e+01 1.6908727123e+01 5.2836466197e-01
     vertex 2.1632847949e+01 1.6911095335e+01 5.2253083481e-01
   endloop
 endfacet
 facet normal  1.6289183759e-01 9.0617823635e-01 3.9026561878e-01
   outer loop
     vertex 2.1632045453e+01 1.6908727123e+01 5.2836466197e-01
     vertex 2.1687373062e+01 1.6903007124e+01 5.1855319663e-01
     vertex 2.1632847949e+01 1.6911095335e+01 5.2253083481e-01
   endloop
 endfacet
 facet normal  9.1872650914e-02 -8.8518341976e-02 -9.9182857347e-01
   outer loop
     vertex 1.8017582000e+01 0.0000000000e+00 -9.9000000000e-01
     vertex 1.8017582000e+01 -5.4089621601e+00 -5.0726298774e-01
     vertex 1.7881812516e+01 -5.4089621601e+00 -5.1983925624e-01
   endloop
 endfacet
 facet normal  1.4386299305e-01 -8.9278650141e-02 -9.8556215525e-01
   outer loop
     vertex 1.8017582000e+01 0.0000000000e+00 -9.9000000000e-01
     vertex 1.7881812516e+01 -5.4089621601e+00 -5.1983925624e-01
     vertex 1.7784123719e+01 0.0000000000e+00 -1.0240780203e+00
   endloop
 endfacet
 facet normal  8.8893599267e-02 -9.0861157979e-02 -9.9188818825e-01
   outer loop
     vertex 1.7784123719e+01 0.0000000000e+00 -1.0240780203e+00
     vertex 1.7881812516e+01 -5.4089621601e+00 -5.1983925624e-01
     vertex 1.7644464928e+01 -5.4089621601e+00 -5.4111048582e-01
   endloop
 endfacet
 facet normal  1.3865387222e-01 -9.1628505044e-02 -9.8609295747e-01
   outer loop
     vertex 1.7784123719e+01 0.0000000000e+00 -1.0240780203e+00
     vertex 1.7644464928e+01 -5.4089621601e+00 -5.4111048582e-01
     vertex 1.7375804001e+01 0.0000000000e+00 -1.0814915831e+00
   endloop
 endfacet
 facet normal  8.4509857221e-02 -9.4897311257e-02 -9.9189343397e-01
   outer loop
     vertex 1.7375804001e+01 0.0000000000e+00 -1.0814915831e+00
     vertex 1.7644464928e+01 -5.4089621601e+00 -5.4111048582e-01
     vertex 1.7259279725e+01 -5.4089621601e+00 -5.7392847348e-01
   endloop
 endfacet
 facet normal  1.3064615017e-01 -9.5415790187e-02 -9.8682694047e-01
   outer loop
     vertex 1.7375804001e+01 0.0000000000e+00 -1.0814915831e+00
     vertex 1.7259279725e+01 -5.4089621601e+00 -5.7392847348e-01
     vertex 1.6712677822e+01 0.0000000000e+00 -1.1692829463e+00
   endloop
 endfacet
 facet normal  7.7684068271e-02 -1.0131706128e-01 -9.9181653476e-01
   outer loop
     vertex 1.6712677822e+01 0.0000000000e+00 -1.1692829463e+00
     vertex 1.7259279725e+01 -5.4089621601e+00 -5.7392847348e-01
     vertex 1.6703749178e+01 -5.4089621601e+00 -6.1744042493e-01
   endloop
 endfacet
 facet normal  1.1815518127e-01 -1.0097892790e-01 -9.8784746255e-01
   outer loop
     vertex 1.6712677822e+01 0.0000000000e+00 -1.1692829463e+00
     vertex 1.6703749178e+01 -5.4089621601e+00 -6.1744042493e-01
     vertex 1.5755310709e+01 0.0000000000e+00 -1.2837924117e+00
   endloop
 endfacet
 facet normal  6.4052116625e-02 -1.1094767377e-01 -9.9176002140e-01
   outer loop
     vertex 1.5755310709e+01 0.0000000000e+00 -1.2837924117e+00
     vertex 1.6703749178e+01 -5.4089621601e+00 -6.1744042493e-01
     vertex 1.6024947898e+01 -5.4089621601e+00 -6.6128032356e-01
   endloop
 endfacet
 facet normal  9.5009244277e-02 -1.0914151246e-01 -9.8947530225e-01
   outer loop
     vertex 1.5755310709e+01 0.0000000000e+00 -1.2837924117e+00
     vertex 1.6024947898e+01 -5.4089621601e+00 -6.6128032356e-01
     vertex 1.4583730539e+01 0.0000000000e+00 -1.3962873332e+00
   endloop
 endfacet
 facet normal  4.7227332927e-02 -1.2213310777e-01 -9.9138947090e-01
   outer loop
     vertex 1.4583730539e+01 0.0000000000e+00 -1.3962873332e+00
     vertex 1.6024947898e+01 -5.4089621601e+00 -6.6128032356e-01
     vertex 1.3408260294e+01 0.0000000000e+00 -1.4522838172e+00
   endloop
 endfacet
 facet normal  3.3478397215e-02 -1.2874392657e-01 -9.9111260626e-01
   outer loop
     vertex 1.6024947898e+01 -5.4089621601e+00 -6.6128032356e-01
     vertex 1.5345162785e+01 -5.4089621601e+00 -6.8424251361e-01
     vertex 1.3408260294e+01 0.0000000000e+00 -1.4522838172e+00
   endloop
 endfacet
 facet normal  -2.3567059057e-02 -1.4881244364e-01 -9.8858456914e-01
   outer loop
     vertex 1.3408260294e+01 0.0000000000e+00 -1.4522838172e+00
     vertex 1.5345162785e+01 -5.4089621601e+00 -6.8424251361e-01
     vertex 1.2444545739e+01 0.0000000000e+00 -1.4293096393e+00
   endloop
 endfacet
 facet normal  -8.1744877658e-03 -1.4075446045e-01 -9.9001078762e-01
   outer loop
     vertex 1.5345162785e+01 -5.4089621601e+00 -6.8424251361e-01
     vertex 1.4787973295e+01 -5.4089621601e+00 -6.7964181761e-01
     vertex 1.2444545739e+01 0.0000000000e+00 -1.4293096393e+00
   endloop
 endfacet
 facet normal  -1.3474978373e-01 -1.9308102285e-01 -9.7188590606e-01
   outer loop
     vertex 1.2444545739e+01 0.0000000000e+00 -1.4293096393e+00
     vertex 1.4787973295e+01 -5.4089621601e+00 -6.7964181761e-01
     vertex 1.1782732627e+01 0.0000000000e+00 -1.3375507475e+00
   endloop
 endfacet
 facet normal  -6.8671158980e-02 -1.5796907249e-01 -9.8505332042e-01
   outer loop
     vertex 1.4787973295e+01 -5.4089621601e+00 -6.7964181761e-01
     vertex 1.4402485086e+01 -5.4089621601e+00 -6.5276822455e-01
     vertex 1.1782732627e+01 0.0000000000e+00 -1.3375507475e+00
   endloop
 endfacet
 facet normal  -3.6531563066e-01 -2.8896467425e-01 -8.8489768168e-01
   outer loop
     vertex 1.1782732627e+01 0.0000000000e+00 -1.3375507475e+00
     vertex 1.4402485086e+01 -5.4089621601e+00 -6.5276822455e-01
     vertex 1.1403925967e+01 0.0000000000e+00 -1.1811665724e+00
   endloop
 endfacet
 facet normal  -2.2403276093e-01 -2.1701272933e-01 -9.5011304450e-01
   outer loop
     vertex 1.4402485086e+01 -5.4089621601e+00 -6.5276822455e-01
     vertex 1.4171196515e+01 -5.4089621601e+00 -5.9823132763e-01
     vertex 1.1403925967e+01 0.0000000000e+00 -1.1811665724e+00
   endloop
 endfacet
 facet normal  -7.4933879843e-01 -4.3698757785e-01 -4.9752710677e-01
   outer loop
     vertex 1.1403925967e+01 0.0000000000e+00 -1.1811665724e+00
     vertex 1.4171196515e+01 -5.4089621601e+00 -5.9823132763e-01
     vertex 1.1277000000e+01 0.0000000000e+00 -9.9000000000e-01
   endloop
 endfacet
 facet normal  -6.4178518595e-01 -3.9117832306e-01 -6.5961450459e-01
   outer loop
     vertex 1.4171196515e+01 -5.4089621601e+00 -5.9823132763e-01
     vertex 1.4077701000e+01 -5.4089621601e+00 -5.0726298774e-01
     vertex 1.1277000000e+01 0.0000000000e+00 -9.9000000000e-01
   endloop
 endfacet
 facet normal  -7.9189490177e-01 -3.6643756301e-01 4.8849357925e-01
   outer loop
     vertex 1.1277000000e+01 0.0000000000e+00 -9.9000000000e-01
     vertex 1.4077701000e+01 -5.4089621601e+00 -5.0726298774e-01
     vertex 1.4147229560e+01 -5.4089621601e+00 -3.9455052940e-01
   endloop
 endfacet
 facet normal  -8.5535741771e-01 -4.2059680900e-01 3.0242687088e-01
   outer loop
     vertex 1.1277000000e+01 0.0000000000e+00 -9.9000000000e-01
     vertex 1.4147229560e+01 -5.4089621601e+00 -3.9455052940e-01
     vertex 1.1355126333e+01 0.0000000000e+00 -7.6903438938e-01
   endloop
 endfacet
 facet normal  -4.2346133298e-01 -1.5681732687e-01 8.9223809909e-01
   outer loop
     vertex 1.1355126333e+01 0.0000000000e+00 -7.6903438938e-01
     vertex 1.4147229560e+01 -5.4089621601e+00 -3.9455052940e-01
     vertex 1.4365560283e+01 -5.4089621601e+00 -2.9092951251e-01
   endloop
 endfacet
 facet normal  -5.4887350627e-01 -2.3456522731e-01 8.0231977930e-01
   outer loop
     vertex 1.1355126333e+01 0.0000000000e+00 -7.6903438938e-01
     vertex 1.4365560283e+01 -5.4089621601e+00 -2.9092951251e-01
     vertex 1.1701053676e+01 0.0000000000e+00 -5.3238267206e-01
   endloop
 endfacet
 facet normal  -2.1680801110e-01 -6.3315779269e-02 9.7415881581e-01
   outer loop
     vertex 1.1701053676e+01 0.0000000000e+00 -5.3238267206e-01
     vertex 1.4365560283e+01 -5.4089621601e+00 -2.9092951251e-01
     vertex 1.4749213283e+01 -5.4089621601e+00 -2.0554400605e-01
   endloop
 endfacet
 facet normal  -2.8387623710e-01 -1.0236682968e-01 9.5338099110e-01
   outer loop
     vertex 1.1701053676e+01 0.0000000000e+00 -5.3238267206e-01
     vertex 1.4749213283e+01 -5.4089621601e+00 -2.0554400605e-01
     vertex 1.2356044677e+01 0.0000000000e+00 -3.3735426000e-01
   endloop
 endfacet
 facet normal  -5.8275714810e-02 -1.4563801862e-03 9.9829946410e-01
   outer loop
     vertex 1.2356044677e+01 0.0000000000e+00 -3.3735426000e-01
     vertex 1.4749213283e+01 -5.4089621601e+00 -2.0554400605e-01
     vertex 1.5315020358e+01 -5.4089621601e+00 -1.7251502733e-01
   endloop
 endfacet
 facet normal  -8.0818346212e-02 -1.3839131833e-02 9.9663276755e-01
   outer loop
     vertex 1.2356044677e+01 0.0000000000e+00 -3.3735426000e-01
     vertex 1.5315020358e+01 -5.4089621601e+00 -1.7251502733e-01
     vertex 1.3338837680e+01 0.0000000000e+00 -2.5765819967e-01
   endloop
 endfacet
 facet normal  4.7996210190e-02 3.3249852328e-02 9.9829395026e-01
   outer loop
     vertex 1.3338837680e+01 0.0000000000e+00 -2.5765819967e-01
     vertex 1.5315020358e+01 -5.4089621601e+00 -1.7251502733e-01
     vertex 1.6006565169e+01 -5.4089621601e+00 -2.0576328061e-01
   endloop
 endfacet
 facet normal  5.8430424206e-02 3.8388951480e-02 9.9755309329e-01
   outer loop
     vertex 1.3338837680e+01 0.0000000000e+00 -2.5765819967e-01
     vertex 1.6006565169e+01 -5.4089621601e+00 -2.0576328061e-01
     vertex 1.4541683289e+01 0.0000000000e+00 -3.2811337614e-01
   endloop
 endfacet
 facet normal  1.3658716088e-01 5.9358838444e-02 9.8884805495e-01
   outer loop
     vertex 1.4541683289e+01 0.0000000000e+00 -3.2811337614e-01
     vertex 1.6006565169e+01 -5.4089621601e+00 -2.0576328061e-01
     vertex 1.5735540737e+01 0.0000000000e+00 -4.9301798252e-01
   endloop
 endfacet
 facet normal  1.0774700425e-01 5.8106577388e-02 9.9247882030e-01
   outer loop
     vertex 1.6006565169e+01 -5.4089621601e+00 -2.0576328061e-01
     vertex 1.6694949300e+01 -5.4089621601e+00 -2.8049669191e-01
     vertex 1.5735540737e+01 0.0000000000e+00 -4.9301798252e-01
   endloop
 endfacet
 facet normal  1.8614329725e-01 7.1518439279e-02 9.7991621363e-01
   outer loop
     vertex 1.5735540737e+01 0.0000000000e+00 -4.9301798252e-01
     vertex 1.6694949300e+01 -5.4089621601e+00 -2.8049669191e-01
     vertex 1.6705566556e+01 0.0000000000e+00 -6.7728251642e-01
   endloop
 endfacet
 facet normal  1.4722480371e-01 7.2075854578e-02 9.8647348082e-01
   outer loop
     vertex 1.6694949300e+01 -5.4089621601e+00 -2.8049669191e-01
     vertex 1.7255995864e+01 -5.4089621601e+00 -3.6422927246e-01
     vertex 1.6705566556e+01 0.0000000000e+00 -6.7728251642e-01
   endloop
 endfacet
 facet normal  2.1840419577e-01 7.8521742663e-02 9.7269416735e-01
   outer loop
     vertex 1.6705566556e+01 0.0000000000e+00 -6.7728251642e-01
     vertex 1.7255995864e+01 -5.4089621601e+00 -3.6422927246e-01
     vertex 1.7373940989e+01 0.0000000000e+00 -8.2735618341e-01
   endloop
 endfacet
 facet normal  1.7354565908e-01 8.0258166429e-02 9.8155006543e-01
   outer loop
     vertex 1.7255995864e+01 -5.4089621601e+00 -3.6422927246e-01
     vertex 1.7643531786e+01 -5.4089621601e+00 -4.3274862709e-01
     vertex 1.7373940989e+01 0.0000000000e+00 -8.2735618341e-01
   endloop
 endfacet
 facet normal  2.3940885716e-01 8.2509063850e-02 9.6740666397e-01
   outer loop
     vertex 1.7373940989e+01 0.0000000000e+00 -8.2735618341e-01
     vertex 1.7643531786e+01 -5.4089621601e+00 -4.3274862709e-01
     vertex 1.7783844717e+01 0.0000000000e+00 -9.2879706318e-01
   endloop
 endfacet
 facet normal  1.9077193190e-01 8.4739493133e-02 9.7796998333e-01
   outer loop
     vertex 1.7643531786e+01 -5.4089621601e+00 -4.3274862709e-01
     vertex 1.7881639308e+01 -5.4089621601e+00 -4.7919609753e-01
     vertex 1.7783844717e+01 0.0000000000e+00 -9.2879706318e-01
   endloop
 endfacet
 facet normal  2.5239535049e-01 8.4685073568e-02 9.6391131613e-01
   outer loop
     vertex 1.7783844717e+01 0.0000000000e+00 -9.2879706318e-01
     vertex 1.7881639308e+01 -5.4089621601e+00 -4.7919609753e-01
     vertex 1.8017582000e+01 0.0000000000e+00 -9.9000000000e-01
   endloop
 endfacet
 facet normal  2.0142877728e-01 8.7072245015e-02 9.7562537474e-01
   outer loop
     vertex 1.7881639308e+01 -5.4089621601e+00 -4.7919609753e-01
     vertex 1.8017582000e+01 -5.4089621601e+00 -5.0726298774e-01
     vertex 1.8017582000e+01 0.0000000000e+00 -9.9000000000e-01
   endloop
 endfacet
 facet normal  9.2072322676e-02 -5.9314093653e-02 -9.9398416773e-01
   outer loop
     vertex 1.8017582000e+01 -5.4089621601e+00 -5.0726298774e-01
     vertex 2.1687373062e+01 -1.6903007124e+01 5.1855319663e-01
     vertex 2.1630231577e+01 -1.6903007124e+01 5.1326020565e-01
   endloop
 endfacet
 facet normal  9.2072322676e-02 -5.9314093653e-02 -9.9398416773e-01
   outer loop
     vertex 1.8017582000e+01 -5.4089621601e+00 -5.0726298774e-01
     vertex 2.1630231577e+01 -1.6903007124e+01 5.1326020565e-01
     vertex 1.7881812516e+01 -5.4089621601e+00 -5.1983925624e-01
   endloop
 endfacet
 facet normal  8.9100384711e-02 -6.0302294819e-02 -9.9419553141e-01
   outer loop
     vertex 1.7881812516e+01 -5.4089621601e+00 -5.1983925624e-01
     vertex 2.1630231577e+01 -1.6903007124e+01 5.1326020565e-01
     vertex 2.1530338780e+01 -1.6903007124e+01 5.0430775473e-01
   endloop
 endfacet
 facet normal  8.9100384711e-02 -6.0302294819e-02 -9.9419553141e-01
   outer loop
     vertex 1.7881812516e+01 -5.4089621601e+00 -5.1983925624e-01
     vertex 2.1530338780e+01 -1.6903007124e+01 5.0430775473e-01
     vertex 1.7644464928e+01 -5.4089621601e+00 -5.4111048582e-01
   endloop
 endfacet
 facet normal  8.4730673921e-02 -6.1805937000e-02 -9.9448516281e-01
   outer loop
     vertex 1.7644464928e+01 -5.4089621601e+00 -5.4111048582e-01
     vertex 2.1530338780e+01 -1.6903007124e+01 5.0430775473e-01
     vertex 2.1368225367e+01 -1.6903007124e+01 4.9049560425e-01
   endloop
 endfacet
 facet normal  8.4730673921e-02 -6.1805937000e-02 -9.9448516281e-01
   outer loop
     vertex 1.7644464928e+01 -5.4089621601e+00 -5.4111048582e-01
     vertex 2.1368225367e+01 -1.6903007124e+01 4.9049560425e-01
     vertex 1.7259279725e+01 -5.4089621601e+00 -5.7392847348e-01
   endloop
 endfacet
 facet normal  7.7924413975e-02 -6.4276108111e-02 -9.9488510273e-01
   outer loop
     vertex 1.7259279725e+01 -5.4089621601e+00 -5.7392847348e-01
     vertex 2.1368225367e+01 -1.6903007124e+01 4.9049560425e-01
     vertex 2.1134418481e+01 -1.6903007124e+01 4.7218267089e-01
   endloop
 endfacet
 facet normal  7.7924413975e-02 -6.4276108111e-02 -9.9488510273e-01
   outer loop
     vertex 1.7259279725e+01 -5.4089621601e+00 -5.7392847348e-01
     vertex 2.1134418481e+01 -1.6903007124e+01 4.7218267089e-01
     vertex 1.6703749178e+01 -5.4089621601e+00 -6.1744042493e-01
   endloop
 endfacet
 facet normal  6.4293772540e-02 -6.9588838445e-02 -9.9550173499e-01
   outer loop
     vertex 1.6703749178e+01 -5.4089621601e+00 -6.1744042493e-01
     vertex 2.1134418481e+01 -1.6903007124e+01 4.7218267089e-01
     vertex 2.0848730475e+01 -1.6903007124e+01 4.5373171397e-01
   endloop
 endfacet
 facet normal  6.4293772540e-02 -6.9588838445e-02 -9.9550173499e-01
   outer loop
     vertex 1.6703749178e+01 -5.4089621601e+00 -6.1744042493e-01
     vertex 2.0848730475e+01 -1.6903007124e+01 4.5373171397e-01
     vertex 1.6024947898e+01 -5.4089621601e+00 -6.6128032356e-01
   endloop
 endfacet
 facet normal  3.3644257041e-02 -8.2502273592e-02 -9.9602281039e-01
   outer loop
     vertex 1.6024947898e+01 -5.4089621601e+00 -6.6128032356e-01
     vertex 2.0848730475e+01 -1.6903007124e+01 4.5373171397e-01
     vertex 1.5345162785e+01 -5.4089621601e+00 -6.8424251361e-01
   endloop
 endfacet
 facet normal  3.3644257041e-02 -8.2502273592e-02 -9.9602281039e-01
   outer loop
     vertex 2.0848730475e+01 -1.6903007124e+01 4.5373171397e-01
     vertex 2.0562628403e+01 -1.6903007124e+01 4.4406758625e-01
     vertex 1.5345162785e+01 -5.4089621601e+00 -6.8424251361e-01
   endloop
 endfacet
 facet normal  -8.2141430426e-03 -1.0138424328e-01 -9.9481343129e-01
   outer loop
     vertex 1.5345162785e+01 -5.4089621601e+00 -6.8424251361e-01
     vertex 2.0562628403e+01 -1.6903007124e+01 4.4406758625e-01
     vertex 1.4787973295e+01 -5.4089621601e+00 -6.7964181761e-01
   endloop
 endfacet
 facet normal  -8.2141430426e-03 -1.0138424328e-01 -9.9481343129e-01
   outer loop
     vertex 2.0562628403e+01 -1.6903007124e+01 4.4406758625e-01
     vertex 2.0328123316e+01 -1.6903007124e+01 4.4600388734e-01
     vertex 1.4787973295e+01 -5.4089621601e+00 -6.7964181761e-01
   endloop
 endfacet
 facet normal  -6.8953277696e-02 -1.3010109738e-01 -9.8910017185e-01
   outer loop
     vertex 1.4787973295e+01 -5.4089621601e+00 -6.7964181761e-01
     vertex 2.0328123316e+01 -1.6903007124e+01 4.4600388734e-01
     vertex 1.4402485086e+01 -5.4089621601e+00 -6.5276822455e-01
   endloop
 endfacet
 facet normal  -6.8953277696e-02 -1.3010109738e-01 -9.8910017185e-01
   outer loop
     vertex 2.0328123316e+01 -1.6903007124e+01 4.4600388734e-01
     vertex 2.0165882376e+01 -1.6903007124e+01 4.5731421249e-01
     vertex 1.4402485086e+01 -5.4089621601e+00 -6.5276822455e-01
   endloop
 endfacet
 facet normal  -2.2464453380e-01 -2.0465376806e-01 -9.5270754623e-01
   outer loop
     vertex 1.4402485086e+01 -5.4089621601e+00 -6.5276822455e-01
     vertex 2.0165882376e+01 -1.6903007124e+01 4.5731421249e-01
     vertex 1.4171196515e+01 -5.4089621601e+00 -5.9823132763e-01
   endloop
 endfacet
 facet normal  -2.2464453380e-01 -2.0465376806e-01 -9.5270754623e-01
   outer loop
     vertex 2.0165882376e+01 -1.6903007124e+01 4.5731421249e-01
     vertex 2.0068539645e+01 -1.6903007124e+01 4.8026722943e-01
     vertex 1.4171196515e+01 -5.4089621601e+00 -5.9823132763e-01
   endloop
 endfacet
 facet normal  -6.4178519655e-01 -3.9117828730e-01 -6.5961451548e-01
   outer loop
     vertex 1.4171196515e+01 -5.4089621601e+00 -5.9823132763e-01
     vertex 2.0068539645e+01 -1.6903007124e+01 4.8026722943e-01
     vertex 1.4077701000e+01 -5.4089621601e+00 -5.0726298774e-01
   endloop
 endfacet
 facet normal  -6.4178519655e-01 -3.9117828730e-01 -6.5961451548e-01
   outer loop
     vertex 2.0068539645e+01 -1.6903007124e+01 4.8026722943e-01
     vertex 2.0029190062e+01 -1.6903007124e+01 5.1855319663e-01
     vertex 1.4077701000e+01 -5.4089621601e+00 -5.0726298774e-01
   endloop
 endfacet
 facet normal  -7.9189491689e-01 -3.6643751791e-01 4.8849358857e-01
   outer loop
     vertex 1.4077701000e+01 -5.4089621601e+00 -5.0726298774e-01
     vertex 2.0029190062e+01 -1.6903007124e+01 5.1855319663e-01
     vertex 2.0058452641e+01 -1.6903007124e+01 5.6599064013e-01
   endloop
 endfacet
 facet normal  -7.9189491689e-01 -3.6643751791e-01 4.8849358857e-01
   outer loop
     vertex 1.4077701000e+01 -5.4089621601e+00 -5.0726298774e-01
     vertex 2.0058452641e+01 -1.6903007124e+01 5.6599064013e-01
     vertex 1.4147229560e+01 -5.4089621601e+00 -3.9455052940e-01
   endloop
 endfacet
 facet normal  -4.2432796508e-01 -1.4351012952e-01 8.9406410328e-01
   outer loop
     vertex 1.4147229560e+01 -5.4089621601e+00 -3.9455052940e-01
     vertex 2.0058452641e+01 -1.6903007124e+01 5.6599064013e-01
     vertex 2.0150341785e+01 -1.6903007124e+01 6.0960175647e-01
   endloop
 endfacet
 facet normal  -4.2432796508e-01 -1.4351012952e-01 8.9406410328e-01
   outer loop
     vertex 1.4147229560e+01 -5.4089621601e+00 -3.9455052940e-01
     vertex 2.0150341785e+01 -1.6903007124e+01 6.0960175647e-01
     vertex 1.4365560283e+01 -5.4089621601e+00 -2.9092951251e-01
   endloop
 endfacet
 facet normal  -2.1712671496e-01 -3.2841403851e-02 9.7559081169e-01
   outer loop
     vertex 1.4365560283e+01 -5.4089621601e+00 -2.9092951251e-01
     vertex 2.0150341785e+01 -1.6903007124e+01 6.0960175647e-01
     vertex 2.0311810337e+01 -1.6903007124e+01 6.4553806908e-01
   endloop
 endfacet
 facet normal  -2.1712671496e-01 -3.2841403851e-02 9.7559081169e-01
   outer loop
     vertex 1.4365560283e+01 -5.4089621601e+00 -2.9092951251e-01
     vertex 2.0311810337e+01 -1.6903007124e+01 6.4553806908e-01
     vertex 1.4749213283e+01 -5.4089621601e+00 -2.0554400605e-01
   endloop
 endfacet
 facet normal  -5.8214972954e-02 4.5669105527e-02 9.9725891810e-01
   outer loop
     vertex 1.4749213283e+01 -5.4089621601e+00 -2.0554400605e-01
     vertex 2.0311810337e+01 -1.6903007124e+01 6.4553806908e-01
     vertex 2.0549942320e+01 -1.6903007124e+01 6.5943901964e-01
   endloop
 endfacet
 facet normal  -5.8214972954e-02 4.5669105527e-02 9.9725891810e-01
   outer loop
     vertex 1.4749213283e+01 -5.4089621601e+00 -2.0554400605e-01
     vertex 2.0549942320e+01 -1.6903007124e+01 6.5943901964e-01
     vertex 1.5315020358e+01 -5.4089621601e+00 -1.7251502733e-01
   endloop
 endfacet
 facet normal  4.7811238335e-02 9.3754810609e-02 9.9444664059e-01
   outer loop
     vertex 1.5315020358e+01 -5.4089621601e+00 -1.7251502733e-01
     vertex 2.0549942320e+01 -1.6903007124e+01 6.5943901964e-01
     vertex 2.0840993712e+01 -1.6903007124e+01 6.4544578270e-01
   endloop
 endfacet
 facet normal  4.7811238335e-02 9.3754810609e-02 9.9444664059e-01
   outer loop
     vertex 1.5315020358e+01 -5.4089621601e+00 -1.7251502733e-01
     vertex 2.0840993712e+01 -1.6903007124e+01 6.4544578270e-01
     vertex 1.6006565169e+01 -5.4089621601e+00 -2.0576328061e-01
   endloop
 endfacet
 facet normal  1.0717294797e-01 1.1818519532e-01 9.8719107514e-01
   outer loop
     vertex 1.6006565169e+01 -5.4089621601e+00 -2.0576328061e-01
     vertex 2.0840993712e+01 -1.6903007124e+01 6.4544578270e-01
     vertex 1.6694949300e+01 -5.4089621601e+00 -2.8049669191e-01
   endloop
 endfacet
 facet normal  1.0717294797e-01 1.1818519532e-01 9.8719107514e-01
   outer loop
     vertex 2.0840993712e+01 -1.6903007124e+01 6.4544578270e-01
     vertex 2.1130714864e+01 -1.6903007124e+01 6.1399263167e-01
     vertex 1.6694949300e+01 -5.4089621601e+00 -2.8049669191e-01
   endloop
 endfacet
 facet normal  1.4630232640e-01 1.3274908587e-01 9.8029246120e-01
   outer loop
     vertex 1.6694949300e+01 -5.4089621601e+00 -2.8049669191e-01
     vertex 2.1130714864e+01 -1.6903007124e+01 6.1399263167e-01
     vertex 1.7255995864e+01 -5.4089621601e+00 -3.6422927246e-01
   endloop
 endfacet
 facet normal  1.4630232640e-01 1.3274908587e-01 9.8029246120e-01
   outer loop
     vertex 2.1130714864e+01 -1.6903007124e+01 6.1399263167e-01
     vertex 2.1366843284e+01 -1.6903007124e+01 5.7875198820e-01
     vertex 1.7255995864e+01 -5.4089621601e+00 -3.6422927246e-01
   endloop
 endfacet
 facet normal  1.7235260972e-01 1.4161556091e-01 9.7480234449e-01
   outer loop
     vertex 1.7255995864e+01 -5.4089621601e+00 -3.6422927246e-01
     vertex 2.1366843284e+01 -1.6903007124e+01 5.7875198820e-01
     vertex 1.7643531786e+01 -5.4089621601e+00 -4.3274862709e-01
   endloop
 endfacet
 facet normal  1.7235260972e-01 1.4161556091e-01 9.7480234449e-01
   outer loop
     vertex 2.1366843284e+01 -1.6903007124e+01 5.7875198820e-01
     vertex 2.1529946047e+01 -1.6903007124e+01 5.4991415553e-01
     vertex 1.7643531786e+01 -5.4089621601e+00 -4.3274862709e-01
   endloop
 endfacet
 facet normal  1.8937970266e-01 1.4703347036e-01 9.7083288305e-01
   outer loop
     vertex 1.7643531786e+01 -5.4089621601e+00 -4.3274862709e-01
     vertex 2.1529946047e+01 -1.6903007124e+01 5.4991415553e-01
     vertex 1.7881639308e+01 -5.4089621601e+00 -4.7919609753e-01
   endloop
 endfacet
 facet normal  1.8937970266e-01 1.4703347036e-01 9.7083288305e-01
   outer loop
     vertex 2.1529946047e+01 -1.6903007124e+01 5.4991415553e-01
     vertex 2.1630158679e+01 -1.6903007124e+01 5.3036574636e-01
     vertex 1.7881639308e+01 -5.4089621601e+00 -4.7919609753e-01
   endloop
 endfacet
 facet normal  1.9990180994e-01 1.5023634771e-01 9.6822946981e-01
   outer loop
     vertex 1.7881639308e+01 -5.4089621601e+00 -4.7919609753e-01
     vertex 2.1630158679e+01 -1.6903007124e+01 5.3036574636e-01
     vertex 1.8017582000e+01 -5.4089621601e+00 -5.0726298774e-01
   endloop
 endfacet
 facet normal  1.9990180994e-01 1.5023634771e-01 9.6822946981e-01
   outer loop
     vertex 2.1630158679e+01 -1.6903007124e+01 5.3036574636e-01
     vertex 2.1687373062e+01 -1.6903007124e+01 5.1855319663e-01
     vertex 1.8017582000e+01 -5.4089621601e+00 -5.0726298774e-01
   endloop
 endfacet
 facet normal  8.2660379851e-02 -4.4365838841e-01 -8.9237575942e-01
   outer loop
     vertex 2.1687373062e+01 -1.6903007124e+01 5.1855319663e-01
     vertex 2.1632096853e+01 -1.6908726783e+01 5.1627660218e-01
     vertex 2.1630231577e+01 -1.6903007124e+01 5.1326020565e-01
   endloop
 endfacet
 facet normal  7.9774549238e-02 -4.4451357238e-01 -8.9221281389e-01
   outer loop
     vertex 2.1630231577e+01 -1.6903007124e+01 5.1326020565e-01
     vertex 2.1632096853e+01 -1.6908726783e+01 5.1627660218e-01
     vertex 2.1535423962e+01 -1.6918188590e+01 5.1234689535e-01
   endloop
 endfacet
 facet normal  7.9918120612e-02 -4.4543870746e-01 -8.9173844366e-01
   outer loop
     vertex 2.1630231577e+01 -1.6903007124e+01 5.1326020565e-01
     vertex 2.1535423962e+01 -1.6918188590e+01 5.1234689535e-01
     vertex 2.1530338780e+01 -1.6903007124e+01 5.0430775473e-01
   endloop
 endfacet
 facet normal  7.5554630515e-02 -4.4675343120e-01 -8.9146108693e-01
   outer loop
     vertex 2.1530338780e+01 -1.6903007124e+01 5.0430775473e-01
     vertex 2.1535423962e+01 -1.6918188590e+01 5.1234689535e-01
     vertex 2.1378446539e+01 -1.6932157403e+01 5.0604291170e-01
   endloop
 endfacet
 facet normal  7.5880186489e-02 -4.4839894590e-01 -8.9060686199e-01
   outer loop
     vertex 2.1530338780e+01 -1.6903007124e+01 5.0430775473e-01
     vertex 2.1378446539e+01 -1.6932157403e+01 5.0604291170e-01
     vertex 2.1368225367e+01 -1.6903007124e+01 4.9049560425e-01
   endloop
 endfacet
 facet normal  6.9019922288e-02 -4.5052871669e-01 -8.9008995375e-01
   outer loop
     vertex 2.1368225367e+01 -1.6903007124e+01 4.9049560425e-01
     vertex 2.1378446539e+01 -1.6932157403e+01 5.0604291170e-01
     vertex 2.1151733937e+01 -1.6949305655e+01 4.9714279313e-01
   endloop
 endfacet
 facet normal  6.9610552817e-02 -4.5309660582e-01 -8.8873946505e-01
   outer loop
     vertex 2.1368225367e+01 -1.6903007124e+01 4.9049560425e-01
     vertex 2.1151733937e+01 -1.6949305655e+01 4.9714279313e-01
     vertex 2.1134418481e+01 -1.6903007124e+01 4.7218267089e-01
   endloop
 endfacet
 facet normal  5.6325838016e-02 -4.5738714755e-01 -8.8748205460e-01
   outer loop
     vertex 2.1134418481e+01 -1.6903007124e+01 4.7218267089e-01
     vertex 2.1151733937e+01 -1.6949305655e+01 4.9714279313e-01
     vertex 2.0873521471e+01 -1.6964744458e+01 4.8744227030e-01
   endloop
 endfacet
 facet normal  5.7204149448e-02 -4.6066540816e-01 -8.8572855154e-01
   outer loop
     vertex 2.1134418481e+01 -1.6903007124e+01 4.7218267089e-01
     vertex 2.0873521471e+01 -1.6964744458e+01 4.8744227030e-01
     vertex 2.0848730475e+01 -1.6903007124e+01 4.5373171397e-01
   endloop
 endfacet
 facet normal  2.9802111359e-02 -4.6978466608e-01 -8.8227784834e-01
   outer loop
     vertex 2.0848730475e+01 -1.6903007124e+01 4.5373171397e-01
     vertex 2.0873521471e+01 -1.6964744458e+01 4.8744227030e-01
     vertex 2.0562628403e+01 -1.6903007124e+01 4.4406758625e-01
   endloop
 endfacet
 facet normal  2.8696503287e-02 -4.7384908994e-01 -8.8013837018e-01
   outer loop
     vertex 2.0873521471e+01 -1.6964744458e+01 4.8744227030e-01
     vertex 2.0591880930e+01 -1.6971485782e+01 4.8188890662e-01
     vertex 2.0562628403e+01 -1.6903007124e+01 4.4406758625e-01
   endloop
 endfacet
 facet normal  -7.2168437028e-03 -4.8581712997e-01 -8.7403068218e-01
   outer loop
     vertex 2.0562628403e+01 -1.6903007124e+01 4.4406758625e-01
     vertex 2.0591880930e+01 -1.6971485782e+01 4.8188890662e-01
     vertex 2.0328123316e+01 -1.6903007124e+01 4.4600388734e-01
   endloop
 endfacet
 facet normal  -8.2878387328e-03 -4.8900478610e-01 -8.7224172733e-01
   outer loop
     vertex 2.0591880930e+01 -1.6971485782e+01 4.8188890662e-01
     vertex 2.0356090743e+01 -1.6965923788e+01 4.8101111012e-01
     vertex 2.0328123316e+01 -1.6903007124e+01 4.4600388734e-01
   endloop
 endfacet
 facet normal  -6.0001904944e-02 -5.0556905085e-01 -8.6069722099e-01
   outer loop
     vertex 2.0328123316e+01 -1.6903007124e+01 4.4600388734e-01
     vertex 2.0356090743e+01 -1.6965923788e+01 4.8101111012e-01
     vertex 2.0165882376e+01 -1.6903007124e+01 4.5731421249e-01
   endloop
 endfacet
 facet normal  -6.0714851740e-02 -5.0731778003e-01 -8.5961757592e-01
   outer loop
     vertex 2.0356090743e+01 -1.6965923788e+01 4.8101111012e-01
     vertex 2.0187623358e+01 -1.6950860005e+01 4.8401982854e-01
     vertex 2.0165882376e+01 -1.6903007124e+01 4.5731421249e-01
   endloop
 endfacet
 facet normal  -1.9264862974e-01 -5.4348329290e-01 -8.1701433023e-01
   outer loop
     vertex 2.0165882376e+01 -1.6903007124e+01 4.5731421249e-01
     vertex 2.0187623358e+01 -1.6950860005e+01 4.8401982854e-01
     vertex 2.0068539645e+01 -1.6903007124e+01 4.8026722943e-01
   endloop
 endfacet
 facet normal  -1.9266610508e-01 -5.4352431760e-01 -8.1698291789e-01
   outer loop
     vertex 2.0187623358e+01 -1.6950860005e+01 4.8401982854e-01
     vertex 2.0080895963e+01 -1.6929953979e+01 4.9528055130e-01
     vertex 2.0068539645e+01 -1.6903007124e+01 4.8026722943e-01
   endloop
 endfacet
 facet normal  -5.6617119328e-01 -5.8381734659e-01 -5.8189989321e-01
   outer loop
     vertex 2.0068539645e+01 -1.6903007124e+01 4.8026722943e-01
     vertex 2.0080895963e+01 -1.6929953979e+01 4.9528055130e-01
     vertex 2.0029190062e+01 -1.6903007124e+01 5.1855319663e-01
   endloop
 endfacet
 facet normal  -7.0266482289e-01 -5.6425419471e-01 4.3345051670e-01
   outer loop
     vertex 2.0029190062e+01 -1.6903007124e+01 5.1855319663e-01
     vertex 2.0073780607e+01 -1.6929955785e+01 5.5575770309e-01
     vertex 2.0058452641e+01 -1.6903007124e+01 5.6599064013e-01
   endloop
 endfacet
 facet normal  -3.7144391745e-01 -5.0669470628e-01 7.7800378586e-01
   outer loop
     vertex 2.0058452641e+01 -1.6903007124e+01 5.6599064013e-01
     vertex 2.0073780607e+01 -1.6929955785e+01 5.5575770309e-01
     vertex 2.0176682762e+01 -1.6950867359e+01 5.9126729357e-01
   endloop
 endfacet
 facet normal  -3.7056361081e-01 -5.0305281368e-01 7.8078196508e-01
   outer loop
     vertex 2.0058452641e+01 -1.6903007124e+01 5.6599064013e-01
     vertex 2.0176682762e+01 -1.6950867359e+01 5.9126729357e-01
     vertex 2.0150341785e+01 -1.6903007124e+01 6.0960175647e-01
   endloop
 endfacet
 facet normal  -1.9645562607e-01 -4.4318359136e-01 8.7463906346e-01
   outer loop
     vertex 2.0150341785e+01 -1.6903007124e+01 6.0960175647e-01
     vertex 2.0176682762e+01 -1.6950867359e+01 5.9126729357e-01
     vertex 2.0344625241e+01 -1.6965940326e+01 6.2135187836e-01
   endloop
 endfacet
 facet normal  -1.9520515897e-01 -4.3886502572e-01 8.7709317356e-01
   outer loop
     vertex 2.0150341785e+01 -1.6903007124e+01 6.0960175647e-01
     vertex 2.0344625241e+01 -1.6965940326e+01 6.2135187836e-01
     vertex 2.0311810337e+01 -1.6903007124e+01 6.4553806908e-01
   endloop
 endfacet
 facet normal  -5.5165400779e-02 -3.8312207534e-01 9.2204894336e-01
   outer loop
     vertex 2.0311810337e+01 -1.6903007124e+01 6.4553806908e-01
     vertex 2.0344625241e+01 -1.6965940326e+01 6.2135187836e-01
     vertex 2.0582973950e+01 -1.6971510759e+01 6.3329749819e-01
   endloop
 endfacet
 facet normal  -5.3937568034e-02 -3.7860766156e-01 9.2398429498e-01
   outer loop
     vertex 2.0311810337e+01 -1.6903007124e+01 6.4553806908e-01
     vertex 2.0582973950e+01 -1.6971510759e+01 6.3329749819e-01
     vertex 2.0549942320e+01 -1.6903007124e+01 6.5943901964e-01
   endloop
 endfacet
 facet normal  4.4258070979e-02 -3.3748170204e-01 9.4029108469e-01
   outer loop
     vertex 2.0549942320e+01 -1.6903007124e+01 6.5943901964e-01
     vertex 2.0582973950e+01 -1.6971510759e+01 6.3329749819e-01
     vertex 2.0868089499e+01 -1.6964768554e+01 6.2229740104e-01
   endloop
 endfacet
 facet normal  4.5279866441e-02 -3.3312293953e-01 9.4179554090e-01
   outer loop
     vertex 2.0549942320e+01 -1.6903007124e+01 6.5943901964e-01
     vertex 2.0868089499e+01 -1.6964768554e+01 6.2229740104e-01
     vertex 2.0840993712e+01 -1.6903007124e+01 6.4544578270e-01
   endloop
 endfacet
 facet normal  1.0263655260e-01 -3.0931259276e-01 9.4540544637e-01
   outer loop
     vertex 2.0840993712e+01 -1.6903007124e+01 6.4544578270e-01
     vertex 2.0868089499e+01 -1.6964768554e+01 6.2229740104e-01
     vertex 2.1130714864e+01 -1.6903007124e+01 6.1399263167e-01
   endloop
 endfacet
 facet normal  1.0194300616e-01 -3.0621798738e-01 9.4648727815e-01
   outer loop
     vertex 2.0868089499e+01 -1.6964768554e+01 6.2229740104e-01
     vertex 2.1149131261e+01 -1.6949320874e+01 5.9702512814e-01
     vertex 2.1130714864e+01 -1.6903007124e+01 6.1399263167e-01
   endloop
 endfacet
 facet normal  1.4124078322e-01 -2.9055134695e-01 9.4637780825e-01
   outer loop
     vertex 2.1130714864e+01 -1.6903007124e+01 6.1399263167e-01
     vertex 2.1149131261e+01 -1.6949320874e+01 5.9702512814e-01
     vertex 2.1366843284e+01 -1.6903007124e+01 5.7875198820e-01
   endloop
 endfacet
 facet normal  1.4082573763e-01 -2.8830495036e-01 9.4712637342e-01
   outer loop
     vertex 2.1149131261e+01 -1.6949320874e+01 5.9702512814e-01
     vertex 2.1377474003e+01 -1.6932163909e+01 5.6829601875e-01
     vertex 2.1366843284e+01 -1.6903007124e+01 5.7875198820e-01
   endloop
 endfacet
 facet normal  1.6723319352e-01 -2.7821808206e-01 9.4584763984e-01
   outer loop
     vertex 2.1366843284e+01 -1.6903007124e+01 5.7875198820e-01
     vertex 2.1377474003e+01 -1.6932163909e+01 5.6829601875e-01
     vertex 2.1529946047e+01 -1.6903007124e+01 5.4991415553e-01
   endloop
 endfacet
 facet normal  1.6703358829e-01 -2.7691010453e-01 9.4626665079e-01
   outer loop
     vertex 2.1377474003e+01 -1.6932163909e+01 5.6829601875e-01
     vertex 2.1535147283e+01 -1.6918190493e+01 5.4455286603e-01
     vertex 2.1529946047e+01 -1.6903007124e+01 5.4991415553e-01
   endloop
 endfacet
 facet normal  1.8432251500e-01 -2.7050777343e-01 9.4490780237e-01
   outer loop
     vertex 2.1529946047e+01 -1.6903007124e+01 5.4991415553e-01
     vertex 2.1535147283e+01 -1.6918190493e+01 5.4455286603e-01
     vertex 2.1630158679e+01 -1.6903007124e+01 5.3036574636e-01
   endloop
 endfacet
 facet normal  1.8424888362e-01 -2.6986075097e-01 9.4510714946e-01
   outer loop
     vertex 2.1535147283e+01 -1.6918190493e+01 5.4455286603e-01
     vertex 2.1632045453e+01 -1.6908727123e+01 5.2836466197e-01
     vertex 2.1630158679e+01 -1.6903007124e+01 5.3036574636e-01
   endloop
 endfacet
 facet normal  1.9491333607e-01 -2.6597936935e-01 9.4406767051e-01
   outer loop
     vertex 2.1630158679e+01 -1.6903007124e+01 5.3036574636e-01
     vertex 2.1632045453e+01 -1.6908727123e+01 5.2836466197e-01
     vertex 2.1687373062e+01 -1.6903007124e+01 5.1855319663e-01
   endloop
 endfacet
 facet normal  1.1068421389e-01 -9.2496160001e-01 -3.6358636292e-01
   outer loop
     vertex 2.1687373062e+01 -1.6903007124e+01 5.1855319663e-01
     vertex 2.1632847949e+01 -1.6911095335e+01 5.2253083481e-01
     vertex 2.1632096853e+01 -1.6908726783e+01 5.1627660218e-01
   endloop
 endfacet
 facet normal  1.0513697963e-01 -9.2575248888e-01 -3.6321969226e-01
   outer loop
     vertex 2.1632096853e+01 -1.6908726783e+01 5.1627660218e-01
     vertex 2.1632847949e+01 -1.6911095335e+01 5.2253083481e-01
     vertex 2.1537414353e+01 -1.6924473424e+01 5.2900405156e-01
   endloop
 endfacet
 facet normal  1.0536694727e-01 -9.2618619350e-01 -3.6204549631e-01
   outer loop
     vertex 2.1632096853e+01 -1.6908726783e+01 5.1627660218e-01
     vertex 2.1537414353e+01 -1.6924473424e+01 5.2900405156e-01
     vertex 2.1535423962e+01 -1.6918188590e+01 5.1234689535e-01
   endloop
 endfacet
 facet normal  9.6555248383e-02 -9.2738111689e-01 -3.6144342303e-01
   outer loop
     vertex 2.1535423962e+01 -1.6918188590e+01 5.1234689535e-01
     vertex 2.1537414353e+01 -1.6924473424e+01 5.2900405156e-01
     vertex 2.1382272594e+01 -1.6944218984e+01 5.3822239128e-01
   endloop
 endfacet
 facet normal  9.7023416554e-02 -9.2812001727e-01 -3.5941576229e-01
   outer loop
     vertex 2.1535423962e+01 -1.6918188590e+01 5.1234689535e-01
     vertex 2.1382272594e+01 -1.6944218984e+01 5.3822239128e-01
     vertex 2.1378446539e+01 -1.6932157403e+01 5.0604291170e-01
   endloop
 endfacet
 facet normal  8.3585817424e-02 -9.2980026924e-01 -3.5844786293e-01
   outer loop
     vertex 2.1378446539e+01 -1.6932157403e+01 5.0604291170e-01
     vertex 2.1382272594e+01 -1.6944218984e+01 5.3822239128e-01
     vertex 2.1157815878e+01 -1.6968449770e+01 5.4873547823e-01
   endloop
 endfacet
 facet normal  8.4363775177e-02 -9.3091036533e-01 -3.5537113720e-01
   outer loop
     vertex 2.1378446539e+01 -1.6932157403e+01 5.0604291170e-01
     vertex 2.1157815878e+01 -1.6968449770e+01 5.4873547823e-01
     vertex 2.1151733937e+01 -1.6949305655e+01 4.9714279313e-01
   endloop
 endfacet
 facet normal  6.3006534422e-02 -9.3322916027e-01 -3.5371388302e-01
   outer loop
     vertex 2.1151733937e+01 -1.6949305655e+01 4.9714279313e-01
     vertex 2.1157815878e+01 -1.6968449770e+01 5.4873547823e-01
     vertex 2.0881518622e+01 -1.6990255470e+01 5.5705062276e-01
   endloop
 endfacet
 facet normal  6.4063147730e-02 -9.3459966323e-01 -3.4988481332e-01
   outer loop
     vertex 2.1151733937e+01 -1.6949305655e+01 4.9714279313e-01
     vertex 2.0881518622e+01 -1.6990255470e+01 5.5705062276e-01
     vertex 2.0873521471e+01 -1.6964744458e+01 4.8744227030e-01
   endloop
 endfacet
 facet normal  2.9279047407e-02 -9.3743478635e-01 -3.4692759869e-01
   outer loop
     vertex 2.0873521471e+01 -1.6964744458e+01 4.8744227030e-01
     vertex 2.0881518622e+01 -1.6990255470e+01 5.5705062276e-01
     vertex 2.0591880930e+01 -1.6971485782e+01 4.8188890662e-01
   endloop
 endfacet
 facet normal  2.8167659414e-02 -9.3890830068e-01 -3.4301280717e-01
   outer loop
     vertex 2.0881518622e+01 -1.6990255470e+01 5.5705062276e-01
     vertex 2.0600282973e+01 -1.6999771598e+01 5.6000392842e-01
     vertex 2.0591880930e+01 -1.6971485782e+01 4.8188890662e-01
   endloop
 endfacet
 facet normal  -2.0931719007e-02 -9.4076773130e-01 -3.3840499239e-01
   outer loop
     vertex 2.0591880930e+01 -1.6971485782e+01 4.8188890662e-01
     vertex 2.0600282973e+01 -1.6999771598e+01 5.6000392842e-01
     vertex 2.0356090743e+01 -1.6965923788e+01 4.8101111012e-01
   endloop
 endfacet
 facet normal  -2.1841744727e-02 -9.4162350395e-01 -3.3595850189e-01
   outer loop
     vertex 2.0600282973e+01 -1.6999771598e+01 5.6000392842e-01
     vertex 2.0362907022e+01 -1.6991914834e+01 5.5341558850e-01
     vertex 2.0356090743e+01 -1.6965923788e+01 4.8101111012e-01
   endloop
 endfacet
 facet normal  -8.9930988199e-02 -9.4004441915e-01 -3.2898162164e-01
   outer loop
     vertex 2.0356090743e+01 -1.6965923788e+01 4.8101111012e-01
     vertex 2.0362907022e+01 -1.6991914834e+01 5.5341558850e-01
     vertex 2.0187623358e+01 -1.6950860005e+01 4.8401982854e-01
   endloop
 endfacet
 facet normal  -9.0074585156e-02 -9.4013814463e-01 -3.2867436487e-01
   outer loop
     vertex 2.0362907022e+01 -1.6991914834e+01 5.5341558850e-01
     vertex 2.0192087469e+01 -1.6970639357e+01 5.3937315901e-01
     vertex 2.0187623358e+01 -1.6950860005e+01 4.8401982854e-01
   endloop
 endfacet
 facet normal  -2.1427956505e-01 -9.2516142818e-01 -3.1330592048e-01
   outer loop
     vertex 2.0187623358e+01 -1.6950860005e+01 4.8401982854e-01
     vertex 2.0192087469e+01 -1.6970639357e+01 5.3937315901e-01
     vertex 2.0080895963e+01 -1.6929953979e+01 4.9528055130e-01
   endloop
 endfacet
 facet normal  -2.1331932210e-01 -9.2470396429e-01 -3.1530532068e-01
   outer loop
     vertex 2.0192087469e+01 -1.6970639357e+01 5.3937315901e-01
     vertex 2.0083064202e+01 -1.6941102045e+01 5.2650785010e-01
     vertex 2.0080895963e+01 -1.6929953979e+01 4.9528055130e-01
   endloop
 endfacet
 facet normal  -5.3384416776e-01 -8.0741554678e-01 -2.5117830195e-01
   outer loop
     vertex 2.0080895963e+01 -1.6929953979e+01 4.9528055130e-01
     vertex 2.0083064202e+01 -1.6941102045e+01 5.2650785010e-01
     vertex 2.0029190062e+01 -1.6903007124e+01 5.1855319663e-01
   endloop
 endfacet
 facet normal  -5.8493181297e-01 -8.0215249960e-01 1.2002558709e-01
   outer loop
     vertex 2.0029190062e+01 -1.6903007124e+01 5.1855319663e-01
     vertex 2.0083064202e+01 -1.6941102045e+01 5.2650785010e-01
     vertex 2.0073780607e+01 -1.6929955785e+01 5.5575770309e-01
   endloop
 endfacet
 facet normal  -2.8106798850e-01 -9.2307571922e-01 2.6254904766e-01
   outer loop
     vertex 2.0073780607e+01 -1.6929955785e+01 5.5575770309e-01
     vertex 2.0083064202e+01 -1.6941102045e+01 5.2650785010e-01
     vertex 2.0192087469e+01 -1.6970639357e+01 5.3937315901e-01
   endloop
 endfacet
 facet normal  -2.7986495569e-01 -9.2183146096e-01 2.6814616192e-01
   outer loop
     vertex 2.0073780607e+01 -1.6929955785e+01 5.5575770309e-01
     vertex 2.0192087469e+01 -1.6970639357e+01 5.3937315901e-01
     vertex 2.0176682762e+01 -1.6950867359e+01 5.9126729357e-01
   endloop
 endfacet
 facet normal  -1.4276298409e-01 -9.3825826080e-01 3.1510342178e-01
   outer loop
     vertex 2.0176682762e+01 -1.6950867359e+01 5.9126729357e-01
     vertex 2.0192087469e+01 -1.6970639357e+01 5.3937315901e-01
     vertex 2.0362907022e+01 -1.6991914834e+01 5.5341558850e-01
   endloop
 endfacet
 facet normal  -1.4141796041e-01 -9.3676788114e-01 3.2010451002e-01
   outer loop
     vertex 2.0176682762e+01 -1.6950867359e+01 5.9126729357e-01
     vertex 2.0362907022e+01 -1.6991914834e+01 5.5341558850e-01
     vertex 2.0344625241e+01 -1.6965940326e+01 6.2135187836e-01
   endloop
 endfacet
 facet normal  -4.0647740674e-02 -9.3688503196e-01 3.4726675348e-01
   outer loop
     vertex 2.0344625241e+01 -1.6965940326e+01 6.2135187836e-01
     vertex 2.0362907022e+01 -1.6991914834e+01 5.5341558850e-01
     vertex 2.0600282973e+01 -1.6999771598e+01 5.6000392842e-01
   endloop
 endfacet
 facet normal  -3.9470806888e-02 -9.3540899849e-01 3.5135745467e-01
   outer loop
     vertex 2.0344625241e+01 -1.6965940326e+01 6.2135187836e-01
     vertex 2.0600282973e+01 -1.6999771598e+01 5.6000392842e-01
     vertex 2.0582973950e+01 -1.6971510759e+01 6.3329749819e-01
   endloop
 endfacet
 facet normal  3.5307595102e-02 -9.2963344497e-01 3.6679017396e-01
   outer loop
     vertex 2.0582973950e+01 -1.6971510759e+01 6.3329749819e-01
     vertex 2.0600282973e+01 -1.6999771598e+01 5.6000392842e-01
     vertex 2.0881518622e+01 -1.6990255470e+01 5.5705062276e-01
   endloop
 endfacet
 facet normal  3.6229471094e-02 -9.2829670255e-01 3.7007115189e-01
   outer loop
     vertex 2.0582973950e+01 -1.6971510759e+01 6.3329749819e-01
     vertex 2.0881518622e+01 -1.6990255470e+01 5.5705062276e-01
     vertex 2.0868089499e+01 -1.6964768554e+01 6.2229740104e-01
   endloop
 endfacet
 facet normal  8.4639320265e-02 -9.2208840955e-01 3.7760978593e-01
   outer loop
     vertex 2.0868089499e+01 -1.6964768554e+01 6.2229740104e-01
     vertex 2.0881518622e+01 -1.6990255470e+01 5.5705062276e-01
     vertex 2.1149131261e+01 -1.6949320874e+01 5.9702512814e-01
   endloop
 endfacet
 facet normal  8.4134416227e-02 -9.2114315694e-01 3.8002195257e-01
   outer loop
     vertex 2.0881518622e+01 -1.6990255470e+01 5.5705062276e-01
     vertex 2.1157815878e+01 -1.6968449770e+01 5.4873547823e-01
     vertex 2.1149131261e+01 -1.6949320874e+01 5.9702512814e-01
   endloop
 endfacet
 facet normal  1.1711850957e-01 -9.1592289432e-01 3.8388605911e-01
   outer loop
     vertex 2.1149131261e+01 -1.6949320874e+01 5.9702512814e-01
     vertex 2.1157815878e+01 -1.6968449770e+01 5.4873547823e-01
     vertex 2.1377474003e+01 -1.6932163909e+01 5.6829601875e-01
   endloop
 endfacet
 facet normal  1.1686305142e-01 -9.1526385994e-01 3.8553222160e-01
   outer loop
     vertex 2.1157815878e+01 -1.6968449770e+01 5.4873547823e-01
     vertex 2.1382272594e+01 -1.6944218984e+01 5.3822239128e-01
     vertex 2.1377474003e+01 -1.6932163909e+01 5.6829601875e-01
   endloop
 endfacet
 facet normal  1.3911429155e-01 -9.1131318415e-01 3.8749902488e-01
   outer loop
     vertex 2.1377474003e+01 -1.6932163909e+01 5.6829601875e-01
     vertex 2.1382272594e+01 -1.6944218984e+01 5.3822239128e-01
     vertex 2.1535147283e+01 -1.6918190493e+01 5.4455286603e-01
   endloop
 endfacet
 facet normal  1.3901790041e-01 -9.1095821727e-01 3.8836728718e-01
   outer loop
     vertex 2.1382272594e+01 -1.6944218984e+01 5.3822239128e-01
     vertex 2.1537414353e+01 -1.6924473424e+01 5.2900405156e-01
     vertex 2.1535147283e+01 -1.6918190493e+01 5.4455286603e-01
   endloop
 endfacet
 facet normal  1.5374481063e-01 -9.0815445592e-01 3.8938158329e-01
   outer loop
     vertex 2.1535147283e+01 -1.6918190493e+01 5.4455286603e-01
     vertex 2.1537414353e+01 -1.6924473424e+01 5.2900405156e-01
     vertex 2.1632045453e+01 -1.6908727123e+01 5.2836466197e-01
   endloop
 endfacet
 facet normal  1.5372198155e-01 -9.0800251144e-01 3.8974477753e-01
   outer loop
     vertex 2.1537414353e+01 -1.6924473424e+01 5.2900405156e-01
     vertex 2.1632847949e+01 -1.6911095335e+01 5.2253083481e-01
     vertex 2.1632045453e+01 -1.6908727123e+01 5.2836466197e-01
   endloop
 endfacet
 facet normal  1.6289183759e-01 -9.0617823635e-01 3.9026561878e-01
   outer loop
     vertex 2.1632045453e+01 -1.6908727123e+01 5.2836466197e-01
     vertex 2.1632847949e+01 -1.6911095335e+01 5.2253083481e-01
     vertex 2.1687373062e+01 -1.6903007124e+01 5.1855319663e-01
   endloop
 endfacet
endsolid
